<?xml version="1.0" encoding="UTF-8" standalone="no"?>
<!-- Created with Inkscape (http://www.inkscape.org/) -->

<svg
   xmlns:dc="http://purl.org/dc/elements/1.1/"
   xmlns:cc="http://creativecommons.org/ns#"
   xmlns:rdf="http://www.w3.org/1999/02/22-rdf-syntax-ns#"
   xmlns:svg="http://www.w3.org/2000/svg"
   xmlns="http://www.w3.org/2000/svg"
   xmlns:sodipodi="http://sodipodi.sourceforge.net/DTD/sodipodi-0.dtd"
   xmlns:inkscape="http://www.inkscape.org/namespaces/inkscape"
   width="783.34253"
   height="567.10468"
   id="svg2"
   version="1.1"
   inkscape:version="0.48.3.1 r9886"
   sodipodi:docname="Nouveau document 1">
  <defs
     id="defs4" />
  <sodipodi:namedview
     id="base"
     pagecolor="#ffffff"
     bordercolor="#666666"
     borderopacity="1.0"
     inkscape:pageopacity="0"
     inkscape:pageshadow="2"
     inkscape:zoom="2"
     inkscape:cx="397.9898"
     inkscape:cy="199.25788"
     inkscape:document-units="px"
     inkscape:current-layer="layer1"
     showgrid="false"
     fit-margin-top="0"
     fit-margin-left="0"
     fit-margin-right="0"
     fit-margin-bottom="0"
     inkscape:window-width="1436"
     inkscape:window-height="837"
     inkscape:window-x="0"
     inkscape:window-y="42"
     inkscape:window-maximized="0" />
  <metadata
     id="metadata7">
    <rdf:RDF>
      <cc:Work
         rdf:about="">
        <dc:format>image/svg+xml</dc:format>
        <dc:type
           rdf:resource="http://purl.org/dc/dcmitype/StillImage" />
        <dc:title></dc:title>
      </cc:Work>
    </rdf:RDF>
  </metadata>
  <g
     inkscape:label="Calque 1"
     inkscape:groupmode="layer"
     id="layer1"
     transform="translate(-819.51424,102.92111)">
    <path
       inkscape:connector-curvature="0"
       id="path3080"
       d="m 1301.7173,337.97501 c -0.8828,-1.63726 -1.2838,-12.94814 -1.4626,-41.2557 -0.2521,-39.90714 -1.5566,-59.10508 -5.0962,-75 -0.8573,-3.85 -1.7708,-10.42781 -2.0299,-14.61736 l -0.4712,-7.61737 3.3499,-1.21906 c 5.4544,-1.98495 20.2294,-6.00004 20.6246,-5.60476 0.2008,0.20078 -0.3414,4.45879 -1.2048,9.46225 -1.8344,10.62968 -1.9636,16.13838 -0.5021,21.40158 1.2808,4.61248 2.9279,5.39151 7.1902,3.40076 1.7831,-0.83279 10.2803,-2.23233 18.8827,-3.1101 18.9417,-1.93276 20.1457,-1.954 19.6079,-0.34594 -0.2299,0.6875 0.3368,4.18661 1.2593,7.77581 l 1.6773,6.52581 -11.5926,1.8469 c -28.9133,4.60636 -35.4336,7.10107 -33.4643,12.80349 0.4365,1.2639 0.8256,6.34799 0.8646,11.29799 0.039,4.95 0.6564,13.19606 1.3719,18.32457 0.7155,5.12851 1.3762,19.28218 1.4681,31.45259 l 0.167,22.12801 -5.5,1.65441 c -3.0249,0.90993 -7.3952,1.94633 -9.7117,2.30312 -3.6959,0.56926 -4.3607,0.37244 -5.4281,-1.607 z m -9.2282,-18.84598 c -0.3476,-1.73785 -0.5771,-4.56597 -0.51,-6.28472 0.073,-1.8603 0.4718,-0.72505 0.9865,2.80513 0.92,6.30996 0.5825,8.77452 -0.4765,3.47959 z m -1.4766,-56.92116 c -0.8995,-3.1661 -1.0145,-5.99905 -0.3857,-9.5 l 0.8959,-4.98856 0.7703,7.59574 c 0.9932,9.79452 0.4201,12.87921 -1.2805,6.89282 z m 32.8447,-42.47674 c 0,-1.15621 1.2349,-1.51349 5.25,-1.51893 2.8875,-0.004 8.4,-0.21509 12.25,-0.4693 l 7,-0.46219 -8.5,1.39527 c -16.6233,2.72872 -16,2.68762 -16,1.05515 z m -23.5,-27.51182 c 1.1,-0.47269 2.9,-0.8462 4,-0.83003 1.6077,0.0236 1.5097,0.1864 -0.5,0.83003 -3.4192,1.09501 -6.0483,1.09501 -3.5,0 z m 221.9138,-8.99815 c -5.2793,-0.73277 -10.4048,-2.01058 -23.9139,-5.96183 -4.6156,-1.35002 -18.3993,-6.58429 -24.2265,-9.19983 l -5.2265,-2.34595 2.9967,-5.24712 c 1.6483,-2.88591 3.7088,-5.24712 4.5791,-5.24712 3.1816,0 19.6696,6.09954 27.4176,10.1428 7.9559,4.15175 7.9655,4.15385 16.4163,3.55747 13.0903,-0.92379 15.238,-3.07842 18.0552,-18.11285 1.1376,-6.07076 1.4379,-10.96473 0.9772,-15.92567 -0.8906,-9.59042 0.9869,-22.92597 4.068,-28.89334 2.9065,-5.62946 3.1203,-9.84544 0.6142,-12.11342 -2.9718,-2.68943 -6.6836,-2.05841 -9.8485,1.67427 -1.5525,1.83109 -5.7478,5.39217 -9.3228,7.91352 -3.575,2.52134 -7.4877,5.72314 -8.695,7.11511 -2.7857,3.21193 -6.6746,3.91991 -19.1611,3.48833 -9.134,-0.31571 -10.2648,-0.57418 -12.8304,-2.93259 -1.5474,-1.4225 -4.9957,-3.83019 -7.6629,-5.35043 -3.9667,-2.26094 -5.2996,-3.78188 -7.3224,-8.35573 -1.36,-3.07542 -2.5016,-6.96772 -2.5367,-8.64957 -0.035,-1.68184 -0.8296,-4.6329 -1.7655,-6.5579 -2.8429,-5.84761 -5.526,-19.05477 -5.526,-27.20093 0,-7.57453 0.1149,-7.92382 7,-21.28048 8.8409,-17.15065 11.9256,-20.30418 23.5,-24.02428 10.9148,-3.50806 22.6591,-4.27634 33.5,-2.19147 9.7918,1.88311 14.3625,3.75946 18.933,7.77246 1.9291,1.69376 3.9584,2.80083 4.5097,2.46015 0.5512,-0.34068 1.5116,-2.31952 2.1341,-4.39742 l 1.132,-3.77802 9.6456,-1.06144 c 13.3811,-1.47251 13.6232,-1.27803 10.516,8.44607 -1.363,4.26545 -3.3308,13.15536 -4.373,19.75536 -1.0421,6.6 -3.4497,19.2 -5.35,28 -2.822,13.06739 -3.6596,19.7574 -4.5699,36.5 -0.613,11.275 -1.1099,24.1 -1.1041,28.5 0.014,10.9527 -2.5171,29.20543 -4.9537,35.7179 -2.6296,7.02823 -7.2417,14.22628 -10.4714,16.34243 -3.1505,2.06433 -9.0635,2.56178 -17.1344,1.44152 z m 1.1406,-89.02822 c 4.881,-2.36286 12.856,-10.57583 13.0832,-13.47363 0.086,-1.1 0.4836,-11.225 0.8829,-22.5 0.8112,-22.9006 0.3538,-25.4254 -5.7491,-31.73116 -3.9072,-4.03699 -7.9405,-5.39941 -15.4215,-5.20926 -3.2175,0.0818 -8.16,-0.17538 -10.9834,-0.57147 -6.7499,-0.94694 -11.1024,0.56981 -17.0942,5.95697 -8.6102,7.74123 -12.0852,18.95821 -10.9437,35.32448 1.0382,14.88591 7.4953,24.69905 20.7141,31.48044 6.9875,3.58466 18.9034,3.92265 25.5117,0.72363 z m -1.5545,-60.94134 c -3.575,-2.17892 -7.175,-4.00919 -8,-4.06727 -1.0386,-0.0731 -0.9087,-0.33727 0.4226,-0.8589 2.1762,-0.85273 9.2119,1.26862 11.7278,3.53607 1.2884,1.16117 3.2578,5.36931 2.506,5.35479 -0.086,-0.002 -3.0814,-1.78577 -6.6564,-3.96469 z m -13.7291,-5.63646 c 0.3323,-0.33229 1.1948,-0.36781 1.9166,-0.0789 0.7978,0.31922 0.5608,0.55618 -0.6041,0.60416 -1.0542,0.0434 -1.6448,-0.19293 -1.3125,-0.52522 z m -37.126,147.98904 c -7.3719,-3.67355 -5.8065,-4.02743 1.9481,-0.44038 3.5239,1.63005 5.7079,2.98438 4.8534,3.00962 -0.8545,0.0252 -3.9152,-1.13092 -6.8015,-2.56924 z m 92.4366,-5.78183 c 1.3723,-2.9974 3.09,-8.87151 3.8173,-13.05359 0.7272,-4.18207 1.5898,-7.87135 1.9169,-8.1984 1.041,-1.041 6.6843,5.40729 6.6843,7.63777 0,1.17846 -0.5191,3.12558 -1.1536,4.32692 -1.4123,2.67395 -9.3934,11.67868 -11.9189,13.44766 -1.5877,1.11205 -1.4977,0.53966 0.654,-4.16036 z m -101.5815,-6.31425 c 0,-1.1245 -0.672,-3.65297 -1.4934,-5.61883 -2.7826,-6.65979 1.3633,-11.66996 9.6569,-11.66996 2.5952,0 4.9237,0.3375 5.1744,0.75 0.2507,0.4125 -2.318,4.43274 -5.7082,8.93388 -7.5899,10.07687 -7.6297,10.11653 -7.6297,7.60491 z m 52.731,-1.94473 c 0.677,-0.27392 2.027,-0.29059 3,-0.0371 0.973,0.25354 0.419,0.47766 -1.231,0.49804 -1.65,0.0204 -2.446,-0.18706 -1.769,-0.46099 z m 12.1808,-2.95624 c -2.0149,-2.43608 -1.5935,-12.20111 0.9612,-22.2752 1.1699,-4.61306 2.127,-11.01144 2.127,-14.21862 0,-4.25327 0.3383,-5.70187 1.25,-5.35319 2.4062,0.9202 0.5309,37.95972 -2.1408,42.28258 -0.6078,0.9834 -1.1054,0.88477 -2.1974,-0.43557 z m -475.4117,-21.30195 c 1.1,-0.43305 3.8,-1.05898 6,-1.39095 3.6631,-0.55276 3.8365,-0.48112 2.0588,0.85075 -1.0676,0.79988 -3.7676,1.42581 -6,1.39094 -3.0422,-0.0475 -3.5579,-0.2606 -2.0588,-0.85074 z m -48.2134,-2.63033 c -10.82123,-5.39243 -19.30695,-16.13729 -19.27134,-24.40188 0.0309,-7.17641 1.5008,-6.64424 6.3821,2.31063 2.56437,4.7044 5.79478,9.8991 7.1787,11.54379 2.80584,3.33458 10.94914,7.54078 16.67394,8.61248 4.1571,0.77823 4.738,1.88027 1.8157,3.44426 -3.1582,1.69022 -7.3527,1.19483 -12.7791,-1.50928 z m 31.2134,-5.487 c -13.4624,-0.96238 -26.1513,-3.87199 -30.5522,-7.00567 -1.6131,-1.14866 -4.78759,-5.32271 -7.05432,-9.27567 -2.26673,-3.95296 -5.83963,-10.1122 -7.93977,-13.6872 -4.29735,-7.31524 -6.95376,-16.38094 -6.95376,-23.73158 0,-10.56428 6.4623,-39.45069 10.63055,-47.51842 1.71859,-3.32636 2.38992,-3.54428 1.59879,-0.51899 -0.58334,2.23069 -0.58302,2.23075 2.25728,0.36972 6.82633,-4.47282 9.74963,-5.52137 22.27113,-7.98852 9.7527,-1.9216 16.384,-2.61221 25.0831,-2.61221 11.7869,0 11.8495,0.0126 19.2423,3.87138 4.0793,2.12926 9.1358,4.42456 11.2369,5.10066 2.101,0.6761 4.0616,1.85898 4.357,2.62862 0.2953,0.76964 1.3364,1.39934 2.3136,1.39934 0.9771,0 3.4378,1.83872 5.4681,4.08605 4.4547,4.93075 12.8218,21.66531 12.1455,24.29122 -0.266,1.0325 0.1204,2.8325 0.8586,4 2.1244,3.35983 3.8485,16.27967 3.1206,23.38449 -0.9055,8.83849 -3.2819,14.51141 -9.6436,23.02131 -6.606,8.83681 -14.0583,13.90373 -25.9954,17.67465 -10.02,3.16532 -16.3916,3.6584 -32.4444,2.51082 z m 27.9729,-22.42458 c 8.5017,-3.87434 19.755,-11.36615 18.9731,-12.63123 -0.2812,-0.45505 0.9659,-3.43407 2.7713,-6.62005 3.0028,-5.29879 3.2816,-6.5174 3.2707,-14.29268 -0.014,-10.22768 -1.8551,-14.38807 -10.267,-23.20714 -9.5585,-10.02104 -20.0234,-13.24869 -38.1008,-11.75126 -16.0932,1.33307 -27.1759,8.65167 -33.6923,22.24896 -2.8298,5.90497 -3.4263,8.29205 -3.4182,13.68123 0.022,14.39824 11.9425,30.10025 26.2439,34.56789 2.39,0.74662 9.1402,1.35577 15.4409,1.39342 10.7054,0.064 11.5261,-0.0841 18.7784,-3.38914 z m -14.9729,-7.65242 c -3.85,-0.46694 -9.025,-1.21653 -11.5,-1.66575 l -4.5,-0.81676 4,-2.65143 c 5.484,-3.63513 12.7315,-4.40736 18,-1.91793 l 4,1.89004 -4.7398,0.74716 c -6.4149,1.0112 -5.058,2.95294 1.4593,2.08839 4.9135,-0.65179 8.4218,0.588 7.2104,2.54805 -0.6331,1.0245 -4.1108,0.96913 -13.9299,-0.22177 z m -26.1934,-9.09312 c -3.7271,-4.01629 -7.3066,-11.8828 -7.3066,-16.05738 0,-6.17263 5.2513,-14.98068 12.6978,-21.29801 7.0987,-6.02225 9.8437,-6.89394 21.8022,-6.92335 10.8847,-0.0268 15.785,2.00159 22.9282,9.49047 7.4525,7.81319 9.9829,13.51917 9.3059,20.98502 -0.4501,4.96339 -3.865,14.00483 -5.2897,14.00483 -0.2831,0 -0.081,-0.81007 0.4486,-1.80015 1.1209,-2.0944 -2.224,-11.26259 -5.7397,-15.73198 -1.1843,-1.50567 -2.1533,-4.04273 -2.1533,-5.63791 0,-4.4081 -2.6923,-7.82996 -6.1605,-7.82996 -3.6466,0 -7.8395,-3.97376 -7.8395,-7.42979 0,-2.29261 -0.2322,-2.43246 -2.5651,-1.54546 -1.4108,0.53639 -4.0262,0.97525 -5.812,0.97525 -2.4189,0 -3.7905,0.7353 -5.3788,2.88364 -1.1726,1.586 -4.1822,3.87615 -6.6881,5.08921 l -4.5561,2.20556 0,6.28507 c 0,3.45679 -0.7309,8.25414 -1.6243,10.66079 -0.8933,2.40665 -2.1444,6.53502 -2.7802,9.17415 l -1.1558,4.79842 -2.133,-2.29842 z m 483.552,35.7269 c -0.2611,-0.26107 -5.3353,-1.15699 -11.2761,-1.99093 -5.9408,-0.83394 -12.5777,-1.99454 -14.7487,-2.57913 -4.6985,-1.26518 -11.274,-6.91061 -12.6515,-10.86202 l -0.9848,-2.82507 5.0017,3.36592 c 2.7509,1.85125 5.5618,3.36591 6.2462,3.36591 0.6845,0 2.1018,0.96211 3.1496,2.13802 3.4046,3.8211 7.64,4.86198 19.7837,4.86198 8.4233,0 13.0499,-0.50011 17.5322,-1.89514 3.349,-1.04233 6.089,-1.68774 6.089,-1.43426 0,1.93969 -2.8402,4.80768 -6.3306,6.39245 -3.8352,1.74132 -10.6838,2.58923 -11.8107,1.46227 z M 980.49409,99.71339 c -2.24931,-2.24931 -2.91452,-5.24143 -2.07446,-9.33102 l 0.75244,-3.66306 0.80137,4.31429 c 0.44075,2.37286 1.4604,5.63536 2.26589,7.25 1.57488,3.15692 0.69925,3.87428 -1.74524,1.42979 z M 1115.5009,77.21544 c -1.8378,-11.91484 -1.8306,-12.1665 0.3143,-11.0186 4.2714,2.28602 5.3144,8.22949 2.1334,12.15782 l -1.9085,2.35691 -0.5392,-3.49613 z M 980.9361,50.80264 c -0.0434,-1.05416 0.19292,-1.64479 0.52522,-1.3125 0.33229,0.33229 0.36781,1.19479 0.0789,1.91667 -0.31922,0.79773 -0.55618,0.56078 -0.60416,-0.60417 z m 5.62844,-20.20927 c -1.18971,-1.18972 -0.78853,-6.31648 0.72302,-9.2395 1.53371,-2.96585 7.18781,-7.1596 12.06959,-8.95221 4.14065,-1.52047 16.59625,-3.88804 24.98165,-4.74852 4.4452,-0.45616 7.944,-1.428 9.6309,-2.67513 3.2998,-2.43966 8.272,-2.50204 13.4302,-0.16852 l 3.9572,1.79019 -9.5,0.84654 c -5.2249,0.46559 -11.9749,1.46463 -15,2.22007 -3.025,0.75545 -9.0387,1.93393 -13.3639,2.61886 -6.0494,0.95798 -9.0491,2.04757 -13,4.7221 -7.03712,4.76368 -9.53789,7.15131 -11.52417,11.00278 -0.93341,1.8099 -2.01543,2.9724 -2.40449,2.58334 z M 1471.8571,10.71931 c 1.2918,-1.375 2.5737,-2.5 2.8487,-2.5 0.275,0 -0.5569,1.125 -1.8487,2.5 -1.2917,1.375 -2.5736,2.5 -2.8486,2.5 -0.275,0 0.5569,-1.125 1.8486,-2.5 z m 71.5585,-4.40549 c -1.0776,-1.74351 2.1793,-6.74326 5.2105,-7.99881 3.1529,-1.30599 6.914,-0.38754 9.0748,2.21603 1.4131,1.70274 0.8751,1.97292 -6.3438,3.18556 -2.2,0.36957 -4.7428,1.33818 -5.6507,2.15247 -1.0681,0.95801 -1.8766,1.11498 -2.2908,0.44475 z m 35.5202,-4.24806 c -2.4318,-1.05049 -4.6818,-1.55819 -5,-1.12822 -0.3183,0.42997 -3.1151,0.78177 -6.2151,0.78177 l -5.6365,0 2.8144,-3.5 c 6.9903,-8.69316 8.667,-10 12.8296,-10 6.6743,0 9.9593,6.31073 6.8338,13.12822 l -1.2049,2.62822 -4.4213,-1.90999 z"
       style="fill:#fafa00" />
    <path
       inkscape:connector-curvature="0"
       id="path3078"
       d="m 1112.3572,360.21931 c -1.65,-1.09275 -4.125,-2.05652 -5.5,-2.1417 -1.375,-0.0852 2.225,-0.49165 8,-0.90325 5.775,-0.41161 10.6734,-0.58392 10.8854,-0.38292 0.212,0.201 -0.3609,1.5045 -1.273,2.89666 -2.0897,3.18915 -7.7258,3.43634 -12.1124,0.53121 z m -17.75,-3.70573 c 1.2375,-0.23836 3.2625,-0.23836 4.5,0 1.2375,0.23835 0.225,0.43337 -2.25,0.43337 -2.475,0 -3.4875,-0.19502 -2.25,-0.43337 z m -17.1075,-2.84959 c -5.7096,-2.09349 -10.2132,-5.13086 -12.1767,-8.21229 l -1.7411,-2.73239 3.1269,2.92685 c 1.7198,1.60976 6.1693,4.4025 9.8877,6.20607 7.0728,3.43064 7.4653,4.21784 0.9032,1.81176 z m 17.3575,-3.42888 c -13.0541,-1.02487 -25.6204,-7.46949 -28.6355,-14.6857 -1.336,-3.19751 -2.8874,-14.42415 -4.0537,-29.33335 -0.4223,-5.39905 0.01,-8.11571 2.5225,-16 1.6671,-5.22321 3.732,-12.32763 4.5887,-15.78759 2.7396,-11.06539 5.3859,-15.85599 12.2157,-22.11422 8.9558,-8.20637 15.6953,-10.58323 27.4851,-9.69322 9.8601,0.74434 17.4764,2.72066 20.9896,5.44651 1.3132,1.01885 7.4548,4.87727 13.6481,8.57427 13.0866,7.81189 17.4188,12.38905 21.6462,22.87054 4.5236,11.21601 3.5244,26.45667 -2.4402,37.22104 -3.0081,5.42872 -5.5941,8.62145 -18.0593,22.29622 -9.0585,9.93764 -23.8254,13.25319 -49.9072,11.2055 z m 28.3104,-20.37925 c 6.7325,-3.29391 10.0524,-7.0865 15.2479,-17.4188 4.9451,-9.8344 5.846,-18.60483 2.5439,-24.76575 -1.1562,-2.15731 -2.1022,-4.31409 -2.1022,-4.79283 0,-1.48294 -4.5092,-6.32274 -10.2387,-10.98953 -3.964,-3.22872 -7.0623,-4.81734 -11.2018,-5.74374 -3.6812,-0.8238 -5.9608,-0.93097 -6.3909,-0.30046 -0.3678,0.53908 -2.3233,1.98526 -4.3456,3.21374 -4.3488,2.64179 -9.969,10.76509 -14.2454,20.58991 -2.877,6.61001 -3.0768,7.8531 -3.064,19.07091 0.012,10.41404 0.3035,12.54503 2.2061,16.12395 1.2057,2.26818 3.6746,5.10204 5.4863,6.29747 2.872,1.89508 4.3932,2.12902 11.8748,1.82616 6.8808,-0.27854 9.6999,-0.89489 14.2296,-3.11103 z m 6.1896,-52.26716 c -2.75,-1.93623 -5.7252,-3.82393 -6.6115,-4.1949 -1.0203,-0.42708 -1.3816,-1.3185 -0.9849,-2.43022 0.5228,-1.46504 1.7002,-0.76919 7.1114,4.20282 3.5667,3.2772 6.26,5.95499 5.985,5.95063 -0.275,-0.004 -2.75,-1.5921 -5.5,-3.52833 z m 355.9545,71.17606 c -1.9793,-1.97926 -2.4282,-3.38311 -2.3184,-7.25 0.075,-2.6375 0.3251,-3.82994 0.5559,-2.64988 0.2308,1.18006 1.2967,2.93925 2.3686,3.9093 1.7349,1.57006 2.6896,1.64175 8.6941,0.65288 3.7099,-0.61097 10.2594,-1.39855 14.5545,-1.75018 6.9049,-0.56528 7.9094,-0.90255 8.6734,-2.91206 0.4753,-1.25001 1.5541,-2.53751 2.3974,-2.86112 1.3025,-0.49981 1.36,-0.20797 0.3819,1.93861 -1.5312,3.36063 -5.7638,5.41849 -12.5951,6.12353 -4.6731,0.48231 -6.1327,1.13517 -8.7555,3.91614 -4.0808,4.32693 -10.13,4.70955 -13.9568,0.88278 z m 6.7068,-15.16768 c 0.9549,-3.45844 0.4523,-38.5759 -0.576,-40.23962 -1.1503,-1.86124 -4.7203,-27.25041 -4.5893,-32.63815 0.1987,-8.1687 0.052,-11.69042 -0.57,-13.6953 -0.4127,-1.32969 0.2934,-1.8231 3.2739,-2.28787 4.1159,-0.64183 14.7223,-2.45112 17.55,-2.99376 1.5518,-0.29779 1.75,0.59368 1.75,7.87055 0,5.04941 0.4617,8.66802 1.2,9.40638 2.1622,2.16217 4.5979,1.26424 6.917,-2.55 3.8037,-6.25585 8.2321,-11.37861 11.1337,-12.87935 4.6653,-2.41294 12.2132,-3.33333 29.059,-3.54343 22.8468,-0.28494 26.1547,0.32564 31.4403,5.80341 2.3375,2.42247 4.25,4.80329 4.25,5.29072 0,0.48743 -4.591,5.01709 -10.2023,10.0659 -9.2406,8.31428 -10.3226,9.01532 -11.4772,7.43637 -4.3688,-5.97469 -6.1864,-7.17187 -12.7769,-8.41541 -6.8413,-1.29085 -16.955,-0.42946 -25.5436,2.17555 -4.6205,1.40147 -16.7835,9.24652 -20.25,13.06108 l -2.75,3.02618 0,15.68083 c 0,8.62446 0.4166,18.12598 0.9258,21.11449 0.5092,2.98851 1.2151,9.14616 1.5687,13.68366 l 0.643,8.25 -10.9881,0 -10.9881,0 1.0001,-3.62223 z m 92.3386,-59.80965 c 1.65,-1.42728 3.9,-3.10448 5,-3.7271 1.9994,-1.13169 1.9994,-1.13135 0,1.11585 -1.0987,1.23634 -3.3487,2.91354 -5,3.72711 l -3.0023,1.47921 3,-2.59507 z m -105.3056,-19.58984 c -2.8836,-3.09522 -2.9403,-8.90851 -0.1182,-12.1175 1.1419,-1.29843 1.7933,-1.80308 1.4476,-1.12145 -0.3457,0.68163 -0.1043,3.90442 0.5366,7.16176 1.49,7.57366 1.0037,9.15743 -1.866,6.07719 z m 120.9737,-1.07934 c -0.092,-0.88058 -1.2871,-3.70574 -2.6549,-6.27813 -2.1251,-3.99688 -2.2222,-4.53549 -0.6677,-3.70354 3.2352,1.73144 4.2937,3.84541 3.8872,7.76294 -0.2181,2.10089 -0.4721,3.09931 -0.5646,2.21873 z m -527.168,-0.0248 c 0,-0.275 1.35,-1.79338 3,-3.37418 1.65,-1.5808 3,-2.64918 3,-2.37418 0,0.275 -1.35,1.79338 -3,3.37418 -1.65,1.5808 -3,2.64918 -3,2.37418 z M 1488.128,237.6151 c 0.3323,-0.33229 1.1948,-0.36781 1.9166,-0.0789 0.7978,0.31922 0.5608,0.55618 -0.6041,0.60416 -1.0542,0.0434 -1.6448,-0.19293 -1.3125,-0.52522 z m -206,-110 c 0.3323,-0.33229 1.1948,-0.36781 1.9167,-0.0789 0.7977,0.31922 0.5607,0.55618 -0.6042,0.60416 -1.0542,0.0434 -1.6448,-0.19293 -1.3125,-0.52522 z m -15.8368,-11.53996 c -1.2714,-10.70229 -0.5641,-45.86954 1.1233,-55.85587 1.6365,-9.68477 1.8844,-26.04133 0.5164,-34.06634 -0.5095,-2.98851 -1.212,-7.57116 -1.5613,-10.18366 l -0.635,-4.75 14.4066,0 14.4066,0 2.5596,8.75 c 4.146,14.17333 4.1977,14.89992 4.2243,59.32893 l 0.025,42.57892 -3.8032,-0.96407 c -3.5037,-0.88813 -15.2776,-0.0502 -26.7929,1.9068 l -3.5961,0.61115 -0.8738,-7.35586 z m -6.7374,-36.9337 c -0.4056,-5.81781 -1.1978,-12.11781 -1.7604,-14 -0.6018,-2.01336 -0.7413,-6.71554 -0.3389,-11.42217 0.3763,-4.4 0.7367,-14.975 0.801,-23.5 0.1123,-14.90011 0.2243,-15.70458 2.8944,-20.78605 4.6291,-8.80996 13.0709,-11.8551 19.3056,-6.96395 l 2.868,2.25 -8.8087,0.60326 c -12.4604,0.85336 -13.0214,1.52712 -11.6051,13.93796 2.0022,17.54437 2.1741,23.42504 0.9486,32.45878 -0.6715,4.95 -1.7488,15.525 -2.394,23.5 l -1.1731,14.5 -0.7374,-10.57783 z m 26.5367,-76.48543 c 1.7547,-0.95215 3.724,-1.22851 5.5,-0.77187 l 2.7667,0.71131 -2.5,0.71223 c -1.375,0.39173 -3.85,0.73907 -5.5,0.77187 l -3,0.0596 2.7333,-1.48318 z m -24.1825,-27.09922 c -2.9647,-3.76897 -3.5031,-6.86644 -2.1856,-12.57389 1.3122,-5.68483 3.9139,-9.75813 8.1673,-12.7868 2.6525,-1.88873 2.8843,-1.91822 2.2781,-0.28978 -0.3712,0.99712 -2.1679,4.00095 -3.9928,6.67516 -3.6908,5.40876 -4.0474,8.38946 -1.9643,16.41986 1.5045,5.79995 0.8344,6.54359 -2.3027,2.55545 z m 10.4492,-0.54534 c -4.9634,-2.84651 -7.2186,-9.49544 -4.8082,-14.17617 7.0154,-13.62343 16.5621,-16.39285 27.2575,-7.90722 0.2471,0.19606 0.339,3.56365 0.2043,7.48352 -0.2919,8.49461 -2.1967,11.8075 -8.161,14.19395 -4.6687,1.86806 -11.6044,2.06232 -14.4926,0.40592 z"
       style="fill:#00fafa" />
    <path
       inkscape:connector-curvature="0"
       id="path3076"
       d="m 998.26473,452.19999 c -8.62401,-2.01791 -21.17118,-8.11315 -28.06485,-13.63352 l -4.15728,-3.3291 4.95068,-7.43383 4.95069,-7.43384 5.26133,2.40872 c 11.02957,5.0495 26.2529,6.40536 37.8253,3.3689 4.7837,-1.2552 12.3907,-9.59947 13.9218,-15.2712 1.4597,-5.40715 0.6803,-35.02155 -1.0306,-39.15681 -0.6827,-1.65 -1.2119,-5.58553 -1.176,-8.74563 0.082,-7.20739 -1.1922,-10.75437 -3.8625,-10.75437 -1.1129,0 -5.9615,1.76778 -10.7748,3.9284 -16.0074,7.18555 -38.97882,7.86442 -51.91713,1.53429 -6.24932,-3.0575 -14.19541,-11.4357 -17.76436,-18.73038 -5.2512,-10.73305 -7.05837,-28.81183 -4.12164,-41.23231 4.57428,-19.34624 13.74296,-32.51987 27.29494,-39.21763 6.82251,-3.37186 8.45217,-3.75969 17.28997,-4.11466 6.05241,-0.2431 11.16121,0.0713 13.45422,0.82812 5.3739,1.77355 7.0671,-0.28694 2.159,-2.62742 -4.73589,-2.2584 -4.61936,-3.36841 0.3537,-3.36841 2.4495,0 4.0608,-0.48452 4.1571,-1.25 0.086,-0.6875 0.4239,0.99609 0.75,3.74132 0.4535,3.81777 1.0349,5.07527 2.473,5.34839 2.3457,0.44548 3.5847,-1.42218 3.6045,-5.43342 0.015,-3.0874 0.033,-3.09726 8.7654,-4.83894 4.8125,-0.95988 9.2894,-1.90725 9.9488,-2.10527 2.034,-0.61087 2.5566,3.36713 2.2279,16.95856 -0.6223,25.72821 -0.2977,33.38838 2.3695,55.90919 1.4871,12.55641 2.7195,24.93141 2.7386,27.5 0.019,2.56859 0.7165,8.27017 1.5496,12.67017 2.3049,12.17397 4.3705,31.05282 4.3943,40.16134 0.024,9.01297 -3.2632,24.70096 -7.3374,35.02263 -3.6164,9.16194 -7.9905,14.09512 -15.5692,17.55919 -8.0938,3.69952 -14.3853,4.14274 -24.66457,1.73752 z m 13.57087,-110.51791 c 8.728,-2.87606 10.9491,-4.00824 11.8826,-6.05715 0.7021,-1.54099 0.8088,-3.17755 0.2747,-4.21277 -0.4804,-0.93107 -1.113,-5.51785 -1.4057,-10.19285 -0.5004,-7.99158 -2.6262,-20.73874 -6.337,-38 -2.5525,-11.87337 -8.627,-17 -20.143,-17 -16.08624,0 -25.95147,7.39518 -32.68322,24.5 -4.01779,10.20889 -4.49746,19.48572 -1.45337,28.10847 4.92558,13.95231 20.87354,26.21625 34.25858,26.34476 2.99872,0.0288 8.99941,-1.31331 15.60641,-3.49046 z m 0.021,-16.34746 c 0,-2.65206 0.3168,-7.70044 0.7041,-11.21862 0.5908,-5.36809 0.813,-5.91428 1.3817,-3.39669 0.3727,1.65 0.7308,6.43936 0.7959,10.64301 0.092,5.94908 -0.2141,7.77058 -1.3817,8.21862 -1.2055,0.4626 -1.5,-0.37101 -1.5,-4.24632 z m -16.55884,-49.58351 c -1.90329,-1.43957 -1.8997,-1.46881 0.18387,-1.5 3.73861,-0.0559 8.36057,1.18251 7.79977,2.08995 -0.8595,1.39068 -5.85286,1.02169 -7.98364,-0.58995 z m -33.86403,154.4682 c 1.18073,-4.36486 3.14052,-7.38798 7.45507,-11.5 l 4.19701,-4 -3.86459,6.27925 c -2.12552,3.45359 -4.8994,7.50359 -6.16417,9 l -2.29959,2.72075 0.67627,-2.5 z m 58.00677,-15.09262 c 2.4447,-2.70139 6.0025,-4.70958 4.8847,-2.75715 -1.6063,2.8056 -3.8312,4.84977 -5.2785,4.84977 -1.2079,0 -1.1312,-0.40754 0.3938,-2.09262 z m -16.313,-46.51155 c 0.3322,-0.33229 1.1948,-0.36781 1.9166,-0.0789 0.7978,0.31922 0.5608,0.55618 -0.6041,0.60416 -1.0542,0.0434 -1.6448,-0.19293 -1.3125,-0.52522 z m 4.7291,-0.67598 c 0.275,-0.29502 2.975,-1.40867 6,-2.47476 3.025,-1.0661 6.2875,-2.28052 7.25,-2.69871 2.9148,-1.26642 2.0074,1.26919 -1.0131,2.83115 -2.6935,1.39286 -13.2322,3.41013 -12.2369,2.34232 z m 383.3366,-16.65075 c -5.0621,-0.82745 -6.153,-1.69614 -13.167,-10.4848 -5.6136,-7.03398 -8.0785,-12.08973 -8.0858,-16.5843 0,-2.22189 0.2038,-2.08386 1.8648,1.24076 2.9849,5.97497 7.9019,11.58729 12.5256,14.29694 6.0618,3.55246 19.5518,7.31267 29.5258,8.23005 l 8.5,0.7818 -4.9281,1.72523 c -5.0971,1.78437 -17.8216,2.16963 -26.2353,0.79432 z m -340.0844,-4.5691 c -0.011,-2.2 0.1846,-3.21775 0.4349,-2.26166 0.2503,0.95609 0.2594,2.75609 0.02,4 -0.2392,1.24391 -0.444,0.46166 -0.455,-1.73834 z m -111.99687,-0.93865 c -4.42862,-3.72644 -5.74266,-7.55454 -4.19887,-12.23227 l 1.25033,-3.78855 1.6467,5.97974 c 0.90568,3.28885 2.47262,7.23127 3.48209,8.76094 2.4804,3.75861 1.47018,4.35177 -2.18025,1.28014 z m 477.24467,-6.17796 c -6.1896,-0.9219 -13.1253,-2.51575 -19.8951,-4.57201 -9.1267,-2.77215 -14.1736,-7.37682 -18.6827,-17.04556 -3.2801,-7.03346 -3.3888,-7.66557 -3.3996,-19.76582 -0.014,-16.17596 1.948,-21.67604 10.8899,-30.52246 13.3515,-13.20877 32.8218,-18.95437 52.1337,-15.38437 7.7457,1.43187 10.7169,3.06231 17.6748,9.69899 l 5.779,5.51228 0,7.78268 c 0,4.28047 -0.4767,9.04948 -1.0595,10.59778 -1.4059,3.73542 -7.2088,9.66326 -13.7268,14.02237 l -5.2863,3.5354 -17.2137,-0.69615 c -9.4675,-0.38288 -19.2387,-0.77498 -21.7137,-0.87133 -3.9978,-0.15564 -4.5364,0.0818 -4.8264,2.12758 -0.205,1.44617 1.2829,4.71086 4,8.77641 3.4884,5.21966 5.5755,7.16394 10.7747,10.03726 6.0563,3.34704 7.2718,3.62659 20,4.59974 11.3581,0.86839 13.916,1.36766 15.8017,3.08428 3.3275,3.02896 2.7795,4.57781 -2.4359,6.88482 -3.572,1.58005 -7.1973,2.14082 -15.25,2.35888 -5.8102,0.15733 -11.9141,0.085 -13.5641,-0.16077 z m 30.3239,-53.09513 c 2.2724,-1.69139 2.7218,-2.85647 2.9785,-7.72262 0.2877,-5.45265 0.1271,-5.89602 -3.3101,-9.13771 -7.3389,-6.92148 -21.0818,-8.09994 -32.2725,-2.76738 -4.2111,2.00666 -5.8796,3.56124 -8.2406,7.67779 -3.3338,5.81269 -3.8036,10.69431 -1.2729,13.22501 1.5248,1.52486 3.7116,1.65363 20.5738,1.21152 16.8206,-0.44103 19.1581,-0.71082 21.5438,-2.48661 z m -29.5739,-3.31942 c -1.2375,-0.49742 -2.25,-1.20666 -2.25,-1.5761 0,-1.13829 23.0591,0.26629 24.2712,1.47841 1.4028,1.40278 -18.554,1.49131 -22.0212,0.0977 z m 24.8046,-7.41253 c -1.8798,-1.93949 -3.145,-3.79918 -2.8116,-4.13264 1.2413,-1.2413 4.9048,0.83463 5.8472,3.31338 1.6187,4.2575 0.571,4.54027 -3.0356,0.81926 z m -12.0546,41.56501 c -5.1636,-1.6628 -12.2779,-4.99293 -10.8553,-5.08128 1.3772,-0.0855 13.4872,4.07078 15.8553,5.44178 3.3098,1.91609 1.7119,1.80088 -5,-0.3605 z m -381.838,-5.62132 c -0.1092,-0.55 -0.8315,-5.5 -1.6051,-11 -1.3388,-9.51897 -2.9586,-29.75899 -1.9607,-24.5 2.8099,14.80787 4.4704,27.4045 4.1525,31.5 -0.2135,2.75 -0.4775,4.55 -0.5867,4 z m 381.838,-1.12791 c -3.025,-0.82296 -7.6377,-1.35585 -10.2506,-1.18419 -2.6128,0.17165 -4.7503,0.0434 -4.75,-0.28509 4e-4,-0.32845 -1.0119,-1.11906 -2.2494,-1.75692 -1.9561,-1.00825 -1.7275,-1.08618 1.75,-0.59657 11.3848,1.60289 22.5217,1.57814 30.6211,-0.0681 10.5263,-2.13944 12.4804,-3.16262 19.8933,-10.41621 7.3901,-7.23121 8.9905,-10.85031 8.9692,-20.28294 -0.023,-10.34155 -2.2072,-13.8186 -12.8774,-20.50289 -12.9027,-8.0828 -17.4881,-9.51478 -32.1062,-10.02638 -10.4747,-0.36659 -13.6889,-0.10483 -19.8383,1.6156 -8.5996,2.40597 -21.2418,8.94155 -26.0288,13.45608 l -3.3672,3.17547 1.5348,-3 c 1.9055,-3.72491 8.2071,-9.79364 12.1995,-11.74876 1.65,-0.80802 6.375,-2.48664 10.5,-3.73028 6.5705,-1.98089 9.9789,-2.28652 27.5,-2.46589 22.1961,-0.22723 26.4734,0.46979 33.3206,5.42989 4.7142,3.41493 8.2539,8.55855 11.1702,16.23134 2.5779,6.78262 2.5066,9.75474 -0.4339,18.08713 -4.0476,11.46938 -11.8913,19.99589 -23.6059,25.66092 -9.2475,4.472 -12.8933,4.8719 -21.951,2.40774 z m -410.8187,-70.28802 c 1.4747,-0.48087 3.7123,-1.59651 4.9725,-2.47919 2.8123,-1.96983 6.8323,-2.0668 9.3503,-0.22556 1.7111,1.25119 1.3806,1.44084 -3.5588,2.04169 -12.6024,1.53299 -13.625,1.59598 -10.764,0.66306 z m 192.3188,-110.04325 c -6.4035,-0.92059 -8.0266,-1.66935 -9.936,-4.5834 l -1.5559,-2.37464 -2.5178,2.51781 c -2.3828,2.38281 -2.9058,2.48084 -9.7541,1.82842 -7.3194,-0.69731 -10.166,-1.42901 -5.5595,-1.42901 2.8149,0 11.871,-2.9391 16.6147,-5.39217 l 3.1172,-1.61193 0.6503,3.46642 c 1.0256,5.46695 1.9778,5.77761 16.5178,5.38877 10.9882,-0.29386 12.4925,-0.16722 9.2282,0.77681 -6.0565,1.75155 -11.3524,2.19681 -16.8049,1.41292 z m -58,-3.92155 c -3.9902,-1.83231 -8.7372,-6.11927 -6.7759,-6.11927 0.5688,0 3.451,1.09243 6.405,2.42763 2.954,1.3352 7.6192,2.75292 10.3672,3.15049 3.8517,0.55725 4.539,0.90138 3,1.50208 -3.4461,1.34508 -8.8436,0.94599 -12.9964,-0.96093 z m 56.1042,-11.7706 c 0.5377,-5.78564 0.3611,-7.2405 -1.0504,-8.65193 -2.4739,-2.47391 -3.3284,-2.17426 -7.9123,2.77457 -2.9757,3.21262 -5.9713,5.15415 -10.6416,6.89704 -12.881,4.80707 -22.5572,4.41427 -37.0302,-1.50322 -10.0582,-4.11243 -16.2809,-8.74326 -20.3581,-15.15009 -5.4976,-8.63889 -5.8983,-10.95203 -5.1174,-29.54229 0.5838,-13.90004 1.117,-17.92001 3.2064,-24.17275 3.3912,-10.14859 6.4437,-15.1706 13.361,-21.9813 8.314,-8.18598 12.9077,-10.07915 27.4616,-11.31778 11.7877,-1.00321 12.1956,-0.96836 20.8233,1.77888 8.1051,2.58081 8.9278,2.67442 10.417,1.18524 1.4892,-1.48919 1.4803,-2.05032 -0.113,-7.10463 -0.9514,-3.01826 -2.137,-8.99159 -2.6346,-13.27407 -0.4977,-4.28249 -2.0492,-12.59657 -3.448,-18.47573 -3.4753,-14.60728 -6.2592,-32.58485 -7.6358,-49.31061 -0.6338,-7.7 -1.5528,-14.75792 -2.0422,-15.68426 -0.4895,-0.92634 -0.89,-1.84105 -0.89,-2.03269 0,-0.19163 3.131,-0.17151 6.9578,0.0447 6.2509,0.35321 24.1488,-1.14088 29.7054,-2.47977 2.0715,-0.49914 2.1217,-0.33745 1.1836,3.81539 -1.4474,6.40746 -1.1798,13.74737 0.6869,18.83661 1.5516,4.23048 2.1738,8.93091 4.434,33.5 1.1482,12.4816 1.1997,36.72737 0.098,46 -0.8365,7.0386 0.1285,33.069 2.0205,54.5 0.5584,6.325 1.4572,19.01468 1.9973,28.1993 0.8302,14.11661 1.3548,17.54205 3.3919,22.14841 l 2.4099,5.44912 -2.1925,0.63123 c -1.2058,0.34718 -7.9394,0.91126 -14.9636,1.25352 l -12.771,0.62228 0.6464,-6.95519 z m -11.0532,-18.07082 4.9489,-1.83456 0.8404,-7.18293 c 0.6487,-5.54411 0.3635,-10.47263 -1.25,-21.60156 -1.1497,-7.93024 -2.0904,-19.44562 -2.0904,-25.58973 l 0,-11.17112 -3.4678,-1.44898 c -10.1172,-4.22722 -22.4325,0.0832 -31.5709,11.0499 -9.9373,11.92551 -12.9971,21.47998 -11.1942,34.9549 1.6758,12.5247 2.8761,14.65086 10.9942,19.47372 3.8207,2.26982 8.9249,4.54273 11.3427,5.05092 6.0038,1.26189 15.4831,0.51027 21.4471,-1.70056 z m -6.5511,-12.17251 c 0,-3.24207 0.8618,-8.75457 1.915,-12.25 1.0532,-3.49544 2.2229,-8.29816 2.5993,-10.67272 0.3764,-2.37457 0.8553,-4.14645 1.0642,-3.93753 0.8983,0.89834 2.3501,23.67908 1.7847,28.00491 -0.6018,4.60455 -0.724,4.75 -3.992,4.75 l -3.3712,0 0,-5.89466 z m -25.8331,-2.85534 c -1.0155,-1.96669 -2.6224,-10.02657 -1.8442,-9.25 1.1765,1.1741 4.407,11 3.6165,11 -0.4778,0 -1.2754,-0.7875 -1.7723,-1.75 z m 3.4633,-32.5 c 6.0999,-10.19138 18.4439,-16.96122 25.7881,-14.14301 2.7538,1.05674 1.7426,4.26062 -2.1683,6.8698 -2.0625,1.37604 -4.7271,3.21308 -5.9213,4.08232 -4.4676,3.25174 -19.3398,5.93306 -17.6985,3.19089 z m 10.4234,-5.30704 c 1.4107,-1.50161 3.1265,-2.36763 4.157,-2.09815 1.4512,0.3795 1.5787,0.12988 0.7369,-1.44297 -1.805,-3.37263 -4.9052,-1.85367 -7.8541,3.84816 -1.5584,3.01305 -0.01,2.85222 2.9602,-0.30704 z m 67.6605,74.99398 c -2.0423,-7.33372 -2.7619,-13.95649 -3.0897,-28.43694 -0.2055,-9.075 -0.8485,-22.575 -1.429,-30 -1.4596,-18.66899 -2.3471,-36.48513 -1.7898,-35.92781 0.2557,0.25568 2.3438,7.20654 4.6403,15.44634 4.1029,14.72081 4.1825,15.31204 4.5786,33.98147 0.2218,10.45 0.8984,22.6 1.5036,27 1.1552,8.3982 0.3727,14.06529 -2.4809,17.96784 -1.3687,1.87189 -1.4034,1.87134 -1.9331,-0.0309 z M 1120.1568,75.21931 c 0,-3.025 0.1875,-4.2625 0.4166,-2.75 0.2291,1.5125 0.2291,3.9875 0,5.5 -0.2291,1.5125 -0.4166,0.275 -0.4166,-2.75 z m -0.786,-6.97785 c -1.3674,-2.21249 -0.632,-9.88456 1.3103,-13.67056 l 1.898,-3.69957 -0.4837,7.92399 c -0.519,8.503 -1.4063,11.57917 -2.7246,9.44614 z m 4.5387,-26.30427 c -0.099,-7.16646 3.5965,-13.11296 12.4476,-20.02901 l 4,-3.12548 -4.1376,4.57402 c -4.8492,5.36072 -5.9353,7.16408 -9.5538,15.86259 -2.6713,6.42175 -2.7045,6.45447 -2.7562,2.71788 z m 69.4476,-31.71788 c -1.676,-0.72021 -1.4735,-0.87082 1.25,-0.92971 1.7876,-0.0387 3.25,0.37971 3.25,0.92971 0,1.18717 -1.7372,1.18717 -4.5,0 z m -24.0588,-4.5318 c 2.4328,-1.84008 6.3069,-1.82719 9.5588,0.0318 2.3459,1.34099 2.0684,1.42935 -4.5,1.43276 -6.3691,0.003 -6.825,-0.12867 -5.0588,-1.46456 z m 22.3698,-17.59479 c -0.9291,-3.50537 -1.9076,-9.07341 -2.1746,-12.37341 -0.4521,-5.58747 -0.3164,-5.31245 1.9746,4 2.773,11.27183 2.9518,18.75671 0.2,8.37341 z m -3.6531,-20.87341 c 0,-1.375 0.227,-1.9375 0.5044,-1.25 0.2774,0.6875 0.2774,1.8125 0,2.5 -0.2774,0.6875 -0.5044,0.125 -0.5044,-1.25 z m -2.0823,-7.52563 c -3.1574,-12.31972 -5.1627,-42.8362 -3.1525,-47.97437 0.4527,-1.15728 1.0239,5.16312 1.3554,15 0.3151,9.35 1.2949,21.23441 2.1773,26.40979 1.7909,10.50346 1.5767,14.20027 -0.3802,6.56458 z M 1236.5649,-74.33 c -1.5379,-5.28873 -1.5859,-6.83721 -0.4313,-13.92014 l 1.2991,-7.96945 1.4237,3.4371 c 1.4781,3.56854 1.5742,14.51279 0.1839,20.95249 l -0.745,3.45069 -1.7304,-5.95069 z m -41.794,-25.28956 c 1.4497,-2.70883 4.9321,-3.58701 10.8958,-2.74765 5.2656,0.74113 4.871,0.74278 11.6904,-0.0491 2.75,-0.31933 4.7079,-0.27732 4.3509,0.0934 -0.79,0.8201 -14.162,3.35772 -22.216,4.21594 -5.7583,0.6136 -5.8442,0.58607 -4.7211,-1.51254 z"
       style="fill:#0101fa" />
    <path
       inkscape:connector-curvature="0"
       id="path3074"
       d="m 1232.9881,354.17456 c -8.3653,-1.12969 -8.9503,-1.95525 -1.3856,-1.95525 5.3122,0 17.3621,-1.80356 23.657,-3.54085 1.6699,-0.46084 1.4316,0.0451 -1.1681,2.48097 -2.0687,1.93826 -4.3139,3.05988 -6.125,3.05988 -1.5726,0 -4.153,0.18346 -5.7343,0.40768 -1.5812,0.22423 -5.741,0.0206 -9.244,-0.45243 z m -15.3641,-12.3018 c -10.5135,-3.82315 -15.3198,-7.33692 -18.6759,-13.65345 -1.6072,-3.025 -3.2135,-7.3 -3.5695,-9.5 -0.3561,-2.2 -1.5659,-8.42122 -2.6885,-13.82493 -1.8096,-8.71074 -1.9086,-10.75202 -0.8729,-18 2.1069,-14.74418 5.2746,-25.63232 12.4604,-42.83054 l 1.4964,-3.58134 4.5035,4.3151 4.5035,4.3151 -1.5931,5.30331 c -1.3074,4.35194 -1.4808,8.26323 -0.967,21.8033 0.989,26.06551 2.7028,33.66805 9.4675,42 4.8453,5.96793 6.9394,7.61039 11.4159,8.95394 6.7909,2.03816 17.3194,-2.90413 21.7672,-10.21794 2.4268,-3.99059 1.8339,-11.53905 -1.5502,-19.736 -1.2489,-3.025 -3.0405,-8.2 -3.9815,-11.5 -0.9409,-3.3 -3.4595,-9.39111 -5.5967,-13.53581 -3.0441,-5.90322 -3.886,-8.65763 -3.886,-12.71395 0,-4.85954 0.2297,-5.33417 3.7322,-7.71419 2.0527,-1.39483 4.1902,-2.53191 4.75,-2.52684 0.5598,0.005 2.7936,3.89229 4.964,8.63827 2.1703,4.74599 5.6341,11.42785 7.6972,14.84859 4.1659,6.90717 11.5072,27.05165 12.8983,35.39272 2.2008,13.19639 -2.0362,24.17814 -11.1311,28.85037 -7.3499,3.77577 -17.8438,6.30545 -28.4106,6.84866 -8.88,0.4565 -10.754,0.23987 -16.7331,-1.93437 z m -33.5252,-46.65345 c -0.056,-6.65177 0.4256,-11.96599 1.3132,-14.5 0.8753,-2.49862 1.1626,-2.87396 0.7655,-1 -0.3496,1.65 -0.9406,8.175 -1.3132,14.5 l -0.6777,11.5 -0.088,-10.5 z m 63.3094,3.49437 c -0.9696,-2.53873 -1.5954,-4.78339 -1.3906,-4.98811 0.8496,-0.84962 4.6295,7.21558 3.9198,8.36384 -0.4948,0.80064 -1.3912,-0.39575 -2.5292,-3.37573 z m -15.9441,-35.07616 c -0.8456,-2.20373 -0.6347,-7.52652 0.3931,-9.91821 0.5982,-1.39213 0.8807,0.0516 0.9297,4.75 0.071,6.84752 -0.2287,8.0194 -1.3228,5.16821 z m 5.4774,-14.36609 c -1.0255,-0.63381 -0.8198,-1.00131 0.8589,-1.5341 2.6754,-0.84913 3.5843,-0.20071 1.7974,1.28228 -0.7508,0.62307 -1.8821,0.73032 -2.6563,0.25182 z m 8.4157,-35.62813 c -5.837,-7.29977 -9.7327,-10.42399 -12.9981,-10.42399 -1.9672,0 -5.392,3.62072 -10.0201,10.59327 l -3.5203,5.30361 -5.7308,-2.7411 c -7.8376,-3.74886 -14.2138,-7.50704 -14.223,-8.38328 0,-0.40012 3.7048,-3.32512 8.2423,-6.5 4.5375,-3.17487 11.5091,-8.86398 15.4924,-12.64246 l 7.2425,-6.86995 2.7575,1.80487 c 1.5167,0.99268 6.5937,5.65916 11.2822,10.36996 4.6886,4.71079 10.5769,10.12258 13.0851,12.02618 l 4.5603,3.4611 -4.4955,5.7889 c -2.4725,3.1839 -4.7608,5.77262 -5.085,5.75272 -0.3243,-0.0199 -3.2895,-3.41283 -6.5896,-7.53983 z m -47.75,3.00404 c -1.5125,-0.82055 -2.75,-1.70253 -2.75,-1.95997 0,-0.96593 1.5805,-0.36062 4,1.53194 2.9718,2.32463 2.5268,2.47701 -1.25,0.42803 z m 33.6549,-6.17803 c 2.2228,-2.62535 2.2552,-2.63548 3.1964,-1 0.3956,0.6875 0.3462,0.91152 -0.1099,0.49782 -0.456,-0.4137 -1.7657,0.0363 -2.9103,1 -2.0795,1.75076 -2.0796,1.75036 -0.1762,-0.49782 z m -35.4049,-6.75 c 0.6846,-0.825 1.4698,-1.5 1.7448,-1.5 0.275,0 -0.06,0.675 -0.7448,1.5 -0.6847,0.825 -1.4699,1.5 -1.7449,1.5 -0.275,0 0.06,-0.675 0.7449,-1.5 z M 917.12798,139.61514 c 0.3323,-0.33229 1.1948,-0.36781 1.91667,-0.0789 0.79773,0.31922 0.56078,0.55618 -0.60417,0.60416 -1.05416,0.0434 -1.64479,-0.19293 -1.3125,-0.52522 z m -48.98651,-3.37271 c -2.86863,-1.0329 -8.34,-3.51978 -12.15861,-5.5264 -13.75562,-7.22838 -19.74431,-14.70707 -18.89069,-23.59079 0.45116,-4.6953 0.42344,-4.74742 -2.85081,-5.36167 -3.89237,-0.73022 -8.32225,-4.8817 -12.14128,-11.37825 -2.62442,-4.46441 -2.73281,-5.18187 -2.50875,-16.60567 0.29539,-15.06084 1.68874,-19.81554 9.1055,-31.0719 6.29662,-9.55633 14.77446,-17.8365 26.39055,-25.77522 7.85102,-5.36558 26.51051,-14.71873 29.32843,-14.70101 1.06774,0.007 -1.56516,1.54308 -5.85089,3.41414 -8.97393,3.91784 -14.31105,8.00593 -21.9529,16.8153 -18.5479,21.38166 -21.06411,28.28063 -20.15397,55.25835 0.64233,19.03966 1.82734,24.77922 6.61006,32.01572 7.5449,11.41582 19.13893,20.32933 32.64327,25.09622 4.11741,1.45339 5.69465,2.3591 4.14577,2.38062 -1.375,0.0191 -3.4,0.23136 -4.5,0.47166 -1.1,0.2403 -4.34706,-0.4082 -7.21568,-1.4411 z m 28.21568,-2.01149 c -18.11585,-1.3829 -30.44946,-6.78433 -42.07366,-18.42591 -11.77333,-11.79092 -12.70645,-14.19387 -13.62463,-35.08572 -0.82698,-18.81693 -0.46489,-23.50113 2.41958,-31.30066 3.16564,-8.55982 19.24725,-29.07698 27.78463,-35.44806 5.07413,-3.78661 17.53357,-8.49803 24.55912,-9.28682 7.09135,-0.79617 25.59709,0.94427 33.29148,3.13102 5.66223,1.60921 12.85575,7.78216 16.36335,14.04182 l 1.71988,3.06929 -9.06536,5.65526 -9.06535,5.65525 -2.83215,-2.38309 c -7.03036,-5.91566 -30.89073,-7.53464 -41.39723,-2.8089 -12.09558,5.44049 -19.12551,14.46925 -23.10532,29.67489 -2.89171,11.04836 -2.83978,19.4912 0.17732,28.82648 3.60971,11.16893 21.23875,24.40207 35.35933,26.5423 19.18046,2.90714 32.98641,2.26094 38.17825,-1.78698 1.27092,-0.9909 3.66076,-2.03301 5.31076,-2.31581 1.65,-0.2828 6.06396,-1.35734 9.8088,-2.38786 l 6.80881,-1.87368 1.94439,2.49778 1.94439,2.49777 -3.7532,3.35819 c -6.12389,5.47938 -30.68509,16.92415 -38.85449,18.10501 -7.45544,1.07766 -8.38887,1.07972 -21.8987,0.0484 z m 54.5,-7.01163 c 0,-0.55 0.39872,-1 0.88605,-1 2.12105,0 13.40727,-8.53776 15.65088,-11.83954 l 2.46307,-3.62473 0,3.0914 c 0,3.42085 -5.20394,10.80993 -9.15749,13.00274 -2.77326,1.53817 -9.84251,1.80401 -9.84251,0.37013 z m 463.93015,-2.51458 c 2.4366,-0.75944 4.8817,-1.10171 5.4336,-0.7606 1.4405,0.89027 -2.2616,2.13403 -6.3638,2.138 l -3.5,0.003 4.4302,-1.38079 z m -79.404,-0.32632 -3.9739,-0.6591 -0.072,-8 c -0.039,-4.4 -0.4572,-13.71829 -0.9283,-20.70732 -0.7118,-10.56038 -0.546,-14.56876 0.9813,-23.72483 1.6931,-10.14956 1.7395,-12.81198 0.589,-33.79622 -0.6869,-12.52829 -0.9298,-23.61026 -0.5398,-24.6266 0.5542,-1.44416 0.3006,-1.76921 -1.1606,-1.4878 -2.2873,0.44048 -3.7359,7.18111 -2.975,13.84277 0.3619,3.1682 0.2446,3.90809 -0.3963,2.5 -0.5006,-1.1 -0.9419,-6.10181 -0.9805,-11.11514 -0.061,-7.85231 0.225,-9.49053 2.061,-11.82468 2.6394,-3.35543 6.3362,-4.83604 10.0424,-4.02202 3.9109,0.85898 3.5331,2.10666 -0.8892,2.93628 -4.4588,0.83647 -9.2845,3.20204 -9.2845,4.55124 0,1.37263 1.538,1.23533 10.5596,-0.94263 4.3672,-1.05433 10.0819,-2.17127 12.6993,-2.4821 l 4.759,-0.56514 -0.4686,3.73209 c -1.7484,13.92428 -1.6856,15.18673 0.8825,17.75488 1.6678,1.66775 3.0371,2.23455 4.2626,1.76438 3.1008,-1.18958 10.53,-6.46588 17.5277,-12.44827 8.0882,-6.91458 11.9606,-8.13783 24.3089,-7.67891 8.6216,0.32043 9.4701,0.55358 14.729,4.04727 5.2448,3.48429 5.6558,4.05563 6.8347,9.5 1.8823,8.69322 1.3997,28.8105 -1.0386,43.29275 -1.1575,6.875 -2.5386,19.25 -3.0691,27.5 -0.5306,8.25 -1.1699,15.9 -1.4208,17 -0.2508,1.1 -0.7157,3.63157 -1.0331,5.62571 -0.5358,3.36627 -0.8797,3.6723 -4.8051,4.27681 -2.3254,0.3581 -5.578,0.89308 -7.228,1.18884 l -3,0.53773 0.1539,-22.81454 c 0.1142,-16.92457 0.5661,-24.5732 1.75,-29.6266 3.2162,-13.72688 1.7297,-22.48409 -4.6927,-27.64631 -5.7606,-4.63029 -17.4791,-2.70103 -28.5668,4.7031 -5.4982,3.67154 -6.0209,3.83559 -6.4912,2.0372 -0.8749,-3.34549 -3.9926,-1.60318 -6.6532,3.71806 -2.4994,4.99866 -2.5,5.00798 -2.5,34.88026 l 0,29.88027 -3.5,0.32512 c -15.2607,1.41758 -18,2.18901 -18,5.06898 0,1.38456 1.3551,1.50882 10.75,0.98574 10.4624,-0.58252 10.6563,-0.55521 7.25,1.02078 -4.0008,1.85098 -10.6823,2.45853 -16.4739,1.49795 z m -10.4472,-8.57577 c -0.043,-1.05416 0.1929,-1.64479 0.5252,-1.3125 0.3323,0.33229 0.3678,1.19479 0.079,1.91667 -0.3192,0.79773 -0.5562,0.56078 -0.6041,-0.60417 z M 898.35715,105.29897 c -5.01584,-0.84016 -16.89169,-7.75985 -21.44617,-12.49602 l -3.44616,-3.58364 3.11276,0 c 2.23168,0 3.6935,0.7784 5.16448,2.75 1.36108,1.82429 2.06239,2.22824 2.08341,1.2 0.0174,-0.8525 -0.45041,-2.03209 -1.03964,-2.62132 -1.33769,-1.33769 3.3302,-5.27365 6.45618,-5.44383 6.5743,-0.35793 10.12027,2.39806 14.94457,11.61515 5.09385,9.7321 5.06211,9.51774 1.38835,9.37483 -1.76978,-0.0688 -5.01778,-0.42667 -7.21778,-0.79517 z M 1365.8572,51.98968 c 0,-0.70454 1.5564,-1.76816 3.4588,-2.36359 4.0207,-1.25847 3.7294,-0.0726 -0.5223,2.12601 -2.2635,1.17051 -2.9365,1.22496 -2.9365,0.23758 z m 20.1192,-1.52037 c -1.1563,-0.9625 -2.2186,-2.85236 -2.3608,-4.19969 -0.2353,-2.22982 0.2801,-2.57172 5.7415,-3.80934 l 6,-1.35965 2.75,3.07512 c 1.5125,1.69131 2.739,3.40551 2.7254,3.80934 -0.043,1.2833 -6.9465,4.23422 -9.9057,4.23422 -1.5664,0 -3.7941,-0.7875 -4.9504,-1.75 z m 5.8942,-52.27512 c 2.8963,-5.4119 11.5908,-6.82514 15.8411,-2.57488 l 2.6,2.6 -4.9773,0.0596 c -2.7375,0.0328 -7.0904,0.40775 -9.6732,0.83326 -4.2262,0.69626 -4.6054,0.60443 -3.7906,-0.91799 z"
       style="fill:#fa0000" />
    <path
       inkscape:connector-curvature="0"
       id="path3072"
       d="m 1001.8955,462.18323 c -3.00385,-1.08015 -6.18467,-1.96392 -7.06846,-1.96392 -3.47021,0 -11.71961,-3.1025 -16.53997,-6.22049 -7.5346,-4.87365 -18.32239,-13.86537 -18.92937,-15.77778 -0.63246,-1.99272 15.72853,-27.16468 18.301,-28.15672 2.47125,-0.95302 5.81273,0.0409 13.69845,4.07445 6.76024,3.4579 7.37199,3.58054 17.86045,3.58054 l 10.8605,0 2.8536,-3.41923 c 1.7013,-2.03842 3.1177,-5.18023 3.5076,-7.77991 0.8992,-5.99606 -0.504,-26.73206 -2.1833,-32.26396 -0.7575,-2.49529 -1.3821,-6.27254 -1.388,-8.39389 -0.01,-3.29042 -0.2679,-3.74684 -1.7608,-3.10713 -17.407,7.45872 -35.47468,9.1613 -51.87838,4.88868 -14.25136,-3.71201 -28.27217,-18.4928 -31.86098,-33.58797 -2.12846,-8.95266 -2.96289,-25.17892 -1.65259,-32.13601 1.60964,-8.54644 8.99784,-26.30694 13.36451,-32.12695 4.9368,-6.57992 14.38336,-13.88563 21.57607,-16.68637 4.17242,-1.62469 8.53962,-2.33762 16.28545,-2.65858 9.42526,-0.39055 11.05327,-0.19923 14.86892,1.7474 5.3454,2.72697 4.2825,4.91681 -1.4657,3.01975 -2.29301,-0.75677 -7.40181,-1.07122 -13.45422,-0.82812 -8.8378,0.35497 -10.46746,0.7428 -17.28997,4.11466 -13.55198,6.69776 -22.72066,19.87139 -27.29494,39.21763 -2.93673,12.42048 -1.12956,30.49926 4.12164,41.23231 3.56895,7.29468 11.51504,15.67288 17.76436,18.73038 12.93831,6.33013 35.90973,5.65126 51.91713,-1.53429 4.8133,-2.16062 9.6619,-3.9284 10.7748,-3.9284 2.6703,0 3.9443,3.54698 3.8625,10.75437 -0.036,3.1601 0.4933,7.09563 1.176,8.74563 1.7109,4.13526 2.4903,33.74966 1.0306,39.15681 -1.5311,5.67173 -9.1381,14.016 -13.9218,15.2712 -11.5724,3.03646 -26.79573,1.6806 -37.8253,-3.3689 l -5.26133,-2.40872 -4.95069,7.43384 -4.95068,7.43383 4.15728,3.3291 c 11.31057,9.05737 33.12152,16.79366 42.92622,15.22583 6.9592,-1.11283 15.969,-5.93789 19.5812,-10.48647 6.6555,-8.38063 13.1664,-30.90857 13.1286,-45.42518 -0.024,-9.10852 -2.0894,-27.98737 -4.3943,-40.16134 -0.8331,-4.4 -1.5304,-10.10158 -1.5496,-12.67017 -0.019,-2.56859 -1.2516,-14.94359 -2.7386,-27.5 -2.6672,-22.52081 -2.9918,-30.18098 -2.3695,-55.90919 0.3287,-13.59143 -0.1939,-17.56943 -2.2279,-16.95856 -0.6594,0.19802 -5.1364,1.14539 -9.9489,2.10527 -8.7321,1.74168 -8.75,1.75154 -8.7653,4.83894 -0.02,4.01167 -1.259,5.87919 -3.6045,5.43206 -1.5581,-0.29704 -1.9309,-1.41699 -2.1763,-6.5385 -0.2456,-5.1255 0.01,-6.33649 1.5,-7.09671 2.37,-1.20952 12.0481,-2.95602 20.945,-3.77975 6.7865,-0.62833 7.2282,-0.54068 8.7158,1.72976 2.5809,3.93885 4.6321,16.26456 4.6867,28.16223 0.028,6.15154 0.4094,14.10962 0.8471,17.68462 0.4376,3.575 2.0082,17.975 3.4902,32 1.4819,14.025 3.3727,29.775 4.2018,35 3.5985,22.67779 5.4556,40.70305 4.8746,47.31423 -0.7839,8.92086 -4.7204,26.20043 -8.0459,35.31822 -2.9062,7.96853 -11.3272,19.2344 -16.299,21.80539 -4.4991,2.32661 -17.1608,5.56592 -21.6001,5.52608 -2.211,-0.0198 -6.4778,-0.91984 -9.4817,-2 z m 18.1199,-72.82994 c -1.4229,-4.74945 -1.507,-10.13398 -0.1582,-10.13398 0.5499,0 1.0328,0.7875 1.073,1.75 0.04,0.9625 0.4094,4.1125 0.8207,7 0.8765,6.15419 -0.078,6.9155 -1.7355,1.38398 z m 72.8418,-33.12981 c -15.2297,-1.2564 -30.0769,-10.56275 -32.9438,-20.64947 -1.575,-5.54113 -3.5473,-23.66621 -3.4667,-31.85805 0.05,-5.0596 0.9213,-9.50032 3.14,-16 1.6891,-4.94816 4.5209,-13.62157 6.2928,-19.27424 2.6106,-8.32787 4.0374,-11.18477 7.5212,-15.05957 9.5407,-10.61163 19.3449,-14.76764 37.1685,-15.75586 11.5538,-0.64059 11.9484,-0.59141 19.8656,2.47596 19.5625,7.57907 35.6871,20.31566 42.5595,33.61706 7.4144,14.35058 8.8594,23.06396 5.9704,36 -4.6308,20.7345 -7.107,24.13745 -27.4816,37.76682 -3.9193,2.62176 -8.7009,5.50572 -10.6259,6.40882 -5.9574,2.79486 -28.8726,3.9065 -48,2.32853 z m 37.9548,-8.47897 c 7.8299,-3.07761 13.4308,-6.83731 16.3134,-10.95053 1.1851,-1.69107 4.4558,-5.54967 7.2681,-8.57467 7.2805,-7.83101 11.5353,-15.99876 12.7554,-24.48592 1.6616,-11.55804 1.2884,-16.35266 -1.885,-24.22104 -4.2274,-10.48149 -8.5596,-15.05865 -21.6462,-22.87054 -6.1933,-3.697 -12.3349,-7.55542 -13.6481,-8.57427 -3.5132,-2.72585 -11.1295,-4.70217 -20.9896,-5.44651 -11.7898,-0.89001 -18.5293,1.48685 -27.4851,9.69322 -6.8327,6.26083 -9.4829,11.0607 -12.2106,22.11422 -0.8538,3.45996 -2.923,10.48843 -4.5982,15.61881 -2.5656,7.8572 -2.9641,10.37998 -2.5276,16 1.1647,14.99437 2.72,26.28732 4.0632,29.50213 2.9931,7.16351 15.5211,13.61865 28.6355,14.75467 14.9515,1.29515 28.6242,0.32181 35.9548,-2.55957 z m -33.7488,-16.60378 c -1.8117,-1.19543 -4.2806,-4.02929 -5.4863,-6.29747 -1.9026,-3.57892 -2.1942,-5.70991 -2.2061,-16.12395 -0.013,-11.21781 0.187,-12.4609 3.064,-19.07091 4.2764,-9.82482 9.8966,-17.94812 14.2454,-20.58991 2.0223,-1.22848 3.9778,-2.67466 4.3456,-3.21374 0.4301,-0.63051 2.7097,-0.52334 6.3909,0.30046 5.7972,1.29737 13.7273,6.69626 18.9466,12.89908 3.1565,3.75129 6.8235,16.55835 6.2352,21.77701 -0.5414,4.8034 -6.722,17.70567 -10.923,22.80219 -4.6699,5.66545 -12.6241,8.934 -22.7375,9.3434 -7.4816,0.30286 -9.0028,0.0689 -11.8748,-1.82616 z m 26.4746,-8.38987 c 5.7671,-2.62425 9.9896,-7.60082 13.9202,-16.40598 2.8256,-6.32973 2.9917,-10.38257 0.7526,-18.36275 -1.4457,-5.15215 -2.5043,-6.65122 -8.6743,-12.28246 -6.7838,-6.19139 -7.0656,-6.33815 -8.118,-4.22723 -0.5997,1.20276 -2.6587,3.16402 -4.5757,4.35835 -5.7648,3.59158 -8.8561,7.31403 -12.7029,15.29613 -3.318,6.88501 -3.6932,8.52409 -4.0272,17.59239 -0.3189,8.66057 -0.1011,10.42491 1.6263,13.17233 1.097,1.74479 3.0349,3.39199 4.3064,3.66045 4.185,0.88355 12.224,-0.4038 17.4926,-2.80123 z m 26.3194,29.65934 c 0,-0.44502 2.7,-2.67227 6,-4.94945 6.5888,-4.54664 7.8129,-4.34972 2.75,0.4424 -4.4091,4.17324 -8.75,6.40922 -8.75,4.50705 z m 154,0.0203 c 0,-1.4195 9.3862,-4.45635 12.2266,-3.95583 1.9918,0.35098 1.7849,0.61936 -1.6702,2.16688 -5.0143,2.24595 -10.5565,3.18514 -10.5565,1.78897 z m -90.0551,-2.48958 c -13.5478,-4.12989 -19.3095,-8.63562 -24.4325,-19.10664 -5.1317,-10.48893 -5.9419,-39.8901 -1.5703,-56.99089 2.1813,-8.53287 10.7922,-30.93916 13.5131,-35.16219 1.8489,-2.86962 5.5017,-2.40201 10.6159,1.359 2.3776,1.7485 5.2895,3.17909 6.4709,3.17909 1.1814,0 2.9548,0.89156 3.941,1.98124 1.4742,1.62895 1.5671,2.25346 0.5224,3.51215 -0.786,0.94718 -1.4533,5.81585 -1.7499,12.76876 -0.3994,9.36281 -0.022,13.74061 2.2608,26.23785 2.8913,15.82746 4.478,20.14144 9.3108,25.31493 3.4588,3.70265 4.8865,3.88196 10.0273,1.2593 3.6868,-1.88085 6.7206,-6.6852 7.3088,-11.57423 0.3433,-2.85363 -11.3245,-27.52702 -15.0625,-31.85211 -1.2291,-1.42205 -1.6007,-4.09231 -1.6007,-11.5 l 0,-9.64789 2.5878,-0.0499 c 1.4233,-0.0274 3.7702,-0.97992 5.2154,-2.11664 1.4451,-1.13672 4.3846,-2.34775 6.5322,-2.69117 2.1477,-0.34342 4.4684,-1.30343 5.1571,-2.13335 0.6888,-0.82992 2.7927,-1.50895 4.6754,-1.50895 4.4836,0 7.5665,3.13007 11.5862,11.76332 1.7252,3.70517 4.5958,9.23982 6.3793,12.2992 6.4122,10.99971 12.2981,30.71757 12.3449,41.35557 0.029,6.6269 -1.8885,17.40637 -3.7454,21.05285 -2.8675,5.63132 -12.044,14.17116 -18.1928,16.93055 -9.8127,4.40366 -20.5429,6.74229 -33.0401,7.20104 -9.9244,0.36431 -12.5352,0.1066 -19.0551,-1.8809 z m 37.5551,-8.68227 c 10.4543,-3.03831 15.3937,-5.94585 19.006,-11.18769 3.7025,-5.3726 4.9794,-13.30516 3.5356,-21.96286 -1.3911,-8.34107 -8.7324,-28.48555 -12.8983,-35.39272 -2.0631,-3.42074 -5.5269,-10.1026 -7.6972,-14.84859 -2.1704,-4.74598 -4.4042,-8.63321 -4.964,-8.63827 -0.5598,-0.005 -2.6973,1.13201 -4.75,2.52684 -3.5025,2.38002 -3.7321,2.85465 -3.7321,7.71419 0,4.05632 0.8418,6.81073 3.8859,12.71395 2.1372,4.1447 4.6558,10.23581 5.5967,13.53581 0.941,3.3 2.7326,8.475 3.9815,11.5 3.3841,8.19695 3.977,15.74541 1.5502,19.736 -4.4478,7.31381 -14.9763,12.2561 -21.7672,10.21794 -4.4765,-1.34355 -6.5706,-2.98601 -11.4159,-8.95394 -6.7647,-8.33195 -8.4785,-15.93449 -9.4675,-42 -0.5138,-13.54007 -0.3404,-17.45136 0.967,-21.8033 l 1.5931,-5.30331 -4.5035,-4.3151 -4.5035,-4.3151 -1.4964,3.58134 c -7.1858,17.19822 -10.3535,28.08636 -12.4604,42.83054 -1.0357,7.24798 -0.9367,9.28926 0.8729,18 1.1226,5.40371 2.3324,11.62493 2.6885,13.82493 0.356,2.2 1.9623,6.475 3.5695,9.5 3.3561,6.31653 8.1624,9.8303 18.6759,13.65345 5.9791,2.17424 7.8531,2.39087 16.7332,1.93437 5.5507,-0.28535 13.1144,-1.41924 17,-2.54848 z m 163.9999,6.90154 c -11.2032,-0.99014 -24.5922,-4.63281 -31.1464,-8.47382 -5.5143,-3.23164 -11.305,-10.98467 -14.9131,-19.96706 -2.4995,-6.2225 -2.8166,-8.27731 -2.8548,-18.5 -0.046,-12.31805 1.935,-20.75816 6.9242,-29.5 5.7553,-10.08434 21.9767,-21.09776 36.772,-24.96614 5.3478,-1.39824 9.3653,-1.67398 19,-1.30405 14.308,0.54938 19.0492,2.04656 31.8243,10.04942 10.6702,6.68429 12.854,10.16134 12.8774,20.50289 0.021,9.43263 -1.5791,13.05173 -8.9692,20.28294 -7.4129,7.25359 -9.367,8.27677 -19.8933,10.41621 -8.1577,1.65805 -19.7502,1.66842 -30.6211,0.0274 -3.4185,-0.51604 -3.7092,-0.42808 -2,0.60508 1.1,0.66489 2.3628,1.81653 2.8062,2.5592 2.167,3.62942 17.9931,9.32705 25.9075,9.32705 6.7089,0 11.1333,2.11579 14.6892,7.02454 5.7418,7.92633 5.3588,11.58236 -1.6821,16.05625 -8.9448,5.68367 -20.6584,7.45644 -38.7208,5.86009 z m 29.8141,-10.7556 c 5.2154,-2.30701 5.7634,-3.85586 2.4359,-6.88482 -1.8857,-1.71662 -4.4436,-2.21589 -15.8017,-3.08428 -12.7282,-0.97315 -13.9437,-1.2527 -20,-4.59974 -5.1992,-2.87332 -7.2863,-4.8176 -10.7747,-10.03726 -2.7171,-4.06555 -4.205,-7.33024 -4,-8.77641 0.29,-2.04579 0.8286,-2.28322 4.8264,-2.12758 2.475,0.0964 12.2462,0.48845 21.7137,0.87133 l 17.2137,0.69615 5.2863,-3.5354 c 6.518,-4.35911 12.3209,-10.28695 13.7268,-14.02237 0.5828,-1.5483 1.0595,-6.31731 1.0595,-10.59778 l 0,-7.78268 -5.779,-5.51228 c -6.9579,-6.63668 -9.9291,-8.26712 -17.6748,-9.69899 -19.3119,-3.57 -38.7822,2.1756 -52.1337,15.38437 -8.9419,8.84642 -10.9043,14.3465 -10.8899,30.52246 0.011,12.10025 0.1195,12.73236 3.3996,19.76582 5.6822,12.18407 12.1298,16.4306 30.6237,20.16923 8.6368,1.74599 10.7175,1.90158 21.5182,1.60911 8.0527,-0.21806 11.678,-0.77883 15.25,-2.35888 z m -40.6078,-49.62193 c -2.5307,-2.5307 -2.0609,-7.41232 1.2729,-13.22501 2.361,-4.11655 4.0295,-5.67113 8.2406,-7.67779 11.1907,-5.33256 24.9336,-4.1541 32.2725,2.76738 3.4372,3.24169 3.5978,3.68506 3.3101,9.13771 -0.4845,9.1821 -1.5018,9.60564 -24.5223,10.20923 -16.8622,0.44211 -19.049,0.31334 -20.5738,-1.21152 z m 36.6308,-4.21932 c 4.3888,-0.72512 5.1469,-1.95094 4.2298,-6.83941 -0.8932,-4.76137 -3.065,-5.70416 -10.2208,-4.43696 -9.3743,1.66006 -14.8223,3.77625 -17.8455,6.93176 l -2.8224,2.94597 2.4109,0.96392 c 2.7529,1.10064 18.5079,1.38311 24.248,0.43472 z M 986.76474,343.329 c -11.34525,-4.43878 -21.12231,-14.10034 -24.79413,-24.50122 -3.04409,-8.62275 -2.56442,-17.89958 1.45337,-28.10847 6.73175,-17.10482 16.59698,-24.5 32.68322,-24.5 11.516,0 17.5904,5.12663 20.143,17 3.7108,17.26126 5.8366,30.00842 6.337,38 0.2927,4.675 0.9253,9.26178 1.4057,10.19285 0.5341,1.03522 0.4274,2.67178 -0.2747,4.21277 -0.9336,2.04891 -3.1546,3.18109 -11.8826,6.05715 -12.09745,3.98639 -18.08585,4.37977 -25.07086,1.64692 z m 20.23256,-11.71673 7.8598,-2.60703 -0.024,-7.14297 c -0.013,-3.92863 -0.461,-8.94296 -0.9954,-11.14296 -0.5344,-2.2 -1.6969,-8.95 -2.5832,-15 -0.8864,-6.05 -1.8394,-12.4773 -2.1178,-14.28288 -0.9168,-5.94624 -10.64643,-8.70596 -20.54665,-5.82789 -9.92026,2.8839 -16.50262,13.29047 -18.35031,29.01145 -0.51386,4.37212 -0.15511,6.13176 2.37021,11.62561 3.40394,7.40533 6.48523,10.62838 14.25455,14.91035 6.74691,3.71848 10.07071,3.79381 20.1327,0.45632 z m -28.39015,-33.97605 c -2.08065,-2.08132 0.99107,-12.30987 4.59152,-15.28935 2.1851,-1.80824 2.09197,-0.8976 -0.40967,4.00602 -1.13748,2.22965 -2.37498,5.84934 -2.75,8.04374 -0.37502,2.19441 -1.01935,3.65222 -1.43185,3.23959 z m 319.57545,46.02943 c -2.8614,-1.25333 -3.2272,-1.9112 -3.7079,-6.66842 -1.3993,-13.8459 -1.9296,-28.92851 -2.0843,-59.27792 -0.1602,-31.42614 -1.4401,-53.2017 -3.5619,-60.5999 -1.2171,-4.24376 -1.2639,-15.00043 -0.079,-18.11738 0.6737,-1.77193 2.5738,-2.88244 7.75,-4.52938 12.6653,-4.02978 18.3172,-5.39041 21.0638,-5.07089 2.4481,0.28478 2.9068,0.98838 4.4445,6.81755 0.9925,3.76211 1.743,10.42969 1.7819,15.82946 l 0.067,9.32945 2.75,-0.53776 c 5.7028,-1.11518 18.8438,-2.82511 31.5714,-4.10815 11.0894,-1.11789 13.4035,-1.11263 14.5969,0.0332 1.0422,1.00069 1.4559,4.36667 1.5602,12.69623 0.078,6.234 0.4337,11.80639 0.7901,12.38309 0.3564,0.57671 0,1.97702 -0.7971,3.11181 -1.0849,1.54887 -3.0066,2.23094 -7.7083,2.73587 -5.64,0.6057 -31.1631,4.71422 -37.984,6.11439 -2.6028,0.5343 -2.6956,0.76141 -2.1389,5.23547 0.3201,2.57232 1.6798,8.50195 3.0216,13.17695 2.1175,7.378 2.5443,11.58787 3.2331,31.89289 1.1697,34.48562 0.7804,35.55375 -14.2197,39.00802 -10.4336,2.40272 -15.7823,2.54608 -20.3498,0.54543 z m 18.6746,-6.37814 5.5,-1.66303 -0.1671,-22.12801 c -0.092,-12.17041 -0.7525,-26.32408 -1.4681,-31.45259 -0.7155,-5.12851 -1.3329,-13.37457 -1.3719,-18.32457 -0.039,-4.95 -0.4281,-10.03409 -0.8646,-11.29799 -1.9693,-5.70242 4.551,-8.19713 33.4643,-12.80349 l 11.5926,-1.8469 -1.6773,-6.52581 c -0.9225,-3.5892 -1.4892,-7.08831 -1.2593,-7.77581 0.5378,-1.60806 -0.6662,-1.58682 -19.6079,0.34594 -8.6024,0.87777 -17.0996,2.27731 -18.8826,3.1101 -4.2624,1.99075 -5.9095,1.21172 -7.1903,-3.40076 -1.4615,-5.2632 -1.3323,-10.7719 0.5021,-21.40158 0.8634,-5.00346 1.4056,-9.26147 1.2048,-9.46225 -0.3952,-0.39528 -15.1702,3.61981 -20.6246,5.60476 l -3.3499,1.21906 0.4712,7.61737 c 0.2591,4.18955 1.1726,10.76736 2.0299,14.61736 3.5113,15.76815 4.848,35.15911 5.1352,74.5 0.1547,21.175 0.6234,39.75702 1.0416,41.29338 0.731,2.6852 0.9398,2.76714 5.3912,2.11562 2.5468,-0.37278 7.1057,-1.42614 10.1307,-2.3408 z m 168.5151,4.94857 c -1.5423,-1.70418 -1.6833,-2.93535 -1.0027,-8.75 0.4356,-3.72172 0.778,-7.66677 0.7609,-8.76677 -0.017,-1.1 -0.1223,-8.75 -0.2338,-17 -0.1115,-8.25 -0.841,-19.46676 -1.6211,-24.92614 -0.7802,-5.45937 -1.4185,-14.54972 -1.4185,-20.20077 0,-5.65106 -0.4977,-12.59549 -1.106,-15.43208 -0.925,-4.31314 -0.8577,-5.40586 0.4114,-6.67491 0.9902,-0.99022 7.3377,-2.35857 18.2684,-3.93816 18.4148,-2.66113 18.3824,-2.66722 18.4109,3.46918 l 0.015,3.29713 3.75,-3.00214 c 5.5484,-4.4419 13.4577,-6.1343 31.75,-6.79376 19.5457,-0.70466 31.7854,0.7233 36.5913,4.26896 4.2869,3.16277 8.7894,10.05925 9.5365,14.60691 0.423,2.57451 1.0179,3.51523 1.9879,3.14301 0.7614,-0.29216 1.3843,0.0361 1.3843,0.72939 0,1.39414 -5.1798,6.45475 -14.8528,14.51105 -3.4941,2.91008 -7.0071,6.22509 -7.8067,7.36669 -1.526,2.1786 -4.7876,2.77929 -5.8405,1.07564 -0.3399,-0.55 -1.3789,-1.00285 -2.309,-1.00632 -0.93,-0.003 -2.4393,-1.32166 -3.3539,-2.92928 -2.7163,-4.7746 -7.0897,-6.4121 -18.3426,-6.86788 -11.8729,-0.48089 -16.9587,0.68001 -22.2233,5.07276 -2.1296,1.7769 -4.787,3.90572 -5.9052,4.73072 -1.9994,1.47502 -2.0123,1.81641 -0.7732,20.5 0.6931,10.45 1.2932,22.70213 1.3337,27.22695 0.068,7.61638 -0.1043,8.34343 -2.322,9.79657 -1.3176,0.86329 -2.6141,2.40526 -2.8812,3.42659 -0.4023,1.53844 -1.8354,1.96415 -8.3544,2.48173 -4.3279,0.34361 -10.3064,1.06202 -13.2856,1.59646 -7.5057,1.34642 -8.5222,1.24912 -10.5681,-1.01153 z m 26.9793,-13.26677 c -0.3536,-4.5375 -1.0595,-10.69515 -1.5687,-13.68366 -0.5092,-2.98851 -0.9258,-12.49003 -0.9258,-21.11449 l 0,-15.68083 2.75,-3.02618 c 3.4842,-3.83407 15.5081,-11.57659 20.75,-13.36153 2.3743,-0.80847 8.2675,-1.36258 14.5,-1.36338 12.211,-0.002 18.6178,1.89914 22.3119,6.61927 l 2.3339,2.98223 10.1771,-9.15692 c 5.5974,-5.03631 10.1771,-9.50575 10.1771,-9.93211 0,-0.42635 -1.6875,-2.66194 -3.75,-4.96797 -2.5762,-2.88045 -5.0019,-4.48425 -7.75,-5.12401 -12.0655,-2.80893 -42.801,-1.80437 -51.5189,1.68384 -3.8741,1.5501 -8.5544,6.50487 -12.871,13.62574 -2.3119,3.81391 -4.7474,4.71266 -6.9101,2.55 -0.7383,-0.73836 -1.2,-4.35697 -1.2,-9.40638 0,-7.27687 -0.1982,-8.16834 -1.75,-7.87055 -2.8277,0.54264 -13.4341,2.35193 -17.55,2.99376 -2.9805,0.46477 -3.6866,0.95818 -3.274,2.28787 0.6068,1.95523 0.742,5.10001 0.6104,14.1953 -0.052,3.575 0.8839,11.9 2.0791,18.5 1.1952,6.6 2.2944,14.925 2.4426,18.5 0.1483,3.575 0.5915,12.125 0.985,19 0.4531,7.91568 0.3309,13.8753 -0.3332,16.25 l -1.0486,3.75 10.9881,0 10.9881,0 -0.643,-8.25 z m -50.8051,-25.2827 c 2.0839,-2.49299 3.9486,-4.05347 4.1438,-3.46775 0.5166,1.54974 -4.671,8.00045 -6.4338,8.00045 -0.9951,0 -0.2253,-1.52367 2.29,-4.5327 z m 64.3106,-26.30837 c 0,-1.86031 16.3644,-9.12795 17.6526,-7.83975 0.2851,0.28518 -2.7825,2.34908 -6.817,4.58644 -7.0404,3.90424 -10.8356,5.04373 -10.8356,3.25331 z M 1381.3414,230.1478 c -0.7589,-3.45536 0.1414,-5.13439 1.5548,-2.89953 1.2039,1.90366 1.2314,5.97104 0.04,5.97104 -0.5063,0 -1.2241,-1.38218 -1.5952,-3.07151 z m -123.7559,-1.53343 c -0.6578,-0.65785 10.0462,-10.39506 11.4272,-10.39506 1.5399,0 0.8873,1.03985 -3.7924,6.04284 -4.3824,4.68518 -6.2418,5.74514 -7.6348,4.35222 z m -10.2832,-4.14506 c -1.5357,-2.0625 -5.2391,-6.57611 -8.2298,-10.03023 -4.2797,-4.94294 -5.7252,-6.0415 -6.7885,-5.15905 -0.743,0.61665 -3.634,4.68025 -6.4244,9.03023 -2.9049,4.52842 -5.7649,7.90905 -6.6911,7.90905 -2.4555,0 -13.9354,-5.67018 -20.4856,-10.11833 -8.6696,-5.88741 -7.907,-8.188 5.9689,-18.00783 4.7879,-3.3884 12.0096,-9.2845 16.048,-13.10244 6.3724,-6.02441 7.6938,-6.85409 10,-6.27869 3.5171,0.87751 7.8942,4.24672 18.1574,13.97619 4.675,4.43191 10.8625,9.83193 13.75,12.00005 5.7559,4.32194 6.279,5.67887 3.1958,8.29084 -2.6526,2.24717 -10.2347,12.24021 -9.2871,12.24021 1.5063,0 -3.2348,2.93788 -4.7901,2.9682 -0.8972,0.0175 -2.8878,-1.6557 -4.4235,-3.7182 z m 9.7294,-9.0389 4.4955,-5.7889 -4.5603,-3.4611 c -2.5082,-1.9036 -8.3965,-7.31539 -13.0851,-12.02618 -4.6885,-4.7108 -9.7655,-9.37728 -11.2822,-10.36996 l -2.7575,-1.80487 -7.2425,6.86995 c -3.9833,3.77848 -10.9549,9.46759 -15.4924,12.64246 -4.5375,3.17488 -8.2466,6.09988 -8.2423,6.5 0.01,0.87624 6.3854,4.63442 14.223,8.38328 l 5.7308,2.7411 3.5203,-5.30361 c 4.6281,-6.97255 8.0529,-10.59327 10.0201,-10.59327 3.2654,0 7.1611,3.12422 12.9981,10.42399 3.3,4.127 6.2652,7.51993 6.5895,7.53983 0.3242,0.0199 2.6125,-2.56882 5.085,-5.75272 z m 277.6689,-23.70097 c -0.2694,-0.26943 -4.6662,-0.92196 -9.7707,-1.45006 -14.9162,-1.54321 -33.8396,-7.18748 -54.6071,-16.28762 -5.9855,-2.62279 -8.0451,-4.02289 -8.2853,-5.63218 -0.3308,-2.21675 12.7974,-20.81078 15.398,-21.80871 2.5397,-0.97458 13.0451,2.89221 25.4977,9.38511 12.3877,6.45909 12.6609,6.54664 18.2506,5.84826 3.121,-0.38995 6.3069,-1.34134 7.0798,-2.1142 2.0512,-2.05121 3.5204,-13.04168 3.8257,-28.61833 0.3289,-16.78369 0.3297,-16.78264 -10.3296,-13.10441 -5.7581,1.98694 -10.0189,2.65769 -19.18,3.01934 -14.3105,0.56494 -17.8169,-0.0188 -21.9939,-3.66173 -1.7758,-1.54867 -4.1955,-3.11731 -5.3772,-3.48586 -1.1817,-0.36856 -4.0325,-2.03482 -6.335,-3.7028 -4.8081,-3.48295 -7.7673,-9.32564 -10.8948,-21.51057 -8.5421,-33.28141 -8.2851,-37.82306 3.3894,-59.88637 9.7913,-18.50418 11.0633,-19.66248 31.4222,-28.61167 4.9296,-2.16689 6.7376,-2.37966 19.5,-2.29486 15.3203,0.10181 22.4271,1.77444 29.0711,6.84209 2.7352,2.0862 3.3962,2.23587 4.5952,1.04043 1.724,-1.71887 20.2128,-4.82189 24.5913,-4.1272 1.8525,0.29394 3.3434,0.0486 3.5546,-0.58503 0.3808,-1.14242 15.7638,5.72061 15.7434,7.02382 -0.01,0.39183 -1.3607,4.98742 -3.0102,10.21242 -1.6494,5.225 -3.8669,15.35 -4.9278,22.5 -1.0609,7.15 -3.2786,18.64947 -4.9283,25.55438 -2.9071,12.1684 -4.2572,25.32489 -6.6646,64.94562 -1.1262,18.53326 -3.8638,32.28349 -8.2392,41.3822 -4.9949,10.38707 -8.03,13.91018 -14.703,17.06702 -4.8419,2.29059 -11.3794,3.35379 -12.6723,2.06091 z m 4.7048,-9.9498 c 3.2297,-2.11615 7.8418,-9.3142 10.4714,-16.34243 2.4366,-6.51247 4.9681,-24.7652 4.9537,-35.7179 -0.01,-4.4 0.4911,-17.225 1.1041,-28.5 0.9103,-16.7426 1.7479,-23.43261 4.5699,-36.5 1.9003,-8.8 4.3079,-21.4 5.35,-28 1.0422,-6.6 3.01,-15.48991 4.373,-19.75536 3.1072,-9.7241 2.8651,-9.91858 -10.516,-8.44607 l -9.6457,1.06144 -1.1319,3.77802 c -0.6225,2.0779 -1.5829,4.05674 -2.1341,4.39742 -0.5513,0.34068 -2.5806,-0.76639 -4.5097,-2.46015 -10.4168,-9.14607 -33.6475,-11.61876 -52.433,-5.58099 -11.5749,3.72026 -14.6592,6.87354 -23.5,24.02537 l -7,13.58064 0.053,8.19984 c 0.054,8.39114 2.2574,19.02448 7.0773,34.1591 3.5712,11.21379 4.7576,13.10798 10.1252,16.16548 2.6095,1.48639 6.0105,3.86639 7.558,5.28889 2.5655,2.35841 3.6963,2.61688 12.8303,2.93259 12.4866,0.43158 16.3754,-0.2764 19.1611,-3.48833 1.2073,-1.39197 5.1201,-4.59377 8.6951,-7.11511 3.575,-2.52135 7.7702,-6.08243 9.3228,-7.91352 3.1648,-3.73268 6.8766,-4.3637 9.8484,-1.67427 2.5061,2.26798 2.2923,6.48396 -0.6142,12.11342 -3.081,5.96737 -4.9586,19.30292 -4.068,28.89334 0.7234,7.78946 -1.4416,22.41211 -4.0711,27.49699 -2.0967,4.05458 -6.6425,5.97723 -15.5806,6.58986 -7.7164,0.5289 -7.9963,0.46495 -15.8065,-3.61078 -7.7403,-4.03922 -24.2281,-10.13782 -27.4081,-10.13782 -0.8703,0 -2.9308,2.36121 -4.5791,5.24712 l -2.9967,5.24712 5.2265,2.34595 c 5.8272,2.61554 19.6109,7.84981 24.2265,9.19983 19.2029,5.61663 26.6912,7.04006 34.2356,6.50775 2.3296,-0.16436 5.3953,-1.05871 6.8127,-1.98744 z m -41.4571,-88.25018 c -13.3203,-6.92043 -19.7238,-16.64814 -20.7625,-31.54059 -1.1415,-16.36627 2.3335,-27.58325 10.9437,-35.32448 5.9918,-5.38716 10.3443,-6.90391 17.0942,-5.95697 2.8234,0.39609 7.7659,0.65325 10.9834,0.57147 7.8237,-0.19887 11.8223,1.28176 16.0253,5.93403 5.5114,6.10049 5.9752,9.02914 5.1387,32.45293 l -0.7379,20.66268 -3.138,4.66373 c -1.7259,2.56506 -5.0881,6.02798 -7.4716,7.69539 -3.9381,2.75508 -5.1697,3.05995 -13.5,3.34181 -8.4187,0.28484 -9.6077,0.0809 -14.5753,-2.5 z m 23.191,-9.65525 c 5.8512,-2.44586 6.1299,-3.3519 7.2436,-23.55088 1.0543,-19.12039 0.5705,-25.23516 -2.2424,-28.34346 -2.2973,-2.5384 -8.7435,-4.09986 -16.5341,-4.00501 -7.567,0.0921 -11.5,1.91869 -16.5735,7.69702 -4.5025,5.1281 -5.4838,9.36233 -4.9674,21.43454 0.6285,14.69403 3.0527,19.16902 13.7916,25.45846 5.1603,3.02223 13.7836,3.60778 19.2822,1.30933 z m -624.81627,55.35913 c -23.81356,-2.51172 -42.15004,-12.66674 -53.25677,-29.49441 -4.78154,-7.24446 -5.966,-12.98369 -6.60821,-32.01962 -0.6192,-18.35393 0.32794,-25.45247 4.50741,-33.78148 4.38058,-8.7298 18.12929,-25.48847 26.04161,-31.74279 6.50498,-5.14189 18.49415,-9.94795 27.20341,-10.90493 8.76421,-0.96302 27.23205,0.38056 34.58789,2.51637 9.08569,2.63806 16.88031,9.21481 20.22737,17.06693 0.6672,1.56524 2.03994,3.78844 3.05052,4.94044 1.01059,1.152 1.56532,2.80365 1.23274,3.67033 -0.70753,1.84382 -13.20198,12.87963 -18.7051,16.52142 -3.27528,2.16748 -4.14958,2.3512 -6.37139,1.33887 -1.41636,-0.64533 -2.80482,-2.05141 -3.08547,-3.12461 -0.69462,-2.65623 -5.04546,-3.37714 -20.78989,-3.44474 -14.32287,-0.0615 -16.80229,0.6616 -23.33763,6.80614 -5.94387,5.58844 -10.16787,17.14258 -10.15679,27.78239 0.0121,11.59886 4.12639,17.90053 16.4064,25.12879 5.94813,3.5012 8.5354,4.36689 16.08802,5.38302 21.35124,2.87259 35.16428,0.51283 49.74431,-8.49813 l 3.38058,-2.08931 3.01498,2.14193 c 1.65824,1.17805 4.64024,4.62706 6.62665,7.66445 3.56079,5.44475 3.58787,5.5638 1.92257,8.45174 -0.929,1.61106 -3.96782,4.66241 -6.75293,6.78078 -4.96936,3.77971 -26.2288,14.49667 -34.65441,17.46939 -5.31863,1.87652 -19.69023,2.55777 -30.31587,1.43703 z m 21.93282,-5.05083 c 8.1694,-1.18086 32.7306,-12.62563 38.85449,-18.10501 l 3.7532,-3.35819 -1.94439,-2.49777 -1.94439,-2.49778 -6.80881,1.87368 c -3.74484,1.03052 -8.1588,2.10506 -9.8088,2.38786 -1.65,0.2828 -4.03984,1.32491 -5.31076,2.31581 -5.19184,4.04792 -18.99779,4.69412 -38.17825,1.78698 -14.12058,-2.14023 -31.74962,-15.37337 -35.35933,-26.5423 -3.0171,-9.33528 -3.06903,-17.77812 -0.17732,-28.82648 3.97981,-15.20564 11.00974,-24.2344 23.10532,-29.67489 10.5065,-4.72574 34.36687,-3.10676 41.39723,2.8089 l 2.83215,2.38309 9.06535,-5.65525 9.06536,-5.65526 -1.71988,-3.06929 C 941.56942,15.59695 934.3759,9.424 928.71367,7.81479 921.01928,5.62804 902.51354,3.8876 895.42219,4.68377 c -7.02555,0.78879 -19.48499,5.50021 -24.55912,9.28682 -8.53738,6.37108 -24.61899,26.88824 -27.78463,35.44806 -2.88447,7.79953 -3.24656,12.48373 -2.41958,31.30066 0.91818,20.89185 1.8513,23.2948 13.62463,35.08572 13.58621,13.60652 25.9835,18.01848 54.07366,19.2438 1.65,0.072 6.10442,-0.31787 9.8987,-0.86632 z m 119.60135,1.94001 c -20.2643,-1.46529 -34.4141,-5.43098 -39.73224,-11.13549 -1.99276,-2.13755 -15.26143,-24.70274 -16.6437,-28.3049 -1.55512,-4.05256 -3.62254,-16.45807 -3.62329,-21.74139 -8.7e-4,-6.13217 4.00376,-27.85366 6.67787,-36.22143 2.24816,-7.03489 5.71672,-13.63342 8.47232,-16.11764 6.80069,-6.13091 12.65904,-9.07714 20.48504,-10.30217 4.3252,-0.67704 10.0739,-1.86931 12.7749,-2.64948 2.701,-0.78018 11.701,-1.71052 20,-2.06743 l 15.0891,-0.64893 10.5,4.22641 c 20.9201,8.42068 26.0128,12.84445 33.9841,29.52063 9.9122,20.73637 12.1384,43.17951 5.7196,57.66221 -2.5921,5.84852 -12.2892,18.46229 -18.5229,24.09401 -5.8692,5.30251 -26.2526,12.59696 -39.1808,14.02135 -2.475,0.27269 -9.675,0.1216 -16,-0.33575 z m 30.0673,-9.84788 c 5.188,-1.67972 11.2,-4.06682 13.3601,-5.30468 5.0318,-2.88354 15.8688,-16.66886 18.5472,-23.59315 5.1547,-13.32636 2.8503,-33.03707 -5.9412,-50.81824 -5.7927,-11.71589 -10.9704,-17.04952 -19.7343,-20.32851 -3.0222,-1.13077 -8.4437,-3.62077 -12.0478,-5.53334 -6.4167,-3.40519 -6.7987,-3.47741 -18.3943,-3.47741 -8.7165,0 -15.3404,0.68939 -25.0993,2.61221 -12.5215,2.46715 -15.4448,3.5157 -22.27113,7.98852 -2.8403,1.86103 -2.84062,1.86097 -2.25728,-0.36972 0.79113,-3.02529 0.1198,-2.80737 -1.59879,0.51899 -4.16825,8.06773 -10.63055,36.95414 -10.63055,47.51842 0,7.35064 2.65641,16.41634 6.95376,23.73158 2.10014,3.575 5.67304,9.73424 7.93977,13.6872 2.26673,3.95296 5.44122,8.12701 7.05432,9.27567 4.4009,3.13368 17.0898,6.04329 30.5522,7.00567 16.4459,1.17568 22.5836,0.64301 33.5673,-2.91321 z m -39.8137,-17.51565 c -6.4127,-2.00327 -13.3326,-6.87084 -17.4576,-12.27993 -9.7494,-12.78425 -11.34749,-23.49222 -5.3681,-35.96919 6.5164,-13.59729 17.5992,-20.91589 33.6923,-22.24896 18.0774,-1.49743 28.5423,1.73022 38.1008,11.75126 8.4119,8.81907 10.2525,12.97946 10.267,23.20714 0.011,7.77528 -0.2679,8.99389 -3.2707,14.29268 -1.8054,3.18598 -3.0525,6.165 -2.7713,6.62005 0.7819,1.26508 -10.4714,8.75689 -18.9731,12.63123 -7.2523,3.30501 -8.073,3.45312 -18.7783,3.38914 -6.3008,-0.0376 -13.051,-0.6468 -15.441,-1.39342 z m 35.8366,-9.9108 c 12.8999,-4.61115 20.3844,-20.98555 15.0766,-32.98461 -2.9189,-6.59867 -12.2927,-16.14055 -18.0322,-18.35561 -4.9378,-1.90566 -17.4593,-2.40616 -24.3802,-0.97451 -5.5894,1.15622 -15.6572,10.15005 -19.5611,17.47438 -3.9655,7.44018 -4.1184,12.15958 -0.6095,18.81253 5.411,10.25949 10.5568,13.48484 24.4162,15.30413 4.675,0.61367 9.625,1.27477 11,1.46911 5.0952,0.72014 8.5936,0.50446 12.0902,-0.74542 z m -15.5447,-2.55524 c -0.6206,-1.00414 9.4727,-2.58397 11.6349,-1.82111 1.5186,0.53579 -5.5923,2.73355 -8.8714,2.74189 -1.2051,0.003 -2.4486,-0.41128 -2.7635,-0.92078 z m 241.4545,34.12636 c 0,-0.44 0.5625,-1.39778 1.25,-2.12839 1.0358,-1.10082 -0.1149,-1.21979 -6.7168,-0.69443 -4.3817,0.34868 -10.4791,1.15287 -13.5497,1.78708 -3.0705,0.63422 -6.6855,0.87593 -8.0332,0.53713 l -2.4503,-0.61599 -0.2411,-17.38419 c -0.2281,-16.45129 1.5305,-44.18529 3.8492,-60.70121 1.0865,-7.73927 0.8279,-15.61901 -1.0487,-31.95878 -1.4412,-12.54895 -1.114,-12.90314 13.0656,-14.1428 5.7062,-0.49887 13.5349,-1.18729 17.397,-1.52983 7.4084,-0.65705 8.5817,-0.15835 9.7197,4.13141 0.2918,1.1 1.6753,5.87922 3.0744,10.6205 1.3992,4.74127 3.0311,11.94127 3.6265,16 1.5926,10.85759 3.3113,86.53652 2.02,88.94937 -0.707,1.32095 -2.0972,1.93013 -4.4046,1.93013 -1.8544,0 -6.3805,1.35 -10.058,3 -7.3737,3.30834 -7.5,3.3454 -7.5,2.2 z m -5.8032,-9.34042 c 6.4549,-0.75212 10.9683,-0.80755 13.5,-0.1658 l 3.8032,0.96407 -0.025,-42.57892 c -0.027,-44.42901 -0.078,-45.1556 -4.2244,-59.32893 l -2.5595,-8.75 -14.4066,0 -14.4066,0 0.635,4.75 c 0.3492,2.6125 1.0518,7.19515 1.5613,10.18366 1.368,8.02501 1.12,24.38157 -0.5164,34.06634 -1.6875,9.98633 -2.3947,45.15358 -1.1234,55.85587 l 0.8739,7.35586 3.596,-0.61115 c 1.9779,-0.33613 7.9597,-1.11958 13.2929,-1.741 z m -79.9589,5.89042 c -0.5539,-0.6875 -1.3183,-2.70627 -1.6989,-4.48616 l -0.6919,-3.23617 -3.0864,1.59605 c -16.2582,8.40744 -32.9767,8.0772 -51.9356,-1.02587 -11.715,-5.62498 -16.9202,-10.60984 -21.9753,-21.04495 -3.6963,-7.63014 -3.8485,-8.34806 -3.8162,-18 0.1195,-35.655 6.2174,-51.70246 25.2166,-66.36023 6.9538,-5.36482 14.0581,-7.19267 27.9559,-7.19267 8.3651,0 12.1482,0.47147 16.8559,2.10065 6.5185,2.25588 7.6556,2.11381 6.1224,-0.765 -0.5377,-1.00961 -1.5074,-5.43565 -2.1548,-9.83565 -0.6475,-4.4 -2.4969,-14.3 -4.11,-22 -4.3593,-20.80977 -5.9192,-31.66279 -6.4678,-45 -0.2715,-6.6 -0.6689,-14.925 -0.8832,-18.5 -0.3575,-5.96611 -0.1877,-6.6505 2.0681,-8.33231 1.6189,-1.20697 5.4278,-2.13999 11.1605,-2.73385 7.7602,-0.80389 13.982,-1.86775 27.8963,-4.76996 5.011,-1.04519 9.3297,0.64256 11.3622,4.44037 1.0845,2.02626 1.1093,4.02554 0.1337,10.77302 -1.0921,7.55312 -1.0208,8.79967 0.8063,14.11044 1.1024,3.20396 2.0043,7.73023 2.0043,10.05837 0,2.32814 0.6824,7.83029 1.5164,12.227 1.5542,8.19287 1.911,25.93972 1.5026,74.72692 -0.1058,12.65 0.3364,28.85 0.9828,36 0.6464,7.15 1.354,20.425 1.5724,29.5 0.2381,9.88942 1.0696,19.81976 2.0754,24.78613 1.2276,6.06177 1.3807,8.58351 0.5703,9.39396 -3.5233,3.5233 -40.5427,6.59798 -42.982,3.56991 z m 32.4545,-7.32194 2.1925,-0.63123 -2.4099,-5.44912 c -2.0371,-4.60636 -2.5617,-8.0318 -3.3919,-22.14841 -0.5401,-9.18462 -1.4389,-21.8743 -1.9973,-28.1993 -1.892,-21.431 -2.857,-47.4614 -2.0205,-54.5 1.102,-9.27263 1.0505,-33.51841 -0.098,-46 -2.2602,-24.56909 -2.8824,-29.26952 -4.434,-33.5 -1.8667,-5.08924 -2.1343,-12.42916 -0.6869,-18.83661 0.9381,-4.15284 0.8879,-4.31453 -1.1836,-3.81539 -5.5566,1.33888 -23.4545,2.83298 -29.7054,2.47977 -3.8268,-0.21623 -6.9578,-0.23635 -6.9578,-0.0447 0,0.19164 0.4005,1.10635 0.89,2.03269 0.4894,0.92634 1.4084,7.98426 2.0422,15.68426 1.3766,16.72576 4.1605,34.70333 7.6358,49.31061 1.3988,5.87916 2.9503,14.19324 3.448,18.47573 0.4976,4.28248 1.6832,10.25581 2.6346,13.27407 1.5933,5.05431 1.6022,5.61544 0.113,7.10463 -1.4892,1.48918 -2.3119,1.39557 -10.417,-1.18524 -8.6277,-2.74724 -9.0356,-2.78209 -20.8233,-1.77888 -14.5539,1.23863 -19.1476,3.1318 -27.4616,11.31778 -6.9173,6.8107 -9.9698,11.83271 -13.361,21.9813 -2.0894,6.25274 -2.6226,10.27271 -3.2064,24.17275 -0.7809,18.59026 -0.3802,20.9034 5.1174,29.54229 4.0772,6.40683 10.2999,11.03766 20.3581,15.15009 14.473,5.91749 24.1492,6.31029 37.0302,1.50322 4.6703,-1.74289 7.6659,-3.68442 10.6416,-6.89704 4.5839,-4.94883 5.4384,-5.24848 7.9123,-2.77457 1.4115,1.41143 1.5881,2.86629 1.0504,8.65193 l -0.6464,6.95519 12.7711,-0.62228 c 7.0241,-0.34226 13.7577,-0.90634 14.9635,-1.25352 z m -59.5885,-21.44965 c -2.4178,-0.50819 -7.522,-2.7811 -11.3427,-5.05092 -8.118,-4.82286 -9.3184,-6.94902 -10.9942,-19.47372 -1.8029,-13.47492 1.2569,-23.02939 11.1942,-34.9549 9.1384,-10.96674 21.4537,-15.27712 31.5709,-11.0499 l 3.4679,1.44898 0,11.17112 c 0,6.14411 0.9406,17.65949 2.0903,25.58973 1.6135,11.12893 1.8987,16.05745 1.25,21.60156 l -0.8403,7.18293 -4.949,1.83456 c -5.964,2.21083 -15.4433,2.96245 -21.4471,1.70056 z m 22.2606,-13.22841 c 0.3272,-2.8875 0.1357,-9.525 -0.4256,-14.75 -0.5613,-5.225 -1.282,-15.125 -1.6015,-22 -0.3514,-7.56076 -1.0268,-12.7903 -1.7092,-13.23469 -2.1767,-1.41741 -7.6209,-0.74315 -12.8497,1.59145 -6.3949,2.85521 -13.7531,11.41312 -16.8894,19.64324 -1.7345,4.55151 -2.01,6.96584 -1.5973,14 0.2743,4.675 0.8109,9.26625 1.1923,10.20278 0.3815,0.93653 2.9428,3.1461 5.6918,4.91015 5.0824,3.26137 10.6317,4.4351 22.4588,4.75025 l 5.1348,0.13682 0.595,-5.25 z m -22.2712,-41 c 2.9489,-5.70183 6.0491,-7.22079 7.8541,-3.84816 0.8418,1.57285 0.7143,1.82247 -0.7369,1.44297 -1.0305,-0.26948 -2.7463,0.59654 -4.157,2.09815 -2.9679,3.15926 -4.5186,3.32009 -2.9602,0.30704 z m 218.9554,80.4969 c -2.3573,-1.91492 -2.4052,-2.19074 -1.25,-7.19536 0.6607,-2.86227 1.2049,-10.68229 1.2094,-17.37783 0.01,-14.84939 1.3822,-27.49899 4.0125,-36.99088 2.9797,-10.75245 2.3396,-15.33185 -2.792,-19.97588 -1.8776,-1.69918 -2.3438,-1.70527 -9.3524,-0.12212 -4.0569,0.91642 -9.9509,2.95973 -13.0977,4.54069 -3.1468,1.58096 -6.3569,2.87448 -7.1335,2.87448 -2.145,0 -2.8355,10.41707 -1.6904,25.5 0.5429,7.15 1.0001,20.28036 1.0162,29.17857 0.024,13.40156 -0.2406,16.4483 -1.5423,17.75 -2.0055,2.00554 -4.3793,1.99465 -7.2747,-0.0334 -1.9309,-1.35245 -4.0102,-1.49251 -13.2225,-0.8907 -9.5813,0.62592 -10.9313,0.51971 -10.9313,-0.85999 0,-2.86912 2.7513,-3.64236 18,-5.05883 l 3.5,-0.32512 0,-29.88027 c 0,-29.87228 6e-4,-29.8816 2.5,-34.88026 2.6606,-5.32124 5.7783,-7.06355 6.6532,-3.71806 0.4703,1.79839 0.993,1.63434 6.4911,-2.0372 11.0878,-7.40413 22.8063,-9.33339 28.5669,-4.7031 6.4405,5.17681 7.9284,14.02664 4.648,27.64631 -1.2569,5.21832 -1.6178,11.41062 -1.5427,26.46766 0.054,10.81058 -0.3014,21.04808 -0.7895,22.75 -0.6079,2.11956 -0.5415,3.09439 0.2108,3.09439 1.4419,0 14.18,-2.17964 14.5424,-2.48837 0.8138,-0.69335 2.4029,-13.73457 3.2304,-26.51163 0.5165,-7.975 1.8865,-20.125 3.0445,-27 2.4393,-14.48182 2.9223,-34.5973 1.0396,-43.29275 -1.1789,-5.44437 -1.5899,-6.01571 -6.8347,-9.5 -5.2589,-3.49369 -6.1074,-3.72684 -14.7291,-4.04727 -12.3482,-0.45892 -16.2206,0.76433 -24.3088,7.67891 -6.9977,5.98239 -14.427,11.25869 -17.5277,12.44827 -1.2255,0.47017 -2.5948,-0.0966 -4.2626,-1.76438 -2.5681,-2.56815 -2.6309,-3.8306 -0.8825,-17.75488 l 0.4686,-3.73209 -4.759,0.56514 c -2.6174,0.31083 -8.3321,1.42777 -12.6993,2.4821 -9.0216,2.17796 -10.5596,2.31526 -10.5596,0.94263 0,-1.84266 5.6582,-3.89285 17.567,-6.36524 6.5631,-1.36256 13.0913,-2.7725 14.5072,-3.1332 4.2323,-1.07826 5.1879,1.20661 5.0059,11.9703 -0.088,5.22635 0.2373,9.50246 0.7237,9.50246 0.4863,0 3.7669,-3.19733 7.2902,-7.10517 3.5233,-3.90784 7.1686,-7.93304 8.1008,-8.94489 3.8957,-4.22855 26.4055,-7.55705 34.0484,-5.03468 5.1598,1.70289 15.3931,8.53665 16.8445,11.24879 2.5082,4.68662 4.9802,16.64103 5.5492,26.83595 0.4627,8.29002 0.036,14.46857 -2.0255,29.35535 -1.4363,10.37045 -2.6277,22.52045 -2.6475,27 -0.02,4.47956 -0.624,12.60571 -1.3427,18.05812 -1.0777,8.17507 -1.7045,10.23553 -3.5748,11.75 -2.5633,2.07562 -4.3377,2.28622 -7.0467,0.83639 -1.2273,-0.65685 -2.751,-0.66475 -4.4388,-0.023 -1.4136,0.53742 -6.0555,1.26606 -10.3155,1.61921 -6.8197,0.56535 -8.0384,0.40409 -10.1967,-1.34915 z m 121.9512,0.2716 c 0,-0.84954 8.1534,-4.47971 10,-4.45234 0.825,0.0122 -0.075,0.84519 -2,1.85103 -4.2454,2.21832 -8,3.43915 -8,2.60131 z m -191.5544,-1.60654 c -1.2667,-2.04967 -1.6148,-40.15625 -0.4285,-46.91727 2.225,-12.68047 2.7237,-22.70804 1.9643,-39.49469 -0.8789,-19.42761 -0.3635,-24.80273 2.4298,-25.34066 1.4724,-0.28356 1.7267,0.039 1.1716,1.48569 -0.39,1.01634 -0.1471,12.09831 0.5398,24.6266 1.1505,20.98424 1.1041,23.64666 -0.589,33.79622 -1.5263,9.14956 -1.6932,13.17196 -0.9844,23.72483 1.3399,19.95111 1.2004,27.12497 -0.5492,28.2296 -1.9599,1.23753 -2.7362,1.21343 -3.5544,-0.11032 z M 880.50696,90.04782 c -3.31901,-5.68624 -4.85145,-9.86066 -4.22201,-11.50096 0.87181,-2.27189 2.5722,-1.45588 2.5722,1.23438 0,1.40905 1.17127,5.03778 2.60282,8.06384 3.17043,6.70174 2.53299,8.17507 -0.95301,2.20274 z m 488.10014,-16.1603 c -1.0604,-2.58996 -0.9328,-10.43718 0.1809,-11.1255 1.4338,-0.88611 1.6421,0.45077 1.0839,6.95729 -0.3438,4.0073 -0.7638,5.39163 -1.2648,4.16821 z m -93.4749,-89.63915 c -7.6242,-1.81144 -10.8208,-6.32079 -11.8986,-16.78516 -0.5571,-5.40955 -0.3816,-6.0481 3.016,-10.96979 1.9841,-2.87424 3.6076,-5.63438 3.6076,-6.13364 0,-0.49926 1.7681,-2.50516 3.9292,-4.45756 6.9493,-6.27833 16.0946,-7.33649 25.0708,-2.90081 7.7054,3.80774 9.2672,7.0821 8.7052,18.25084 -0.4763,9.46506 -1.9761,13.33425 -6.7138,17.32084 -6.9428,5.84194 -16.3121,7.90964 -25.7164,5.67528 z m 11.7176,-9.6428 c 5.9643,-2.38645 7.8691,-5.69934 8.161,-14.19395 0.1347,-3.91987 0.043,-7.28746 -0.2043,-7.48352 -8.649,-6.86202 -17.2112,-6.3135 -23.1375,1.48226 -4.7112,6.19734 -5.8191,9.2135 -4.748,12.92496 1.8227,6.31503 5.1054,8.80642 11.6659,8.85358 2.3264,0.0167 6.0447,-0.69577 8.2629,-1.58333 z m 18.0074,4.98177 c 0,-1.28586 4.1947,-7.36803 5.0815,-7.36803 1.5244,0 1.0426,1.91313 -1.2696,5.04049 -2.0244,2.73821 -3.812,3.82964 -3.812,2.32754 z"
       style="fill:#070607" />
  </g>
</svg>
