<?xml version="1.0" encoding="UTF-8" standalone="no"?>
<!-- Created with Inkscape (http://www.inkscape.org/) -->

<svg
   xmlns:dc="http://purl.org/dc/elements/1.1/"
   xmlns:cc="http://creativecommons.org/ns#"
   xmlns:rdf="http://www.w3.org/1999/02/22-rdf-syntax-ns#"
   xmlns:svg="http://www.w3.org/2000/svg"
   xmlns="http://www.w3.org/2000/svg"
   xmlns:sodipodi="http://sodipodi.sourceforge.net/DTD/sodipodi-0.dtd"
   xmlns:inkscape="http://www.inkscape.org/namespaces/inkscape"
   id="svg3174"
   version="1.1"
   inkscape:version="0.48.4 r9939"
   width="1532.7655"
   height="326.90753"
   sodipodi:docname="logo_en_une_ligne.svg"
   inkscape:export-filename="/home/raphael/coding_gouter/logo/logo_en_une_ligne.png"
   inkscape:export-xdpi="35.239323"
   inkscape:export-ydpi="35.239323">
  <metadata
     id="metadata3180">
    <rdf:RDF>
      <cc:Work
         rdf:about="">
        <dc:format>image/svg+xml</dc:format>
        <dc:type
           rdf:resource="http://purl.org/dc/dcmitype/StillImage" />
        <dc:title></dc:title>
      </cc:Work>
    </rdf:RDF>
  </metadata>
  <defs
     id="defs3178" />
  <sodipodi:namedview
     pagecolor="#8fff51"
     bordercolor="#666666"
     borderopacity="1"
     objecttolerance="10"
     gridtolerance="10"
     guidetolerance="10"
     inkscape:pageopacity="0"
     inkscape:pageshadow="2"
     inkscape:window-width="1533"
     inkscape:window-height="965"
     id="namedview3176"
     showgrid="false"
     fit-margin-top="0"
     fit-margin-left="0"
     fit-margin-right="0"
     fit-margin-bottom="0"
     inkscape:zoom="0.5966279"
     inkscape:cx="680.45071"
     inkscape:cy="104.19572"
     inkscape:window-x="0"
     inkscape:window-y="42"
     inkscape:window-maximized="0"
     inkscape:current-layer="layer4"
     showguides="true"
     inkscape:guide-bbox="true">
    <sodipodi:guide
       orientation="0,1"
       position="-513.94714,96.954276"
       id="guide3156" />
  </sodipodi:namedview>
  <g
     inkscape:groupmode="layer"
     id="layer11"
     inkscape:label="r"
     style="display:inline"
     transform="translate(-66.432026,-67.061312)" />
  <g
     inkscape:groupmode="layer"
     id="layer15"
     inkscape:label="e"
     style="display:inline"
     transform="translate(-66.432026,-67.061312)" />
  <g
     inkscape:groupmode="layer"
     id="layer5"
     inkscape:label="t"
     style="display:inline"
     transform="translate(-66.432026,-67.061312)" />
  <g
     inkscape:groupmode="layer"
     id="layer3"
     inkscape:label="u"
     style="display:inline"
     transform="translate(-66.432026,-67.061312)" />
  <g
     inkscape:groupmode="layer"
     id="layer7"
     inkscape:label="o2"
     style="display:inline"
     transform="translate(-66.432026,-67.061312)" />
  <g
     inkscape:groupmode="layer"
     id="layer4"
     inkscape:label="g2"
     style="display:inline"
     transform="translate(-66.432026,-67.061312)">
    <g
       id="g3073"
       transform="matrix(0.99895242,0.04576094,-0.04576094,0.99895242,770.55277,-251.01674)">
      <g
         id="g3449"
         style="display:inline">
        <path
           style="fill:#151415;display:inline"
           d="m 807.6875,403.25 c -2.08005,0.0214 -4.27161,0.0773 -6.59375,0.15625 -18.06075,0.6138 -26.42839,2.24768 -31.59375,6.1875 -3.43025,2.61637 -4.40625,2.39614 -4.40625,-1.03125 0,-4.10791 -1.7719,-4.481 -14.0625,-2.90625 -15.59204,1.99776 -21.58684,3.30365 -22.96875,4.96875 -0.87276,1.05166 -0.87787,2.69805 -0.0625,6.5 0.60004,2.79792 1.09375,9.69269 1.09375,15.34375 0,5.65105 0.65496,14.75938 1.46875,20.21875 1.06008,7.11159 1.39844,16.72662 1.21875,33.90625 -0.23305,22.28129 -0.11276,24.10599 1.625,25.84375 1.35522,1.35526 2.74784,1.71693 5.03125,1.3125 1.73307,-0.30695 8.06547,-1.07272 14.09375,-1.6875 10.82386,-1.10386 11.01138,-1.15396 14.21875,-4.78125 3.87493,-4.38226 3.87869,-4.24074 2.1875,-35.375 -1.30293,-23.9866 -1.06971,-25.48269 4.15625,-24.4375 3.30916,0.66183 12.08858,-3.28777 15.5,-6.96875 2.40481,-2.59483 2.73729,-2.6581 10.78125,-2.15625 9.24261,0.57662 13.5004,2.28079 16.59375,6.625 2.38825,3.354 7.30483,5.69819 9.34375,4.46875 4.23823,-2.55559 23.746,-21.11382 23.75,-22.59375 0.003,-0.9625 -0.3625,-1.75 -0.84375,-1.75 -0.48125,0 -1.18152,-1.43883 -1.53125,-3.1875 -0.98809,-4.94042 -6.16694,-12.17988 -10.40625,-14.5625 -5.25213,-2.95186 -14.0334,-4.24376 -28.59375,-4.09375 z m 1.0625,6.15625 c 7.73543,0.0321 15.06567,0.55499 19.84375,1.65625 4.42127,1.01902 10.5,6.73444 10.5,9.875 0,1.75705 -17.04939,18.15625 -18.875,18.15625 -0.43673,0 -1.84626,-1.1076 -3.125,-2.46875 -4.02436,-4.28375 -10.31963,-6.001 -22,-6 -6.22892,8e-4 -12.12708,0.53616 -14.5,1.34375 -6.26042,2.13065 -20.2395,11.71851 -21.96875,15.0625 -1.78973,3.46097 -2.18621,28.92134 -0.59375,38.125 0.51708,2.98851 1.07958,9.0375 1.25,13.4375 l 0.3125,8 -10.25,0.28125 -10.21875,0.28125 0.5625,-7.78125 c 0.73508,-10.54202 -1.10222,-36.33128 -3.53125,-49.78125 -1.20778,-6.68771 -2.00135,-15.58664 -2.03125,-22.71875 -0.0478,-11.39379 0.0334,-11.75357 2.21875,-12.15625 21.20074,-3.9065 19.75,-4.23753 19.75,4.4375 0,7.41463 1.10955,10.9375 3.46875,10.9375 0.77479,0 3.99249,-3.42134 7.15625,-7.625 4.11892,-5.47275 6.91813,-8.17461 9.84375,-9.46875 5.26089,-2.32714 19.29511,-3.64727 32.1875,-3.59375 z M 784.03125,439.25 c 0.35073,-0.0277 0.68527,-0.0168 0.96875,0.0312 1.26264,0.21389 0.26344,1.03062 -3.09375,2.53125 -3.05714,1.36652 -4.80691,1.75078 -4.5625,1 0.47938,-1.4725 4.23241,-3.3687 6.6875,-3.5625 z"
           id="path3325"
           inkscape:connector-curvature="0" />
        <path
           style="fill:#03ffff;fill-opacity:1;display:inline"
           d="m 808.75,409.40625 c -12.89239,-0.0535 -26.92661,1.26661 -32.1875,3.59375 -2.92562,1.29414 -5.72483,3.996 -9.84375,9.46875 -3.16376,4.20366 -6.38146,7.625 -7.15625,7.625 -2.3592,0 -3.46875,-3.52287 -3.46875,-10.9375 0,-7.00304 -0.0528,-7.0625 -2.71875,-7.0625 -2.32935,0 -5.28016,0.45972 -17.03125,2.625 -2.18536,0.40268 -2.26655,0.76246 -2.21875,12.15625 0.0299,7.13211 0.82347,16.03104 2.03125,22.71875 2.42903,13.44997 4.26633,39.23923 3.53125,49.78125 l -0.5625,7.78125 10.21875,-0.28125 10.25,-0.28125 -0.3125,-8 c -0.17042,-4.4 -0.73292,-10.44899 -1.25,-13.4375 -1.59246,-9.20366 -1.19598,-34.66403 0.59375,-38.125 1.72925,-3.34399 15.70833,-12.93185 21.96875,-15.0625 2.37292,-0.80759 8.27108,-1.34295 14.5,-1.34375 11.68037,-0.002 17.97564,1.71625 22,6 1.27874,1.36115 2.68827,2.46875 3.125,2.46875 1.82561,0 18.875,-16.3992 18.875,-18.15625 0,-3.14056 -6.07873,-8.85598 -10.5,-9.875 -4.77808,-1.10126 -12.10832,-1.62414 -19.84375,-1.65625 z m -81.0625,1.125 c -0.0909,-0.0848 -0.67483,0.46368 -1.53125,1.4375 -2.79105,3.17363 -2.70001,8.5375 0.1875,12.0625 2.87259,3.50679 3.34345,1.84678 1.78125,-6.09375 -0.63461,-3.22565 -0.87699,-6.41212 -0.53125,-7.09375 0.0864,-0.17041 0.12404,-0.28424 0.0937,-0.3125 z m 113.15625,0.28125 2.59375,3.90625 c 1.42468,2.15284 2.95661,5.49025 3.375,7.40625 0.75617,3.46291 0.75665,3.4475 1.09375,0.59375 0.53781,-4.55302 -0.59181,-7.30516 -3.9375,-9.6875 l -3.125,-2.21875 z m -2.875,28.375 c -0.18953,0.0359 -0.65288,0.2931 -1.40625,0.6875 -1.10615,0.57908 -2.90615,2.05027 -4,3.28125 -1.98661,2.23567 -1.97773,2.23923 0.0312,1.1875 1.10615,-0.57908 2.90615,-2.05027 4,-3.28125 1.24163,-1.39729 1.69088,-1.93489 1.375,-1.875 z M 688.1875,452.21875 c -0.54375,0.007 -1.03649,0.0818 -1.375,0.21875 -0.67703,0.27393 0.13125,0.48915 1.78125,0.46875 1.65,-0.0204 2.19172,-0.24646 1.21875,-0.5 -0.48648,-0.12674 -1.08125,-0.19422 -1.625,-0.1875 z m 80.90625,52.375 -2.78125,3.1875 c -2.5642,2.94101 -3.38774,3.25804 -10.75,3.84375 -4.38864,0.34914 -10.33493,1.07655 -13.21875,1.625 -6.63543,1.26195 -9.08997,0.45921 -10.8125,-3.5 l -1.375,-3.15625 -0.0312,4.8125 c -0.0309,3.79003 0.46633,5.31009 2.40625,7.25 3.82676,3.82677 9.88792,3.42068 13.96875,-0.90625 2.62279,-2.78097 4.07687,-3.42394 8.75,-3.90625 7.03415,-0.72598 11.10992,-2.77544 12.65625,-6.40625 l 1.1875,-2.84375 z"
           id="path3246"
           inkscape:connector-curvature="0" />
      </g>
      <g
         id="g3588"
         style="display:inline">
        <path
           style="fill:#151415;display:inline"
           d="m 673.4375,415.125 c -17.12668,-0.0201 -33.39946,6.23971 -45.21875,17.40625 -6.27838,5.93164 -9.06927,10.49486 -12.25,20.0625 -3.33451,10.03008 -3.36202,26.18074 -0.0625,35.75 2.92061,8.47035 9.72005,17.84223 15.375,21.15625 7.12871,4.1777 21.09147,7.81088 34.3125,8.9375 17.26423,1.47115 32.10387,-1.85388 38.96875,-8.71875 3.2808,-3.2808 3.19123,-6.1711 -0.40625,-11.84375 -4.01028,-6.32354 -6.80907,-7.89208 -15.84375,-8.84375 -8.94638,-0.94236 -16.08987,-2.99444 -21.625,-6.1875 -6.68327,-3.8554 -7.75585,-8.02455 -1.5,-5.84375 7.08424,2.46958 30.70865,0.3209 37.90625,-3.4375 4.75728,-2.48412 13.82595,-11.48391 15.90625,-15.78125 2.77308,-5.72841 2.82958,-16.4486 0.125,-22.40625 -1.49225,-3.28713 -3.5148,-5.24457 -9.21875,-8.90625 -13.8575,-8.8959 -21.73163,-11.32655 -36.46875,-11.34375 z m 0.28125,6 c 3.59901,0.0353 7.24909,0.38644 10.90625,1.0625 7.74571,1.43187 10.72964,3.08207 17.6875,9.71875 l 5.78125,5.5 0,7.78125 c 0,4.28047 -0.47975,9.04545 -1.0625,10.59375 -1.38856,3.68929 -7.19304,9.65554 -13.5,13.875 -5.00938,3.35133 -5.15358,3.382 -16.5,3.375 -16.39648,-0.01 -15.8824,0.0224 -22.625,-1.09375 -11.28244,-1.8676 -12.84021,0.56689 -6.4375,9.96875 4.68969,6.88642 6.12715,8.21355 12.78125,11.65625 4.34213,2.24653 7.2951,2.84662 18.5,3.75 11.06413,0.89204 13.72665,1.40257 15.59375,3.09375 3.32884,3.0152 2.77707,4.56835 -2.4375,6.875 -3.57197,1.58005 -7.19732,2.15694 -15.25,2.375 -10.80073,0.29247 -12.8944,0.12099 -21.53125,-1.625 -18.49387,-3.73863 -24.94287,-7.97218 -30.625,-20.15625 -3.28011,-7.03346 -3.39545,-7.681 -3.40625,-19.78125 -0.0144,-16.17054 1.96355,-21.66882 10.90625,-30.53125 10.92184,-10.82381 25.62303,-16.59028 41.21875,-16.4375 z m 4.1875,12.625 c -0.72909,-9.4e-4 -1.52711,0.0145 -2.40625,0.0312 -4.8907,0.093 -9.63203,0.79208 -12,1.78125 -10.28546,4.29654 -17.15525,17.78877 -11.1875,21.96875 1.73959,1.21846 5.05315,1.5782 15.25,1.5625 15.616,-0.0241 25.05229,-1.26548 27.625,-3.59375 2.42422,-2.19389 2.6107,-10.90636 0.3125,-14.1875 -0.86329,-1.23252 -3.90079,-3.47406 -6.75,-4.96875 -3.94295,-2.06846 -5.74009,-2.5872 -10.84375,-2.59375 z m 8.78125,7.875 c 1.50137,-0.03 2.70885,0.11004 3.4375,0.5 2.64583,1.416 3.66893,7.67481 1.59375,9.75 -2.34361,2.3436 -24.2384,3.07928 -27.125,0.90625 -1.98509,-1.49437 -2.00078,-1.53357 0.375,-4.0625 3.13458,-3.33664 15.21282,-6.96362 21.71875,-7.09375 z m 25.1875,29.9375 c -0.38086,-8e-4 -1.25,0.56244 -2.28125,1.53125 -1.375,1.29175 -2.5,2.79375 -2.5,3.34375 0,0.55 1.125,-0.052 2.5,-1.34375 1.375,-1.29175 2.5,-2.79375 2.5,-3.34375 0,-0.1375 -0.0918,-0.18723 -0.21875,-0.1875 z"
           id="path3343"
           inkscape:connector-curvature="0" />
        <path
           style="fill:#0000ff;fill-opacity:1;display:inline"
           d="m 673.75,412.65625 c -15.38545,0.1382 -19.80513,1.14171 -31.375,5.625 -5.14523,1.99377 -11.61465,7.83495 -14.34375,12.9375 -1.12961,2.11202 -0.87234,2.01397 2.3125,-0.78125 10.8112,-9.48859 27.26819,-15.331 43.09375,-15.3125 14.73712,0.0172 22.61125,2.44785 36.46875,11.34375 8.98362,5.76708 11.12315,9.62715 11.15625,20.0625 0.0283,8.94917 -2.3399,13.95063 -9.8125,20.65625 -7.27315,6.52665 -8.96298,7.35354 -19.0625,9.40625 -8.38246,1.70377 -23.76738,1.71928 -28.84375,0.0312 -2.73705,-0.91015 -3.03918,0.95408 -0.59375,3.65625 2.01018,2.22123 2.44745,2.2929 1.6875,0.3125 -0.77338,-2.01538 6.14772,-2.01538 13.65625,0 3.025,0.81194 7.03693,1.493 8.9375,1.5 2.80254,0.01 12.33929,-3.58564 21.03125,-7.9375 1.44979,-0.72588 5.62351,-6.00979 10.34375,-13.0625 2.84786,-4.2551 6.6875,-15.29418 6.6875,-19.28125 0,-4.5235 -7.16983,-18.80903 -11.09375,-22.125 -7.52026,-6.35501 -10.35063,-6.96735 -32.90625,-7.03125 -2.69709,-0.008 -5.14583,-0.0197 -7.34375,0 z m -0.0312,8.46875 c -15.59572,-0.15278 -30.29691,5.61369 -41.21875,16.4375 -8.9427,8.86243 -10.92065,14.36071 -10.90625,30.53125 0.0108,12.10025 0.12614,12.74779 3.40625,19.78125 4.50909,9.66874 9.5608,14.2591 18.6875,17.03125 6.76979,2.05626 13.71657,3.67185 19.90625,4.59375 1.65,0.24577 7.75227,0.31358 13.5625,0.15625 8.05268,-0.21806 11.67803,-0.79495 15.25,-2.375 5.21457,-2.30665 5.76634,-3.8598 2.4375,-6.875 -1.8671,-1.69118 -4.52962,-2.20171 -15.59375,-3.09375 -11.2049,-0.90338 -14.15787,-1.50347 -18.5,-3.75 -6.6541,-3.4427 -8.09156,-4.76983 -12.78125,-11.65625 -6.40271,-9.40186 -4.84494,-11.83635 6.4375,-9.96875 6.7426,1.11611 6.22852,1.08375 22.625,1.09375 11.34642,0.007 11.49062,-0.0237 16.5,-3.375 6.30696,-4.21946 12.11144,-10.18571 13.5,-13.875 0.58275,-1.5483 1.0625,-6.31328 1.0625,-10.59375 l 0,-7.78125 -5.78125,-5.5 c -6.95786,-6.63668 -9.94179,-8.28688 -17.6875,-9.71875 -3.65716,-0.67606 -7.30724,-1.02724 -10.90625,-1.0625 z m 4.1875,12.625 c 5.10366,0.007 6.9008,0.52528 10.84375,2.59375 6.67785,3.50319 8.34375,5.92526 8.34375,12.3125 0,6.57555 -1.82342,8.29526 -10.15625,9.5 -3.49443,0.50521 -12.20988,0.9264 -19.375,0.9375 -10.19685,0.0157 -13.51041,-0.34404 -15.25,-1.5625 -5.96775,-4.17998 0.90204,-17.67221 11.1875,-21.96875 2.36797,-0.98917 7.1093,-1.68825 12,-1.78125 0.87914,-0.0167 1.67716,-0.0322 2.40625,-0.0312 z m 9.34375,7.40625 c -0.36915,0.0187 -0.70475,0.14226 -0.9375,0.375 -0.33346,0.33346 0.93267,2.18551 2.8125,4.125 3.60654,3.72101 4.64996,3.445 3.03125,-0.8125 -0.76571,-2.01398 -3.30661,-3.76859 -4.90625,-3.6875 z m -21.78125,9.4375 c -2.80335,-0.045 -3.15707,0.96271 -0.625,2.4375 2.17863,1.26894 21.25,1.40823 21.25,0.15625 0,-0.50307 -3.4875,-1.19726 -7.75,-1.53125 -4.2625,-0.33399 -9.4375,-0.75814 -11.5,-0.96875 -0.49795,-0.0509 -0.97452,-0.0873 -1.375,-0.0937 z m 1,31.75 c -0.0959,0.10061 0.6061,0.54133 2.125,1.40625 1.65,0.93957 4.8,2.27501 7,2.96875 4.1341,1.30362 6.5,1.65676 6.5,1 0,-0.4486 -10.41815,-4.2381 -14,-5.09375 -0.98448,-0.23518 -1.55038,-0.3595 -1.625,-0.28125 z M 617.0938,493.75 c -0.0146,0.006 -1.9e-4,0.003 0,0.0312 0.0234,3.4152 2.95439,9.84311 7,15.3125 6.59281,8.91301 8.94234,10.93247 14.0625,11.9375 8.23947,1.61731 22.01619,1.12754 26.9375,-0.9375 l 4.5,-1.875 L 665,518.1562 c -10.85759,-0.13285 -27.71297,-4.69685 -34.6875,-9.40625 -2.59631,-1.75311 -6.53354,-5.9371 -8.9375,-9.46875 -2.21613,-3.25571 -4.06286,-5.61556 -4.28125,-5.53125 z"
           id="path3189"
           inkscape:connector-curvature="0" />
      </g>
      <g
         id="g3583"
         style="display:inline">
        <path
           style="fill:#151415;display:inline"
           d="m 563.65625,359.25 c -6.87757,0.20987 -25.03206,6.23066 -27.125,9.21875 -1.70302,2.43141 -1.96273,13.38079 -0.4375,18.625 1.99043,6.8437 4.08942,45.04174 3.8125,69.4375 -0.27966,24.63744 0.64615,46.21138 2.28125,52.75 0.6657,2.66209 1.67572,3.93249 3.65625,4.65625 4.3612,1.59374 10.42705,1.3037 19.90625,-0.9375 9.20646,-2.17672 11.8705,-3.71798 13.59375,-7.90625 1.25147,-3.04164 1.04996,-38.93336 -0.28125,-50.90625 -0.51471,-4.62938 -1.80858,-11.15438 -2.875,-14.5 -1.06642,-3.34563 -2.16248,-8.03517 -2.4375,-10.40625 -0.43283,-3.73174 -0.21612,-4.43005 1.65625,-5.1875 2.34958,-0.9505 29.64961,-5.51298 38.84375,-6.5 3.12401,-0.33537 6.12604,-1.15977 6.65625,-1.8125 0.53578,-0.65958 0.86357,-7.12927 0.75,-14.5625 -0.18179,-11.89812 -0.41676,-13.53216 -2.125,-14.78125 -1.05613,-0.77226 -3.0518,-1.17324 -4.4375,-0.90625 -1.3857,0.26699 -6.1,0.77656 -10.5,1.125 -6.96511,0.55156 -19.70045,2.23543 -30.25,4 l -3.25,0.53125 L 571,381.90625 c -0.0384,-5.23562 -0.80273,-12.15135 -1.75,-15.8125 -1.50777,-5.82747 -1.94323,-6.53206 -4.375,-6.8125 -0.35018,-0.0404 -0.76025,-0.0452 -1.21875,-0.0312 z m -1.59375,3.84375 c 1.83053,0 2.08619,0.43612 1.65625,2.75 -3.37251,18.1507 -3.33352,27.01022 0.0937,30.4375 1.72684,1.72684 2.16598,1.74451 5.3125,0.4375 4.19945,-1.74438 36.86436,-5.16469 37.875,-3.96875 1.23766,1.46458 3.26763,13.59228 2.40625,14.375 -0.4492,0.40817 -5.3125,1.50293 -10.8125,2.4375 -16.29746,2.76929 -24.51217,4.52964 -28.03125,6 -3.63575,1.51912 -6.02679,4.88433 -4.8125,6.8125 0.42581,0.67613 0.80925,5.49375 0.84375,10.71875 0.0345,5.225 0.63345,13.68786 1.34375,18.8125 0.7103,5.12463 1.37635,19.26217 1.46875,31.40625 l 0.1875,22.09375 -5,1.6875 c -2.75,0.93707 -7.10961,2.02103 -9.6875,2.40625 -4.23127,0.63229 -4.81699,0.48423 -5.9375,-1.59375 -0.91665,-1.69991 -1.31714,-12.77247 -1.5,-42.3125 -0.20849,-33.68083 -0.579,-42.595 -2.34375,-56.4375 -1.15271,-9.04179 -2.74946,-18.9874 -3.5625,-22.125 -0.81303,-3.13759 -1.46875,-8.43738 -1.46875,-11.75 l 0,-6 4.25,-1.53125 c 6.47392,-2.3284 15.28786,-4.65625 17.71875,-4.65625 z m 67.125,34.125 c -0.29324,-0.041 -0.59357,0.0311 -0.8125,0.25 -0.3063,0.30635 -0.26319,1.24503 0.0625,2.09375 0.74736,1.94761 2.65625,2.0126 2.65625,0.0937 0,-1.19447 -1.02652,-2.31453 -1.90625,-2.4375 z m -67.59375,120.875 c -2.59763,0 -9.51108,3.19693 -8.9375,4.125 0.76989,1.24571 1.79457,1.12648 6.40625,-0.71875 4.00889,-1.60404 5.33857,-3.40625 2.53125,-3.40625 z"
           id="path3347"
           inkscape:connector-curvature="0" />
        <path
           style="fill:#ffff00;fill-opacity:1;display:inline"
           d="m 551.59375,361.28125 c -1.1,-0.0162 -2.9,0.33981 -4,0.8125 -2.54822,1.09501 0.0808,1.09501 3.5,0 2.00973,-0.64363 2.10779,-0.7889 0.5,-0.8125 z m 10.46875,1.8125 c -2.43089,0 -11.24483,2.32785 -17.71875,4.65625 l -4.25,1.53125 0,6 c 0,3.31262 0.65572,8.61241 1.46875,11.75 0.81304,3.1376 2.40979,13.08321 3.5625,22.125 1.76475,13.8425 2.13526,22.75667 2.34375,56.4375 0.18286,29.54003 0.58335,40.61259 1.5,42.3125 1.12051,2.07798 1.70623,2.22604 5.9375,1.59375 2.57789,-0.38522 6.9375,-1.46918 9.6875,-2.40625 l 5,-1.6875 -0.1875,-22.09375 c -0.0924,-12.14408 -0.75845,-26.28162 -1.46875,-31.40625 -0.7103,-5.12464 -1.30925,-13.5875 -1.34375,-18.8125 -0.0345,-5.225 -0.41794,-10.04262 -0.84375,-10.71875 -1.21429,-1.92817 1.17675,-5.29338 4.8125,-6.8125 3.51908,-1.47036 11.73379,-3.23071 28.03125,-6 5.5,-0.93457 10.3633,-2.02933 10.8125,-2.4375 0.86138,-0.78272 -1.16859,-12.91042 -2.40625,-14.375 -1.01064,-1.19594 -33.67555,2.22437 -37.875,3.96875 -3.14652,1.30701 -3.58566,1.28934 -5.3125,-0.4375 -3.42726,-3.42728 -3.46625,-12.2868 -0.0937,-30.4375 0.42994,-2.31388 0.17428,-2.75 -1.65625,-2.75 z m 40.03125,23.125 c -0.63438,0 -1.26875,0.0617 -1.75,0.1875 -0.9625,0.25153 -0.175,0.46875 1.75,0.46875 1.925,0 2.7125,-0.21722 1.75,-0.46875 -0.48125,-0.12576 -1.11562,-0.1875 -1.75,-0.1875 z m -7.5,1.1875 -11.75,0.0937 c -10.50252,0.0903 -11.741,0.29893 -11.75,1.875 -0.0105,1.92221 -0.8232,1.94425 15.5,-0.6875 l 8,-1.28125 z m -55.84375,30.1875 -0.90625,5 c -0.62877,3.50095 -0.49321,6.3339 0.40625,9.5 1.70067,5.98639 2.27448,2.88827 1.28125,-6.90625 L 538.75,417.59375 z m 0.5625,64.3125 c -0.0577,0.0539 -0.0785,0.275 -0.0937,0.6875 -0.061,1.65 0.16888,4.80526 0.53125,7 1.03082,6.24329 1.41688,2.71128 0.4375,-4 -0.36118,-2.475 -0.70183,-3.84922 -0.875,-3.6875 z"
           id="path3525"
           inkscape:connector-curvature="0" />
      </g>
      <g
         id="g3568"
         style="display:inline">
        <path
           style="fill:#151415;display:inline"
           d="m 477.09375,348.65625 c -2.34889,0.0694 -4.82948,2.13921 -10.9375,7.875 -3.614,3.39376 -10.01323,8.50627 -14.21875,11.34375 -8.08381,5.45418 -11.84375,9.36153 -11.84375,12.28125 0,0.98376 2.24058,3.3789 5.0625,5.40625 5.59356,4.01857 18.67917,10.53125 21.15625,10.53125 0.86474,0 4.13936,-3.825 7.25,-8.5 3.11063,-4.675 6.23309,-8.5 6.96875,-8.5 1.29602,0 8.27476,7.58619 14,15.25 1.54078,2.0625 3.61827,3.75 4.625,3.75 1.00673,0 3.07768,-1.6875 4.59375,-3.75 1.51607,-2.0625 4.66806,-6.06704 7.03125,-8.90625 2.36319,-2.8392 4.07617,-5.7642 3.78125,-6.5 -0.29493,-0.73579 -2.39036,-2.69375 -4.65625,-4.34375 -2.26588,-1.65 -9.03638,-7.56746 -15.03125,-13.15625 -5.99486,-5.58878 -12.45455,-10.88477 -14.34375,-11.78125 -1.34138,-0.63653 -2.36982,-1.03153 -3.4375,-1 z m 0.84375,4.4375 c 1.24032,0 6.31007,4.11809 12.84375,10.40625 5.93471,5.71169 12.35113,11.73015 14.25,13.375 l 3.46875,2.96875 -3.9375,5.125 c -2.14939,2.81846 -4.39763,5.125 -5.03125,5.125 -0.63362,0 -4.43244,-3.59908 -8.40625,-8 -3.97381,-4.40093 -8.32215,-8.28232 -9.6875,-8.625 -2.97363,-0.74633 -6.80296,2.52405 -11.5,9.84375 -1.68476,2.62548 -3.64325,4.78125 -4.34375,4.78125 -3.90306,0 -18.5,-8.25999 -18.5,-10.46875 0,-0.69897 3.2625,-3.53702 7.25,-6.3125 3.9875,-2.77547 10.46756,-8.00678 14.40625,-11.625 3.9548,-3.63303 8.05628,-6.59375 9.1875,-6.59375 z m 37.15625,36.0625 c -1.04604,0.12029 -3.68347,1.96016 -6.96875,5.375 -3.06888,3.18992 -3.19586,3.5625 -1.34375,3.5625 1.16502,0 3.68072,-1.80331 5.75,-4.09375 3.0619,-3.38915 3.60854,-4.96404 2.5625,-4.84375 z M 452.75,407.25 c -0.29059,-0.002 -0.60494,0.002 -0.90625,0.0312 -3.20404,0.30832 -3.39844,0.63007 -8.90625,13.875 -6.14017,14.7656 -9.4784,26.57 -10.78125,38.1875 -1.01855,9.08243 1.00661,33.61101 3.1875,38.8125 5.58042,13.30946 13.9049,19.32081 32.375,23.3125 3.76541,0.81377 8.9,1.2647 11.375,1 15.15352,-1.62062 27.48303,-4.6059 35.5,-8.59375 5.05187,-2.51293 14.08799,-11.19232 16.4375,-15.78125 2.10077,-4.10312 4.06205,-14.57357 4.03125,-21.5625 -0.0468,-10.638 -5.93155,-30.37529 -12.34375,-41.375 -1.78345,-3.05938 -4.64985,-8.57608 -6.375,-12.28125 -4.04026,-8.67748 -7.10285,-11.78125 -11.65625,-11.78125 -1.91754,0 -3.7583,0.45723 -4.09375,1 -0.33545,0.54277 -3.01782,1.67339 -5.96875,2.53125 -2.95094,0.85786 -5.93034,2.23188 -6.59375,3.03125 -0.66342,0.79936 -2.14235,1.46075 -3.3125,1.46875 -4.30107,0.031 -4.93749,1.32923 -4.71875,9.59375 0.19129,7.22708 0.53307,8.42524 4.875,16.34375 2.57782,4.70126 5.93065,11.42974 7.4375,14.96875 1.50685,3.53901 3.19151,6.91026 3.75,7.46875 1.79704,1.79704 1.11679,8.16534 -1.25,11.71875 -2.97727,4.46997 -9.0521,7.5081 -12.15625,6.09375 -3.90246,-1.77808 -8.36322,-9.76741 -10.0625,-18.0625 -0.86157,-4.2058 -2.04197,-9.90625 -2.625,-12.65625 -1.75995,-8.30114 -2.24547,-24.5747 -0.96875,-31.9062 1.3062,-7.50074 0.57234,-9.59375 -3.34375,-9.59375 -1.19931,0 -4.05112,-1.37648 -6.34375,-3.0625 -2.68159,-1.97206 -4.52835,-2.76645 -6.5625,-2.78125 z m 0.21875,4.75 c 0.79289,-0.0253 2.80356,1.23738 4.84375,3.0625 l 4.25,3.78125 -1.46875,4.875 c -2.58079,8.50687 -1.30013,40.54301 2.09375,52.3125 2.71739,9.42353 10.50058,18.61809 17.8125,21.03125 2.93865,0.96984 4.46439,0.9239 8.375,-0.375 5.49232,-1.82425 11.61341,-6.54958 13.65625,-10.5 1.68204,-3.25269 0.69479,-13.98713 -1.71875,-18.65625 -0.83338,-1.61221 -2.54367,-6.3125 -3.78125,-10.4375 -1.23758,-4.125 -3.97402,-10.96846 -6.09375,-15.21875 -2.92353,-5.86201 -3.84375,-8.93646 -3.84375,-12.71875 0,-4.63785 0.24732,-5.17235 3.71875,-7.53125 2.05268,-1.39483 4.19018,-2.505 4.75,-2.5 0.55983,0.005 2.51721,3.26791 4.34375,7.25 1.82654,3.98209 5.47166,11.04375 8.125,15.71875 2.65335,4.675 6.73992,14.125 9.0625,21 3.74702,11.09145 4.2335,13.53578 4.25,21.75 0.018,8.9628 -0.0952,9.43409 -3.5625,14.65625 -3.94483,5.94134 -9.17151,9.06643 -20.1875,12.03125 -3.3,0.88815 -10.5,1.86525 -16,2.15625 -8.8997,0.47088 -10.75773,0.24154 -16.75,-1.9375 -10.51351,-3.82315 -15.33141,-7.33972 -18.6875,-13.65625 -1.60724,-3.025 -3.19769,-7.3 -3.5625,-9.5 -0.36481,-2.2 -1.58103,-8.60187 -2.6875,-14.21875 -1.94689,-9.88314 -1.94162,-10.56039 -0.3125,-21 2.10584,-13.49449 9.97825,-38.25724 13.125,-41.28125 0.0599,-0.0575 0.13673,-0.0901 0.25,-0.0937 z"
           id="path3351"
           inkscape:connector-curvature="0" />
        <g
           id="g3116">
          <path
             id="path3101"
             d="m 481.80574,524.39849 c -5.32029,-0.45553 -5.52426,-2.29722 -0.25442,-2.29722 3.09372,0 16.03172,-2.18866 20.93131,-3.54085 1.66985,-0.46084 1.43162,0.0451 -1.16814,2.48097 -2.06868,1.93826 -4.31384,3.05988 -6.125,3.05988 -1.57257,0 -4.15297,0.15885 -5.73422,0.35301 -1.58125,0.19416 -5.02354,0.16905 -7.64953,-0.0558 z"
             style="fill:#ff0000;fill-opacity:1;display:inline"
             inkscape:connector-curvature="0" />
          <path
             id="path3099"
             d="m 464.84715,511.75472 c -10.51351,-3.82315 -15.31983,-7.33692 -18.67592,-13.65345 -1.60724,-3.025 -3.22073,-7.3 -3.58554,-9.5 -0.36481,-2.2 -1.56858,-8.59562 -2.67505,-14.2125 -1.94689,-9.88314 -1.95748,-10.56039 -0.32836,-21 2.10584,-13.49449 9.98042,-38.25871 13.12717,-41.28272 0.47895,-0.46026 2.77853,0.86976 5.11018,2.95561 l 4.23936,3.79246 -1.47854,4.87358 c -2.58079,8.50687 -1.29605,40.5453 2.09783,52.31479 2.71739,9.42353 10.50855,18.61872 17.82047,21.03188 2.93865,0.96984 4.45684,0.8969 8.36745,-0.402 5.49232,-1.82425 11.61886,-6.51942 13.6617,-10.46984 1.68204,-3.25269 0.68954,-14.00085 -1.724,-18.66997 -0.83338,-1.61221 -2.5278,-6.30629 -3.76538,-10.43129 -1.23758,-4.125 -3.98447,-10.97751 -6.1042,-15.2278 -2.92353,-5.86201 -3.85405,-8.93166 -3.85405,-12.71395 0,-4.63785 0.2607,-5.1633 3.73213,-7.5222 2.05268,-1.39483 4.19018,-2.53162 4.75,-2.52621 0.55983,0.005 2.51231,3.26791 4.33885,7.25 1.82654,3.98209 5.4919,11.06516 8.14524,15.74016 2.65335,4.675 6.72456,14.125 9.04714,21 3.74702,11.09145 4.22497,13.54316 4.24144,21.75738 0.018,8.9628 -0.0954,9.42901 -3.56271,14.65117 -2.73464,4.11865 -4.83551,5.98619 -8.88668,7.89964 -8.03292,3.79412 -16.25185,5.67977 -27.30541,6.26461 -8.8997,0.47088 -10.74085,0.25969 -16.73312,-1.91935 z"
             style="fill:#ff0000;fill-opacity:1;display:inline"
             inkscape:connector-curvature="0" />
          <path
             id="path3097"
             d="m 431.27522,471.60127 c -0.0204,-1.65 0.18706,-2.44606 0.46099,-1.76903 0.27392,0.67703 0.29059,2.02703 0.0371,3 -0.25354,0.97297 -0.47766,0.41903 -0.49804,-1.23097 z"
             style="fill:#ff0000;fill-opacity:1;display:inline"
             inkscape:connector-curvature="0" />
          <path
             id="path3095"
             d="m 495.18895,469.52565 c -2.37176,-6.68978 -2.38692,-7.02626 -0.16046,-3.5604 1.18856,1.85018 2.02393,4.29115 1.8564,5.42437 -0.22819,1.54342 -0.65372,1.07572 -1.69594,-1.86397 z"
             style="fill:#ff0000;fill-opacity:1;display:inline"
             inkscape:connector-curvature="0" />
          <path
             id="path3093"
             d="m 431.29395,460.10127 c -0.033,-3.025 0.56277,-7.3 1.3239,-9.5 1.35366,-3.91268 1.37043,-3.9236 0.76803,-0.5 -0.33872,1.925 -0.93447,6.2 -1.3239,9.5 l -0.70806,6 -0.06,-5.5 z"
             style="fill:#ff0000;fill-opacity:1;display:inline"
             inkscape:connector-curvature="0" />
          <path
             id="path3091"
             d="m 478.67846,431.85784 c -0.45007,-2.05888 -0.45166,-4.98388 -0.004,-6.5 l 0.81476,-2.75657 0.35866,3.25 c 0.19726,1.7875 0.19886,4.7125 0.004,6.5 l -0.35511,3.25 -0.81831,-3.74343 z"
             style="fill:#ff0000;fill-opacity:1;display:inline"
             inkscape:connector-curvature="0" />
          <path
             id="path3089"
             d="m 485.08027,418.10127 c 1.95837,-1.2656 3.28218,-1.2656 2.5,0 -0.33992,0.55 -1.37898,0.99311 -2.30902,0.98469 -1.45727,-0.0132 -1.48367,-0.14929 -0.19098,-0.98469 z"
             style="fill:#ff0000;fill-opacity:1;display:inline"
             inkscape:connector-curvature="0" />
          <path
             id="path3087"
             d="m 491.14013,382.09959 c -3.97381,-4.40093 -8.34221,-8.28207 -9.70756,-8.62475 -2.97363,-0.74633 -6.80055,2.53314 -11.49759,9.85284 -1.68476,2.62548 -3.63633,4.77359 -4.33683,4.77359 -3.90306,0 -18.51788,-8.27059 -18.51788,-10.47935 0,-0.69897 3.2625,-3.54169 7.25,-6.31717 3.9875,-2.77547 10.47256,-8.00667 14.41125,-11.62489 3.9548,-3.63303 8.07841,-6.57859 9.20963,-6.57859 1.24032,0 6.30507,4.09672 12.83875,10.38488 5.93471,5.71169 12.34399,11.73067 14.24286,13.37552 l 3.45249,2.99064 -3.90797,5.12448 c -2.14939,2.81846 -4.42639,5.12448 -5.06001,5.12448 -0.63362,0 -4.40333,-3.60076 -8.37714,-8.00168 z"
             style="fill:#ff0000;fill-opacity:1;display:inline"
             inkscape:connector-curvature="0" />
          <path
             id="path3085"
             d="m 444.83027,386.5293 c -1.5125,-0.82055 -2.75,-1.70253 -2.75,-1.95997 0,-0.96593 1.5805,-0.36062 4,1.53194 2.97187,2.32463 2.52686,2.47701 -1.25,0.42803 z"
             style="fill:#ff0000;fill-opacity:1;display:inline"
             inkscape:connector-curvature="0" />
          <path
             id="path3083"
             d="m 478.84872,379.93282 c 0.5811,-0.5811 1.64682,-0.85979 2.36826,-0.61931 0.74895,0.24965 0.29565,0.70294 -1.05655,1.05655 -1.66335,0.43497 -2.05378,0.30483 -1.31171,-0.43724 z"
             style="fill:#ff0000;fill-opacity:1;display:inline"
             inkscape:connector-curvature="0" />
        </g>
      </g>
      <g
         id="g3563"
         style="display:inline">
        <path
           style="fill:#151415;display:inline"
           d="m 362.4375,406.96875 c -2.79809,-0.005 -5.83123,0.25449 -9.4375,0.71875 -11.52284,1.48343 -19.40826,4.33743 -25.78125,9.375 -8.0223,6.34126 -10.72704,10.46362 -14.1875,21.4375 -1.7516,5.55469 -4.6053,14.36875 -6.3125,19.59375 -2.17245,6.64891 -3.08875,11.45075 -3.09375,16 -0.008,7.97165 2.0123,26.14091 3.5,31.375 2.73374,9.61802 17.50431,19.15383 31.96875,20.6875 10.80643,1.14582 42.13367,0.16917 46.71875,-1.46875 4.48454,-1.602 16.10595,-8.71775 22.21875,-13.59375 10.63425,-8.48262 13.58866,-13.10064 17.21875,-27 3.92785,-15.03943 2.7135,-25.15595 -4.8125,-40.21875 -6.35095,-12.71103 -21.38369,-25.03649 -40.0625,-32.8125 -6.84324,-2.84884 -11.7817,-4.08342 -17.9375,-4.09375 z m -12.5625,5.21875 c 1.96649,0.0224 4.49615,0.24486 8.34375,0.625 12.11926,1.19738 12.79774,1.46916 31.875,13.09375 13.8457,8.43676 18.07723,12.86641 22.34375,23.4375 3.24872,8.04929 3.67022,13.31345 1.9375,24.25 -1.41165,8.91007 -5.74356,16.9308 -13.96875,25.875 -3.47562,3.77946 -6.3125,7.20275 -6.3125,7.59375 0,1.68924 -8.87733,7.61847 -15.34375,10.25 -5.83391,2.37412 -8.82975,2.90644 -17.59375,3.21875 -18.15821,0.64706 -26.44393,-0.43774 -35.28125,-4.71875 -11.90892,-5.76896 -12.94727,-7.71949 -15.71875,-29.75 -1.59982,-12.71704 -1.32626,-17.23586 1.46875,-25.21875 1.39251,-3.97717 3.37864,-10.72565 4.4375,-14.96875 3.15476,-12.64194 5.6309,-17.2214 12.6875,-23.6875 4.36917,-4.00355 8.29481,-6.58361 12.5,-8.15625 3.63568,-1.35965 5.34752,-1.88116 8.625,-1.84375 z M 361,435.375 c -1.62028,0.0221 -2.87552,0.7828 -5.84375,2.6875 -5.6634,3.6342 -10.87149,10.8348 -15.5,21.46875 -2.88477,6.62773 -3.06915,7.81461 -3.03125,19.0625 0.0461,13.67975 1.67649,18.49179 7.65625,22.4375 2.87535,1.89732 4.39277,2.10326 11.8125,1.78125 10.08111,-0.4375 18.23851,-3.76345 22.8125,-9.3125 3.7327,-4.52841 9.85333,-16.86928 10.71875,-21.625 0.93749,-5.15166 -2.05464,-16.81379 -5.5625,-21.65625 -4.05238,-5.59414 -13.88886,-12.82181 -19.3125,-14.1875 -1.65802,-0.41749 -2.77783,-0.6695 -3.75,-0.65625 z m 9.53125,5.96875 c 0.54172,0.0246 1.12875,0.25467 1.9375,0.6875 1.3282,0.71083 4.50877,3.43853 7.0625,6.03125 7.52297,7.63782 9.50247,18.42006 5.15625,28.15625 -5.12772,11.48687 -9.76562,15.7791 -20.09375,18.53125 -8.21822,2.18992 -11.71572,1.44079 -15.46875,-3.3125 -2.0601,-2.60916 -2.19275,-3.63491 -1.78125,-12.84375 0.34132,-7.63822 0.96582,-11.17476 2.71875,-14.96875 4.02132,-8.70359 8.13489,-14.52273 11.375,-16.15625 1.73105,-0.87273 4.36917,-2.74753 5.875,-4.15625 1.52818,-1.42963 2.31588,-2.00974 3.21875,-1.96875 z m 36.0625,74.3125 c -1.32818,0.059 -5.0305,2.27108 -6.90625,4.34375 -1.60916,1.7781 -1.67858,2.09375 -0.34375,2.09375 1.79607,0 7.75,-4.67334 7.75,-6.09375 0,-0.24385 -0.1935,-0.35736 -0.5,-0.34375 z"
           id="path3359"
           inkscape:connector-curvature="0" />
        <path
           style="fill:#03ffff;fill-opacity:1;display:inline"
           d="m 349.875,412.1875 c -3.27748,-0.0374 -4.98932,0.4841 -8.625,1.84375 -4.20519,1.57264 -8.13083,4.1527 -12.5,8.15625 -7.0566,6.4661 -9.53274,11.04556 -12.6875,23.6875 -1.05886,4.2431 -3.04499,10.99158 -4.4375,14.96875 -2.79501,7.98289 -3.06857,12.50171 -1.46875,25.21875 2.77148,22.03051 3.80983,23.98104 15.71875,29.75 6.26622,3.0355 9.31484,3.8426 16.21875,4.40625 4.675,0.38166 13.25313,0.51951 19.0625,0.3125 8.764,-0.31231 11.75984,-0.84463 17.59375,-3.21875 6.46642,-2.63153 15.34375,-8.56076 15.34375,-10.25 0,-0.391 2.83688,-3.81429 6.3125,-7.59375 8.22519,-8.9442 12.5571,-16.96493 13.96875,-25.875 1.73272,-10.93655 1.31122,-16.20071 -1.9375,-24.25 -4.26652,-10.57109 -8.49805,-15.00074 -22.34375,-23.4375 -19.07726,-11.62459 -19.75574,-11.89637 -31.875,-13.09375 -3.8476,-0.38014 -6.37726,-0.60255 -8.34375,-0.625 z m -23.90625,4.90625 c -0.275,0 -2.00922,1.575 -3.875,3.5 -1.86578,1.925 -3.18125,3.5 -2.90625,3.5 0.275,0 2.04047,-1.575 3.90625,-3.5 1.86578,-1.925 3.15,-3.5 2.875,-3.5 z M 361,435.375 c 0.97217,-0.0133 2.09198,0.23876 3.75,0.65625 5.42364,1.36569 15.26012,8.59336 19.3125,14.1875 3.50786,4.84246 6.49999,16.50459 5.5625,21.65625 -0.86542,4.75572 -6.98605,17.09659 -10.71875,21.625 -1.573,1.90832 -5.44292,4.71111 -8.59375,6.21875 -8.07418,3.86341 -21.16037,4.52652 -26.03125,1.3125 -5.97976,-3.94571 -7.61015,-8.75775 -7.65625,-22.4375 -0.0379,-11.24789 0.14648,-12.43477 3.03125,-19.0625 4.62851,-10.63395 9.8366,-17.83455 15.5,-21.46875 2.96822,-1.9047 4.22347,-2.66542 5.84375,-2.6875 z m 9.15625,5.90625 c -0.59161,0.0623 -1.10367,0.43954 -1.84375,1.1875 -1.58195,1.5988 -1.61126,1.67841 -0.0625,1.09375 1.59126,-0.60069 12.79838,6.08135 14.3125,8.53125 0.34157,0.55267 0.92188,1 1.28125,1 1.13956,0 -8.83609,-9.70372 -11.375,-11.0625 -1.04627,-0.55995 -1.72089,-0.81227 -2.3125,-0.75 z m -60.4375,70.3125 2.40625,3.3125 c 2.69964,3.69278 6.81005,6.50432 12.59375,8.625 6.40086,2.34697 6.25304,1.60607 -0.28125,-1.40625 -3.37876,-1.55761 -8.07572,-4.57337 -10.4375,-6.6875 l -4.28125,-3.84375 z m 64.875,14.34375 -4.90625,0.59375 c -2.68927,0.31844 -7.86427,0.60665 -11.5,0.65625 -6.08031,0.0829 -6.3234,0.18454 -3.15625,1.09375 1.89381,0.54367 4.35268,1.62452 5.46875,2.40625 3.31679,2.32317 7.22654,1.7246 10.8125,-1.65625 l 3.28125,-3.09375 z m -31.5,0.28125 c -0.63437,0 -1.26875,0.0617 -1.75,0.1875 -0.9625,0.25153 -0.175,0.46875 1.75,0.46875 1.925,0 2.7125,-0.21722 1.75,-0.46875 -0.48125,-0.12576 -1.11563,-0.1875 -1.75,-0.1875 z"
           id="path3258"
           inkscape:connector-curvature="0" />
      </g>
      <g
         id="g3558">
        <path
           style="fill:#151415;display:inline"
           d="m 281.25,409.3125 c -1.66997,0.0585 -4.02562,0.26843 -7.40625,0.625 -5.71859,0.60316 -12.17933,1.66824 -14.34375,2.375 -3.89939,1.27329 -3.92631,1.33604 -4.21875,6.875 -0.21626,4.09594 0.11783,5.93539 1.25,6.875 2.15548,1.7889 4.35268,-0.18222 4.75,-4.28125 0.29442,-3.03753 0.6167,-3.24272 7.3125,-4.9375 3.85,-0.97449 8.35,-1.64949 10,-1.5 2.93013,0.26545 3.00017,0.40138 3.5625,6.75 0.31666,3.575 0.16131,11.45 -0.34375,17.5 -1.06099,12.70939 -0.76225,17.9322 2.71875,48.34375 1.40522,12.27667 2.57455,24.42667 2.59375,27 0.0192,2.57334 0.7028,8.25625 1.53125,12.65625 4.97494,26.42271 5.52999,43.63242 1.90625,58.96875 -4.90383,20.75385 -9.7908,28.91685 -20.15625,33.65625 -8.9562,4.09504 -12.47154,4.38107 -23.75,1.9375 -7.39083,-1.60129 -12.06077,-3.36448 -18.9375,-7.15625 -9.32785,-5.14331 -13.625,-8.41056 -13.625,-10.34375 0,-0.5975 2.00045,-4.10196 4.46875,-7.78125 l 4.5,-6.6875 5.3125,2.4375 c 11.08404,5.07444 26.2804,6.44853 37.875,3.40625 4.60541,-1.20841 11.99588,-9.14568 13.65625,-14.6875 1.44756,-4.83168 1.48375,-28.96835 0.0625,-35.25 -0.55998,-2.475 -1.30893,-8.14037 -1.6875,-12.59375 -0.6789,-7.98642 -2.12499,-11.40625 -4.8125,-11.40625 -0.75533,0 -4.86018,1.64 -9.125,3.625 -11.37738,5.29544 -23.96708,7.14442 -37.84375,5.59375 -12.65632,-1.41431 -18.19781,-3.98487 -25.4375,-11.90625 -8.64148,-9.45516 -12.93355,-21.86656 -12.96875,-37.5 -0.0217,-9.60867 1.25454,-15.80913 5.6875,-27.46875 5.43916,-14.30609 14.95515,-23.80929 28.375,-28.375 5.63135,-1.91589 7.87622,-2.11437 18.1875,-1.65625 6.4625,0.28713 11.75,0.32499 11.75,0.0937 0,-0.23124 -1.4625,-1.31639 -3.25,-2.40625 -4.8884,-2.98052 -19.90773,-2.79054 -28.875,0.375 -12.444,4.39285 -22.95928,13.7221 -28.34375,25.125 -7.9862,16.91273 -8.93445,20.76864 -8.90625,35.5 0.0416,21.74181 3.81913,32.32142 15.5625,43.59375 10.63674,10.2101 18.49089,12.84855 38.3125,12.78125 11.91506,-0.0404 13.77279,-0.31014 22.3125,-3.21875 5.12452,-1.7454 9.73702,-2.91079 10.25,-2.59375 0.51298,0.31704 0.9375,1.65304 0.9375,2.96875 0,1.3157 0.62682,4.82008 1.40625,7.8125 0.77943,2.99243 1.72992,11.12755 2.125,18.0625 0.60308,10.58575 0.46573,13.29446 -0.9375,16.96875 -2.8352,7.42387 -4.26323,8.125 -16.46875,8.125 -10.29378,0 -10.86598,-0.10176 -17.8125,-3.65625 -12.05136,-6.16662 -14.12157,-5.73054 -20.25,4.375 -2.4319,4.01011 -5.87348,9.10956 -7.65625,11.34375 -5.41894,6.79111 -4.95066,8.83609 3.625,15.9375 8.94841,7.41007 17.45243,12.25151 23.8125,13.5625 3.10778,0.64061 8.13125,2.04629 11.15625,3.09375 6.40157,2.21666 14.35017,1.9941 23.15625,-0.59375 7.45628,-2.19119 11.29056,-4.858 16.96875,-11.90625 7.75316,-9.62388 14.92991,-33.75369 15.21875,-51.15625 0.16405,-9.88371 -1.76401,-28.61011 -3.90625,-38 -0.75287,-3.3 -1.84284,-12.075 -2.4375,-19.5 -0.59467,-7.425 -2.23332,-22.275 -3.625,-33 -1.39167,-10.725 -2.91641,-27.6 -3.375,-37.5 -0.84108,-18.15695 -2.45507,-27.36131 -5.3125,-30.21875 -0.83454,-0.83453 -1.74797,-1.16002 -4.53125,-1.0625 z m -35.90625,26.84375 c -1.79098,-0.0509 -3.84657,0.0485 -6.25,0.25 -8.70889,0.73012 -12.44768,2.35773 -18.1875,7.9375 -5.17845,5.03406 -8.39875,10.81289 -11.78125,21.09375 -4.16353,12.65478 -1.1522,26.71013 7.75,36.03125 4.30538,4.50798 12.7693,10.19032 18.03125,12.125 6.01756,2.21249 12.54997,1.77026 23,-1.625 13.69997,-4.45117 13.38342,-4.01468 12.25,-17.90625 -0.88311,-10.82383 -2.95838,-23.5293 -6.75,-41.25 -1.48217,-6.92712 -2.13101,-8.2076 -5.90625,-11.6875 -3.70148,-3.41191 -6.7833,-4.81617 -12.15625,-4.96875 z m -2.875,8.34375 c 4.83424,-0.12951 9.30538,1.02874 11.65625,3.15625 1.58192,1.43162 3.40162,9.16975 4.5625,19.4375 0.34201,3.025 1.24736,8.2 2,11.5 0.75264,3.3 1.367,9.22762 1.375,13.15625 l 0.0312,7.125 -7.875,2.625 c -9.39795,3.11723 -12.24065,3.18649 -18.09375,0.53125 -12.17637,-5.52379 -19.87249,-17.0776 -18.53125,-27.8125 2.10738,-16.86687 8.97114,-26.88387 20,-29.15625 1.62477,-0.33477 3.26359,-0.51933 4.875,-0.5625 z m -11.78125,8.84375 c -0.14827,-0.0299 -0.52709,0.25378 -1.125,0.75 -1.71638,1.42447 -2.95905,4.04152 -4.09375,8.5625 -0.3442,1.37143 -0.17885,2.4375 0.375,2.4375 0.54551,0 1.22914,-1.0125 1.5,-2.25 0.27087,-1.2375 1.27113,-4.01253 2.21875,-6.1875 1.00816,-2.31393 1.37212,-3.26268 1.125,-3.3125 z m 36.28125,96.75 c -1.00442,0 -1.19678,5.05168 -0.28125,7.4375 0.89774,2.33948 2.3907,1.89969 2.375,-0.6875 -0.0201,-3.31061 -1.08242,-6.75 -2.09375,-6.75 z"
           id="path3363"
           inkscape:connector-curvature="0" />
        <path
           style="fill:#0000ff;fill-opacity:1;display:inline"
           d="m 275,406.21875 c -1.37361,0.12567 -2.6767,0.72956 -4.40625,1.875 l -3,2 4.5,-0.125 c 2.475,-0.0614 5.85,-0.41542 7.5,-0.8125 l 3,-0.75 L 279.75,407.25 c -1.96089,-0.80781 -3.37639,-1.15692 -4.75,-1.03125 z m -9.84375,4 c -0.3474,0.0143 -0.64635,0.1151 -0.8125,0.28125 -0.33229,0.33229 0.25834,0.57465 1.3125,0.53125 1.16495,-0.048 1.42273,-0.30578 0.625,-0.625 -0.36094,-0.14445 -0.7776,-0.2018 -1.125,-0.1875 z m 12.6875,5.09375 c -2.01934,0.0424 -5.88125,0.67857 -9.25,1.53125 -6.6958,1.69478 -7.01808,1.89997 -7.3125,4.9375 -0.70403,7.26323 -6.13962,6.34205 -6.28125,-1.0625 -0.0434,-2.27016 -0.31634,-3.5625 -0.59375,-2.875 -0.28301,0.70138 -2.20859,1.25 -4.40625,1.25 -4.10616,0 -5.26468,1.43258 -2,2.46875 1.05034,0.33336 2.40629,1.24698 3.03125,2 0.95475,1.15041 -0.74472,1.28418 -10.65625,0.84375 -10.36082,-0.46039 -12.5824,-0.26134 -18.21875,1.65625 -13.41985,4.56571 -22.93584,14.06891 -28.375,28.375 -4.43296,11.65962 -5.7092,17.86008 -5.6875,27.46875 0.0352,15.63344 4.32727,28.04484 12.96875,37.5 7.23969,7.92138 12.78118,10.49194 25.4375,11.90625 13.87667,1.55067 26.46637,-0.29831 37.84375,-5.59375 4.26482,-1.985 8.36967,-3.625 9.125,-3.625 2.68751,0 4.13365,3.41983 4.8125,11.40625 0.37857,4.45338 1.12752,10.11875 1.6875,12.59375 1.4213,6.28165 1.38511,30.41832 -0.0625,35.25 -1.66037,5.54182 -9.05084,13.47909 -13.65625,14.6875 -11.5946,3.04228 -26.79096,1.66819 -37.875,-3.40625 l -5.3125,-2.4375 -4.5,6.6875 c -2.46825,3.67929 -4.46875,7.18375 -4.46875,7.78125 0,3.77615 19.4914,14.65296 31.15625,17.375 10.51486,2.45368 16.77157,2.0307 24.90625,-1.6875 10.64187,-4.86419 15.46236,-12.85788 20.40625,-33.78125 3.62374,-15.33633 3.06869,-32.54604 -1.90625,-58.96875 -0.82845,-4.4 -1.51205,-10.08291 -1.53125,-12.65625 -0.0192,-2.57333 -1.18853,-14.72333 -2.59375,-27 -3.481,-30.41155 -3.77974,-35.63436 -2.71875,-48.34375 0.50506,-6.05 0.66041,-13.925 0.34375,-17.5 -0.56233,-6.34862 -0.63237,-6.48455 -3.5625,-6.75 -0.20625,-0.0187 -0.46152,-0.0373 -0.75,-0.0312 z m -32.5,20.84375 c 5.37295,0.15258 8.45477,1.55684 12.15625,4.96875 3.77524,3.4799 4.42408,4.76038 5.90625,11.6875 3.79162,17.7207 5.86689,30.42617 6.75,41.25 1.13342,13.89157 1.44997,13.45508 -12.25,17.90625 -14.49494,4.70946 -20.84952,4.0826 -32,-3.15625 -15.97581,-10.37145 -22.27524,-26.67637 -16.78125,-43.375 3.3825,-10.28086 6.6028,-16.05969 11.78125,-21.09375 5.73982,-5.57977 9.47861,-7.20738 18.1875,-7.9375 2.40343,-0.2015 4.45902,-0.30086 6.25,-0.25 z m -2.75,8 -3,0.0312 3,1.375 c 3.55779,1.62908 6.14946,1.88076 6.90625,0.65625 0.66072,-1.06908 -2.78597,-2.1057 -6.90625,-2.0625 z m 48.78125,0.4375 c -0.70807,-0.46873 2.29302,28.80437 3.875,37 0.10616,0.55 0.34428,-1.025 0.5625,-3.5 0.3221,-3.65323 -2.68375,-27.04255 -4.25,-33 -0.0817,-0.31073 -0.1403,-0.46875 -0.1875,-0.5 z m -30.75,34.5625 c -0.25586,0.0172 -0.47448,1.48869 -0.84375,4.84375 -0.38723,3.51818 -0.6875,8.56669 -0.6875,11.21875 0,3.87531 0.29447,4.7126 1.5,4.25 1.16755,-0.44804 1.4671,-2.26967 1.375,-8.21875 -0.0651,-4.20365 -0.4398,-9.00625 -0.8125,-10.65625 -0.21325,-0.9441 -0.37774,-1.44781 -0.53125,-1.4375 z m -76.84375,19.4375 -1.375,3.9375 c -1.75672,5.07418 -0.36807,9.60593 3.96875,13 1.73096,1.35468 3.29276,2.33224 3.46875,2.15625 0.17599,-0.17599 -0.78936,-2.42923 -2.15625,-5 -1.36689,-2.57077 -2.83113,-6.79016 -3.21875,-9.375 l -0.6875,-4.71875 z m 114.75,15 c -0.17296,0.0156 -0.2653,0.7625 -0.25,2 0.0204,1.65 0.24646,2.22297 0.5,1.25 0.25349,-0.97297 0.24267,-2.32297 -0.0312,-3 -0.0685,-0.16926 -0.1611,-0.2552 -0.21875,-0.25 z m -30.25,20.03125 c -1.28774,-0.009 -3.35788,0.50632 -6.40625,1.53125 -3.46538,1.16514 -6.50625,2.36068 -6.78125,2.65625 -0.79606,0.85561 9.2921,-0.79601 11.25,-1.84375 0.97386,-0.52115 2.21136,-0.67664 2.75,-0.34375 0.53863,0.3329 1,0.14375 1,-0.40625 0,-1.04538 -0.52476,-1.58511 -1.8125,-1.59375 z m 3,48.1875 c -0.35859,0.0794 -1.04023,0.44159 -2,1.125 -1.73267,1.23378 -3.39465,2.69436 -3.71875,3.21875 -1.0493,1.69781 2.16863,0.9925 3.71875,-0.8125 2.11868,-2.46705 2.78891,-3.70597 2,-3.53125 z m -51.03125,2.78125 -4.1875,4 c -3.53327,3.37207 -8.06413,10.99471 -7.9375,13.34375 0.0651,1.20797 4.92529,-5.23341 8.5625,-11.34375 l 3.5625,-6 z"
           id="path3203"
           inkscape:connector-curvature="0" />
      </g>
    </g>
  </g>
  <g
     inkscape:groupmode="layer"
     id="layer10"
     inkscape:label="g1"
     style="display:inline"
     transform="translate(-66.432026,-67.061312)" />
  <g
     inkscape:groupmode="layer"
     id="layer9"
     inkscape:label="n"
     style="display:inline"
     transform="translate(-66.432026,-67.061312)" />
  <g
     inkscape:groupmode="layer"
     id="layer12"
     inkscape:label="i"
     style="display:inline"
     transform="translate(-66.432026,-67.061312)" />
  <g
     inkscape:groupmode="layer"
     id="layer13"
     inkscape:label="d"
     style="display:inline"
     transform="translate(-66.432026,-67.061312)" />
  <g
     inkscape:groupmode="layer"
     id="layer14"
     inkscape:label="o1"
     style="display:inline"
     transform="translate(-66.432026,-67.061312)" />
  <g
     inkscape:groupmode="layer"
     id="layer8"
     inkscape:label="c"
     style="display:inline"
     transform="translate(-66.432026,-67.061312)">
    <g
       id="g3127">
      <path
         inkscape:connector-curvature="0"
         id="path3475"
         d="m 559.15922,270.6846 c -0.0434,-1.05416 0.19293,-1.64479 0.52522,-1.3125 0.33229,0.33229 0.36781,1.19479 0.0789,1.91667 -0.31922,0.79773 -0.55618,0.56078 -0.60416,-0.60417 z"
         style="fill:#ffff00;fill-opacity:1;display:inline" />
      <path
         inkscape:connector-curvature="0"
         id="path3473"
         d="m 73.952713,267.35127 c -1.24387,-1.58606 -1.2085,-1.62143 0.37756,-0.37756 0.9625,0.75485 1.75,1.54235 1.75,1.75 0,0.82304 -0.82119,0.29331 -2.12756,-1.37244 z"
         style="fill:#ffff00;fill-opacity:1;display:inline" />
      <path
         inkscape:connector-curvature="0"
         id="path3194"
         d="m 487.15922,84.684604 c -0.0434,-1.054166 0.19293,-1.644791 0.52522,-1.3125 0.33229,0.332292 0.36781,1.194792 0.0789,1.916667 -0.31922,0.797733 -0.55618,0.560776 -0.60416,-0.604167 z"
         style="fill:#03ffff;fill-opacity:1;display:inline" />
      <g
         id="g3532"
         style="display:inline">
        <path
           style="fill:#151415"
           d="M 754.90625,167.625 C 746.32369,167.6955 744.24877,168.13073 740,170 c -20.1967,8.88562 -21.20468,9.78427 -30.90625,27.65625 -10.41808,19.19191 -11.8035,26.70006 -8,43.8125 5.91903,26.63049 8.83646,34.05238 15.0625,38.5625 2.3293,1.68733 4.72659,3.0625 5.34375,3.0625 0.61717,0 2.7592,1.35901 4.75,3 5.33163,4.39479 7.81578,5 20.09375,5 9.07207,0 12.83039,-0.49515 20.3125,-2.65625 5.0505,-1.45877 9.92255,-2.37276 10.8125,-2.03125 1.38567,0.53173 1.625,2.68391 1.625,14.84375 0,17.49467 -1.38496,26.39996 -4.375,28.34375 -1.17626,0.76467 -4.41596,1.69914 -7.1875,2.0625 -4.80992,0.63059 -5.60604,0.35444 -17.5,-5.875 -14.33647,-7.5087 -22.80551,-10.36149 -25.875,-8.71875 -1.1012,0.58935 -4.12506,4.10725 -6.71875,7.8125 -2.5937,3.70526 -5.57577,7.69132 -6.625,8.875 -1.04924,1.18367 -1.7453,3.16552 -1.5625,4.40625 0.35356,2.39965 2.71596,3.54911 28.84375,13.96875 5.80382,2.31453 28.4714,7.62201 37.5,8.78125 11.40094,1.46383 13.34444,1.33176 19,-1.34375 6.67302,-3.15684 9.72384,-6.70668 14.71875,-17.09375 4.80217,-9.98627 7.30528,-24.04026 8.75,-48.875 1.98727,-34.16137 3.04244,-43.85189 6.46875,-58.96875 1.87367,-8.2666 4.13369,-19.98125 5,-26.03125 0.8663,-6.05 2.88313,-15.275 4.46875,-20.5 3.28797,-10.83465 3.28158,-10.84949 -4.34375,-14.71875 -3.64759,-1.85087 -6.46016,-2.54243 -10.0625,-2.4375 -7.70268,0.22437 -19.54805,2.06412 -24.1875,3.75 -4.02775,1.4636 -4.32714,1.42201 -8,-0.9375 -7.45808,-4.79121 -13.70295,-6.1128 -28.40625,-6.125 -1.51742,-0.001 -2.86767,-0.0101 -4.09375,0 z m -0.3125,9.03125 c 1.19787,-0.006 2.52684,0.0226 4,0.0312 14.5517,0.0856 22.93709,2.16786 29.5,7.3125 5.73063,4.49221 5.71978,4.47279 7.78125,-0.1875 l 1.9375,-4.3125 9.34375,-1.09375 c 5.15051,-0.59095 9.95414,-0.86317 10.65625,-0.59375 1.81573,0.69676 1.58694,2.845 -1.21875,12.21875 -1.36134,4.54822 -2.95505,12.14505 -3.5625,16.90625 -0.60744,4.76121 -2.39047,14.28125 -3.96875,21.15625 -1.57828,6.875 -3.3446,15.425 -3.90625,19 -1.22196,7.77796 -3.09075,38.88827 -3.09375,51.5 -0.003,11.8805 -2.45657,30.00434 -4.96875,36.71875 -3.1561,8.43543 -7.44921,14.46024 -11.9375,16.75 -4.19363,2.13943 -5.88431,2.2368 -15.28125,1.03125 -14.67246,-1.88235 -52.78125,-15.03116 -52.78125,-18.21875 0,-2.2156 5.11731,-9.78125 6.625,-9.78125 3.14022,0 19.76928,6.15588 27.125,10.03125 6.4732,3.41043 8.44849,3.975 13.65625,3.9375 8.41311,-0.0605 15.54754,-2.65998 17.75,-6.46875 2.70047,-4.66998 5.01533,-19.83771 4.28125,-28 -0.82844,-9.2114 1.08681,-22.71308 4.125,-29.1875 2.95736,-6.30214 3.0523,-8.6977 0.4375,-11.3125 -2.87005,-2.87005 -5.83494,-2.45576 -9.40625,1.28125 -1.71495,1.79451 -5.56875,5.00812 -8.59375,7.15625 -3.025,2.14813 -7.22506,5.53014 -9.3125,7.5 L 760,283.59375 748.28125,283.9375 c -11.14196,0.30869 -11.85576,0.19067 -15.1875,-2.1875 -1.925,-1.37405 -5.84776,-3.87531 -8.71875,-5.5625 -5.86627,-3.44742 -7.08285,-5.30559 -10.65625,-16.625 -5.23666,-16.58808 -6.9748,-24.89823 -7.0625,-33.6875 l -0.0625,-8.71875 6.96875,-13.53125 c 8.74759,-16.99474 11.90123,-20.23072 23.53125,-24.15625 6.74254,-2.27584 9.1149,-2.77343 17.5,-2.8125 z m -5.71875,13.6875 c -1.93671,0.006 -3.7551,0.25633 -5.15625,0.71875 -5.75107,1.89802 -12.93292,9.11966 -16.1875,16.25 -2.69011,5.89364 -2.87925,7.1207 -2.90625,19.28125 -0.0273,12.26799 0.13386,13.36679 2.875,19.3125 3.32719,7.21692 9.42504,13.2385 17.6875,17.4375 4.51408,2.29406 6.6612,2.7387 13.3125,2.75 9.33435,0.0158 14.70694,-2.11305 19.65625,-7.75 5.16659,-5.88443 5.68854,-8.23943 6.46875,-29.84375 0.81808,-22.65303 0.38675,-25.26413 -5.21875,-31.46875 -4.14223,-4.58495 -8.17205,-6.07318 -15.96875,-5.875 -3.21748,0.0818 -8.17662,-0.16641 -11,-0.5625 -1.20482,-0.16902 -2.40047,-0.25338 -3.5625,-0.25 z M 758.0625,198 c 5.9061,0.0386 9.01723,0.57333 11.875,2.03125 6.12312,3.12378 6.53866,5.16833 5.71875,27.875 -0.78541,21.75123 -1.23081,23.31849 -7.125,25.78125 -5.49741,2.29696 -13.41639,1.7939 -19.0625,-1.1875 -10.632,-5.61418 -13.50209,-10.86253 -14.1875,-26 -0.52243,-11.53808 0.50245,-15.85067 4.96875,-20.9375 5.39183,-6.14095 8.87099,-7.6209 17.8125,-7.5625 z"
           id="path3309"
           inkscape:connector-curvature="0" />
        <path
           style="fill:#ffff00;fill-opacity:1;display:inline"
           d="m 824.71875,158.09375 c -2.98538,0 -4.29525,0.90797 -9.5625,6.65625 -3.35452,3.66087 -5.98705,6.74545 -5.84375,6.84375 0.1433,0.0983 3.35025,-0.0981 7.125,-0.4375 5.34332,-0.48043 7.66857,-0.23077 10.5,1.09375 4.53005,2.11911 4.79842,2.13056 4.9375,0.59375 0.0622,-0.6875 0.41,-3.11056 0.78125,-5.40625 0.58836,-3.63812 0.33905,-4.5047 -1.90625,-6.75 -1.77444,-1.77444 -3.65006,-2.59375 -6.03125,-2.59375 z m -26.03125,9.625 c -0.80268,0.0326 -1.61127,0.19162 -2.40625,0.46875 -2.97008,1.03537 -7.55697,6.22428 -6.46875,7.3125 0.82645,0.82645 0.83792,0.81671 6.125,-0.875 2.54881,-0.81555 5.90771,-1.75539 7.46875,-2.0625 2.44143,-0.48032 2.67829,-0.7493 1.5625,-2.09375 -1.54268,-1.85881 -3.87322,-2.84772 -6.28125,-2.75 z m -44.09375,8.9375 c -8.3851,0.0391 -10.75746,0.53666 -17.5,2.8125 -11.63002,3.92553 -14.78363,7.16151 -23.53125,24.15625 l -6.96875,13.53125 0.0625,8.71875 c 0.0877,8.78927 1.82584,17.09942 7.0625,33.6875 3.5734,11.31941 4.78998,13.17758 10.65625,16.625 2.87099,1.68719 6.79375,4.18845 8.71875,5.5625 3.33174,2.37817 4.04554,2.49619 15.1875,2.1875 L 760,283.59375 l 3.78125,-3.5625 c 2.08744,-1.96986 6.2875,-5.35187 9.3125,-7.5 3.025,-2.14813 6.8788,-5.36174 8.59375,-7.15625 3.57131,-3.73701 6.5362,-4.1513 9.40625,-1.28125 2.6148,2.6148 2.51986,5.01036 -0.4375,11.3125 -3.03819,6.47442 -4.95344,19.9761 -4.125,29.1875 0.73408,8.16229 -1.58078,23.33002 -4.28125,28 -2.20246,3.80877 -9.33689,6.40825 -17.75,6.46875 -5.20776,0.0375 -7.18305,-0.52707 -13.65625,-3.9375 -7.35569,-3.87537 -23.98478,-10.03125 -27.125,-10.03125 -1.50769,0 -6.625,7.56565 -6.625,9.78125 0,3.18759 38.10879,16.3364 52.78125,18.21875 9.39694,1.20555 11.08762,1.10818 15.28125,-1.03125 4.48829,-2.28976 8.7814,-8.31457 11.9375,-16.75 2.51218,-6.71441 4.96575,-24.83825 4.96875,-36.71875 0.003,-12.61173 1.87179,-43.72204 3.09375,-51.5 0.56165,-3.575 2.32797,-12.125 3.90625,-19 1.57828,-6.875 3.36131,-16.39504 3.96875,-21.15625 0.60745,-4.7612 2.20116,-12.35803 3.5625,-16.90625 2.80569,-9.37375 3.03448,-11.52199 1.21875,-12.21875 -0.70211,-0.26942 -5.50574,0.003 -10.65625,0.59375 l -9.34375,1.09375 -1.9375,4.3125 c -2.06147,4.66029 -2.05062,4.67971 -7.78125,0.1875 -6.56291,-5.14464 -14.9483,-7.2269 -29.5,-7.3125 -1.47316,-0.009 -2.80213,-0.0368 -4,-0.0312 z m -32.65625,1.4375 c -0.275,0 -1.552,1.125 -2.84375,2.5 -1.29175,1.375 -2.15,2.5 -1.875,2.5 0.275,0 1.58325,-1.125 2.875,-2.5 1.29175,-1.375 2.11875,-2.5 1.84375,-2.5 z m 26.9375,12.25 c 1.16203,-0.003 2.35768,0.081 3.5625,0.25 2.82338,0.39609 7.78252,0.6443 11,0.5625 7.7967,-0.19818 11.82652,1.29005 15.96875,5.875 5.6055,6.20462 6.03683,8.81572 5.21875,31.46875 -0.44927,12.4404 -1.20683,21.28451 -2,23.1875 -1.945,4.66645 -7.14372,10.03824 -11.90625,12.34375 -6.65802,3.22309 -18.45259,2.90988 -25.53125,-0.6875 -8.26246,-4.199 -14.36031,-10.22058 -17.6875,-17.4375 -2.74114,-5.94571 -2.9023,-7.04451 -2.875,-19.3125 0.027,-12.16055 0.21614,-13.38761 2.90625,-19.28125 3.25458,-7.13034 10.43643,-14.35198 16.1875,-16.25 1.40115,-0.46243 3.21954,-0.71312 5.15625,-0.71875 z m 13.5,7.84375 -3.78125,0.0625 3,1.1875 c 4.79401,1.87263 13.499,7.0913 13.5,8.09375 5.6e-4,0.50416 0.23566,0.6706 0.53125,0.375 0.29559,-0.29559 -0.0398,-1.75981 -0.71875,-3.25 -1.56686,-3.43889 -7.62147,-6.56735 -12.53125,-6.46875 z m -50.21875,78.9375 1.03125,2.75 c 1.63183,4.32938 6.83739,9.03956 11.8125,10.6875 2.51657,0.83358 9.51316,2.21981 15.53125,3.0625 6.01809,0.84269 11.19309,1.77957 11.5,2.09375 0.58993,0.60389 6.88285,-0.039 13.5625,-1.375 3.04899,-0.60984 4,-1.24215 4,-2.75 0,-1.08799 0.33629,-2.5625 0.78125,-3.25 1.00608,-1.55449 1.42408,-1.58514 -6.125,0.78125 -4.76465,1.49356 -9.15967,1.96875 -17.6875,1.96875 -12.49227,0 -14.96854,-0.59506 -20.3125,-5 -1.9908,-1.64099 -4.13283,-3 -4.75,-3 -0.61716,0 -2.98446,-1.3276 -5.25,-2.96875 l -4.09375,-3 z m 65.4375,9.28125 c -0.59481,0.0108 -0.69102,1.62051 -0.9375,8.6875 -0.1055,3.025 -1.23838,10.43374 -2.5,16.4375 -1.9364,9.21492 -2.11276,11.51563 -1.125,14.8125 1.60711,5.36406 3.5426,3.56453 4.96875,-4.625 1.38409,-7.94787 1.45402,-34.28431 0.0937,-35.125 -0.19823,-0.12251 -0.36274,-0.18998 -0.5,-0.1875 z m -121.4375,8.8125 c -0.3474,0.0143 -0.64636,0.1151 -0.8125,0.28125 -0.33229,0.33229 0.25834,0.57465 1.3125,0.53125 1.16495,-0.048 1.42273,-0.30578 0.625,-0.625 -0.36093,-0.14445 -0.7776,-0.2018 -1.125,-0.1875 z m 62.8125,20.90625 c -5.2781,-0.0243 -7.17017,0.41526 -9.34375,2.125 -2.85507,2.2458 -2.99054,4.06221 -1,13.59375 0.37212,1.78188 1.05224,2.99549 1.5,2.71875 0.44776,-0.27673 3.32051,-4.04716 6.375,-8.40625 3.0545,-4.35909 6.33886,-8.40191 7.3125,-8.96875 1.34602,-0.78363 0.18607,-1.0394 -4.84375,-1.0625 z m 97.6875,2.21875 c -0.0985,0.009 -0.18494,0.0287 -0.25,0.0937 -0.32705,0.32705 -1.21025,4.03668 -1.9375,8.21875 -0.72724,4.18208 -2.44025,10.0651 -3.8125,13.0625 -2.15174,4.70002 -2.24393,5.2683 -0.65625,4.15625 2.52556,-1.76898 10.52521,-10.7948 11.9375,-13.46875 0.63451,-1.20134 1.15625,-3.13404 1.15625,-4.3125 0,-2.09108 -4.95974,-7.89116 -6.4375,-7.75 z m -52.4375,12.875 c -0.725,0.004 -1.4282,0.0624 -1.90625,0.1875 -0.95609,0.25029 0.0812,0.4486 2.28125,0.4375 2.2,-0.0111 2.96266,-0.19831 1.71875,-0.4375 -0.62195,-0.11958 -1.36875,-0.19116 -2.09375,-0.1875 z m -50.59375,11.1875 c -0.12278,-0.002 -0.2093,0.0218 -0.25,0.0625 -0.32561,0.32561 1.84507,1.71239 4.8125,3.09375 2.96744,1.38136 6.08125,2.477 6.90625,2.4375 0.825,-0.0395 -1.34567,-1.42626 -4.8125,-3.09375 -3.03348,-1.45905 -5.79681,-2.48518 -6.65625,-2.5 z"
           id="path3513"
           inkscape:connector-curvature="0" />
      </g>
      <g
         id="g3399"
         style="display:inline">
        <g
           style="display:inline"
           id="g3109">
          <path
             id="path3075"
             d="m 660.08027,295.10127 c 1.375,-0.44035 3.85,-0.81387 5.5,-0.83003 2.5473,-0.025 2.6982,0.10029 1,0.83003 -1.1,0.47269 -3.575,0.8462 -5.5,0.83003 -3.1818,-0.0267 -3.27271,-0.10218 -1,-0.83003 z"
             style="fill:#ff0000;fill-opacity:1;display:inline"
             inkscape:connector-curvature="0" />
          <path
             id="path3073"
             d="m 586.08027,294.60204 c -0.825,-0.20217 -3.15886,-0.63757 -5.18635,-0.96755 -3.62472,-0.58993 -3.66843,-0.65136 -2.61447,-3.67473 0.76798,-2.20303 0.74993,-6.25028 -0.0637,-14.27523 -1.55631,-15.35096 -1.42481,-24.86515 0.47991,-34.72279 1.63417,-8.45744 1.59196,-15.70202 -0.28357,-48.66901 -0.54834,-9.63849 -0.84803,-11.10386 -2.02932,-9.92257 -0.76228,0.76228 -1.76013,4.27612 -2.21744,7.80853 l -0.83149,6.42258 -0.11206,-9 c -0.13027,-10.46189 0.90099,-13.18874 6.03409,-15.95528 3.16924,-1.7081 3.98794,-1.78955 6.47611,-0.64433 l 2.84825,1.31095 -6.25,1.9306 c -3.94075,1.21728 -6.25,2.47142 -6.25,3.39433 0,1.79787 -0.78426,1.83553 9.17104,-0.44036 10.92936,-2.49857 16.60224,-3.27455 17.16568,-2.34808 0.25159,0.4137 0.0938,4.35217 -0.35072,8.75217 -1.77951,17.61555 3.52397,17.79857 23.71716,0.81845 7.54023,-6.34046 11.75643,-7.60711 23.82784,-7.15847 8.62167,0.32043 9.47017,0.55358 14.72908,4.04727 5.24476,3.48429 5.65581,4.05563 6.83464,9.5 1.88228,8.69322 1.39969,28.8105 -1.03856,43.29275 -1.15748,6.875 -2.55956,19.25 -3.11573,27.5 -1.11681,16.56651 -2.17349,24.16234 -3.53931,25.4421 -0.86531,0.81078 -10.20579,3.0579 -12.71062,3.0579 -1.92589,0 -1.33581,-43.36845 0.71862,-52.81538 1.96793,-9.04919 2.03984,-17.42456 0.18016,-20.98428 -5.50665,-10.54055 -17.5359,-11.36922 -31.95527,-2.20133 -5.44391,3.46126 -6.19026,3.68263 -8.13033,2.41144 -2.94447,-1.92929 -4.85405,-0.30134 -7.4336,6.33728 -1.9395,4.99138 -2.00771,6.60974 -1.39651,33.13021 0.74061,32.13511 1.62484,29.42071 -9.91804,30.44644 -7.51527,0.66784 -10.75549,1.96888 -10.75549,4.31867 0,1.36936 1.32522,1.4904 10.25,0.93624 9.89956,-0.61469 10.13075,-0.58242 6.76216,0.94386 -3.55964,1.61284 -10.3126,2.63917 -13.01216,1.97762 z"
             style="fill:#ff0000;fill-opacity:1;display:inline"
             inkscape:connector-curvature="0" />
          <path
             id="path3069"
             d="m 613.2476,222.09928 c 0.2193,-0.65791 1.95887,-1.82534 3.8657,-2.59429 3.19203,-1.28722 3.30836,-1.27355 1.46697,0.17237 -3.45343,2.71173 -5.78176,3.76919 -5.33267,2.42192 z"
             style="fill:#ff0000;fill-opacity:1;display:inline"
             inkscape:connector-curvature="0" />
          <path
             id="path3067"
             d="m 633.95143,220.85127 c -0.83111,-0.6875 -2.26627,-2.47038 -3.18926,-3.96196 l -1.67816,-2.71196 3.80261,-1.02394 c 9.22799,-2.48483 9.6801,-2.45117 12.52753,0.93281 1.46637,1.74267 2.65451,3.47147 2.64032,3.84178 -0.0427,1.11554 -7.45077,4.17327 -10.11068,4.17327 -1.3647,0 -3.16126,-0.5625 -3.99236,-1.25 z"
             style="fill:#ff0000;fill-opacity:1;display:inline"
             inkscape:connector-curvature="0" />
          <path
             id="path3188"
             d="m 639.58851,167.94038 c 0.84508,-2.20222 5.9347,-4.83911 9.34029,-4.83911 1.80778,0 4.17719,1.0005 5.84571,2.4684 l 2.80576,2.4684 -4,0.0403 c -2.2,0.0222 -6.3729,0.3253 -9.27312,0.67363 -4.356,0.52319 -5.17668,0.38203 -4.71864,-0.81161 z"
             style="fill:#ff0000;fill-opacity:1;display:inline"
             inkscape:connector-curvature="0" />
        </g>
        <path
           style="fill:#151415;display:inline"
           d="m 653.3125,168.28125 c -6.5033,0.10609 -14.44086,0.99261 -18.40625,2.34375 -5.08658,1.73317 -5.85284,2.40362 -14.21875,11.84375 -3.23824,3.65404 -6.50997,6.625 -7.28125,6.625 -1.11239,0 -1.3814,-1.88419 -1.25,-9.09375 0.21571,-11.83575 -0.44026,-12.63355 -8.6875,-10.5625 -3.24414,0.81467 -7.9,1.79981 -10.375,2.1875 -7.94815,1.24501 -17,4.46891 -17,6.03125 0,1.79341 -0.79782,1.80686 9.15625,-0.46875 10.92936,-2.49857 16.59281,-3.27022 17.15625,-2.34375 0.25159,0.4137 0.10073,4.35 -0.34375,8.75 -1.77951,17.61555 3.52556,17.79262 23.71875,0.8125 7.54023,-6.34046 11.77234,-7.60489 23.84375,-7.15625 8.62167,0.32043 9.45984,0.56881 14.71875,4.0625 5.24476,3.48429 5.66492,4.05563 6.84375,9.5 1.88228,8.69322 1.37575,28.799 -1.0625,43.28125 -1.15748,6.875 -2.53758,19.25 -3.09375,27.5 -1.11681,16.56651 -2.19668,24.15774 -3.5625,25.4375 -0.86531,0.81078 -10.18267,3.0625 -12.6875,3.0625 -1.92589,0 -1.33568,-43.36559 0.71875,-52.8125 1.96793,-9.04919 2.01593,-17.40903 0.15625,-20.96875 -5.50665,-10.54055 -17.51813,-11.38664 -31.9375,-2.21875 -5.44391,3.46126 -6.18493,3.67744 -8.125,2.40625 -2.94447,-1.92929 -4.85795,-0.29487 -7.4375,6.34375 -1.9395,4.99138 -2.01745,6.60453 -1.40625,33.125 0.74061,32.13511 1.63663,29.44302 -9.90625,30.46875 -7.53489,0.66958 -10.75,1.94179 -10.75,4.3125 0,1.39325 1.11311,1.52568 9.03125,0.90625 7.41688,-0.58021 9.94959,-0.38277 13.96875,1.0625 4.72544,1.69922 4.97966,1.67806 6.9375,-0.0937 1.89934,-1.71889 2.04605,-3.00451 2.03125,-19.4375 -0.009,-9.67725 -0.47609,-22.99375 -1.03125,-29.59375 -0.55516,-6.6 -0.72429,-14.32356 -0.375,-17.1875 l 0.65625,-5.21875 6.625,-3.125 c 3.65207,-1.71557 10.1971,-4.05296 14.53125,-5.21875 l 7.875,-2.125 2.8125,3.15625 c 4.22521,4.72884 4.48332,8.38099 1.4375,20.78125 -2.18467,8.89432 -2.82688,14.53708 -3.53125,31.40625 -0.472,11.30392 -1.13812,21.71264 -1.5,23.15625 -0.50077,1.99769 -0.0955,3.15018 1.6875,4.84375 2.18625,2.07664 2.87779,2.19979 10.34375,1.46875 4.4,-0.43083 10.8218,-0.8593 14.28125,-0.9375 4.0601,-0.0918 6.82524,-0.66898 7.78125,-1.625 2.08272,-2.08272 3.38375,-10.81738 4.40625,-29.375 0.48487,-8.8 1.67989,-20.725 2.65625,-26.5 3.48671,-20.62347 1.98802,-45.74279 -3.34375,-56.3125 -1.56787,-3.10815 -11.43883,-9.89402 -17.0625,-11.75 -1.72065,-0.56787 -5.09802,-0.81365 -9,-0.75 z m -75.59375,13.03125 c -0.24764,-0.0179 -0.64571,0.39518 -1.375,1.125 -1.59047,1.59163 -1.7282,3.97739 -1.4375,26.4375 0.24988,19.30605 -0.0369,26.68786 -1.28125,33.71875 -2.10066,11.86879 -1.84943,48.05682 0.34375,50.25 1.21114,1.21114 1.61791,1.16223 3,-0.21875 1.85675,-1.85526 1.9751,-6.92299 0.65625,-27.21875 -0.71564,-11.01286 -0.55469,-15.05497 0.96875,-24.1875 1.66635,-9.98928 1.73812,-12.86569 0.65625,-32.78125 -0.65246,-12.01081 -1.1935,-23.18214 -1.1875,-24.8125 0.006,-1.58828 -0.0254,-2.28945 -0.34375,-2.3125 z m 38.65625,52.21875 c -0.0633,0.0101 -0.14875,0.0524 -0.21875,0.125 -1.02675,1.06437 -1.36273,2.85987 -1.1875,6.1875 0.23006,4.36896 2.125,2.19752 2.125,-2.4375 0,-2.51301 -0.27537,-3.94546 -0.71875,-3.875 z"
           id="path3275"
           inkscape:connector-curvature="0" />
      </g>
      <g
         id="g3537"
         style="display:inline">
        <path
           style="fill:#151415;display:inline"
           d="m 534.59375,110.21875 c -2.28159,0.078 -4.56985,0.53278 -6.84375,1.34375 -5.07436,1.80974 -6.94886,3.64397 -12.84375,12.53125 -4.84848,7.30969 -4.98795,7.65185 -4.4375,13.25 1.02569,10.43143 4.23972,14.96719 11.875,16.78125 6.80835,1.6176 13.66558,1.06457 19.21875,-1.5625 9.82542,-4.64817 13.492,-11.02825 13.5,-23.46875 0.006,-9.08841 -2.01933,-12.7846 -8.96875,-16.21875 -3.86238,-1.90865 -7.69735,-2.78632 -11.5,-2.65625 z m -4.34375,7.875 c 3.07001,-0.074 6.17883,0.79206 8.5,2.5625 3.23463,2.46717 3.34375,2.78021 3.34375,9.59375 0,8.42249 -1.92009,11.8048 -8.03125,14.25 -2.21822,0.88756 -6.07488,1.59375 -8.59375,1.59375 -3.87502,0 -5.1232,-0.52945 -8,-3.40625 -2.71272,-2.71272 -3.375,-4.17807 -3.375,-7.3125 0,-4.73313 4.77983,-12.5538 9.40625,-15.375 1.9856,-1.21082 4.36222,-1.84869 6.75,-1.90625 z m 26.53125,25 c -1.17059,0 -3.6875,3.89172 -3.6875,5.6875 0,0.96891 3.02095,-1.8976 4.0625,-3.84375 0.72962,-1.3633 0.64784,-1.84375 -0.375,-1.84375 z m -11.90625,30.125 c -1.2406,-0.0153 -2.79602,0.0808 -4.78125,0.25 -33.53289,2.85814 -31.55824,1.8476 -29.96875,15.6875 1.90301,16.56966 2.16241,24.23136 1.03125,32.4375 -3.51534,25.50247 -5.14166,73.36546 -2.625,77.4375 0.82469,1.33439 2.19615,1.26421 18.3125,-0.96875 8.71802,-1.20791 9.34363,-1.18988 10.625,0.5625 1.31605,1.7998 1.59994,1.79803 7.75,-0.8125 3.502,-1.48651 7.5415,-2.72075 8.96875,-2.71875 1.42726,0.002 3.33449,-0.83212 4.25,-1.84375 1.52965,-1.69024 1.5968,-5.07415 0.6875,-41.75 -1.0536,-42.49585 -1.70966,-49.69578 -5.71875,-63.28125 -1.39915,-4.74128 -2.80194,-9.525 -3.09375,-10.625 -0.8638,-3.2561 -1.71569,-4.32897 -5.4375,-4.375 z m -22,8.0625 c 1.64539,-0.008 3.43603,-0.007 5.28125,0.0312 l 13.4375,0.28125 2.28125,6.90625 c 4.39283,13.14997 4.59235,15.44043 4.65625,59.84375 l 0.0625,42.75 -6,-0.5625 c -3.54149,-0.34636 -10.28349,0.0327 -16.4375,0.96875 -5.73437,0.87223 -10.72039,1.59375 -11.09375,1.59375 -2.629,0 -2.96865,-48.02052 -0.4375,-63 1.84733,-10.93241 1.84125,-25.05755 -0.0312,-37.53125 -0.81571,-5.43387 -1.10357,-10.27143 -0.65625,-10.71875 0.33549,-0.33548 4.00134,-0.53907 8.9375,-0.5625 z"
           id="path3287"
           inkscape:connector-curvature="0" />
        <path
           style="fill:#03ffff;fill-opacity:1;display:inline"
           d="m 518.5,117.625 c -0.39137,0.11761 -1.40983,0.8993 -3.3125,2.40625 -8.99682,7.12561 -11.52814,19.51335 -5.375,26.3125 2.63131,2.90757 3.04681,2.01246 1.625,-3.46875 -2.08712,-8.04608 -1.74404,-10.99707 1.96875,-16.40625 1.83554,-2.67421 3.94028,-5.96818 4.65625,-7.3125 0.59298,-1.11338 0.82887,-1.64886 0.4375,-1.53125 z m 11.75,0.46875 c -2.38778,0.0576 -4.7644,0.69543 -6.75,1.90625 -4.62642,2.8212 -9.40625,10.64187 -9.40625,15.375 0,3.13443 0.66228,4.59978 3.375,7.3125 2.8768,2.8768 4.12498,3.40625 8,3.40625 5.99192,0 12.14361,-2.51522 14.625,-6 1.53067,-2.14963 2,-4.41716 2,-9.84375 0,-6.81353 -0.10912,-7.12657 -3.34375,-9.59375 -2.32117,-1.77044 -5.42999,-2.6365 -8.5,-2.5625 z m -9.5625,51.96875 c -4.72598,0.17952 -9.25265,3.44462 -12.28125,9.25 -2.68875,5.15395 -2.78124,5.78107 -3.1875,25.28125 -0.56497,27.11876 -0.58577,26.2455 0.96875,41.5 l 1.375,13.5 1.1875,-14.5 c 0.64589,-7.975 1.68642,-18.55 2.34375,-23.5 1.20057,-9.04102 1.0286,-14.93577 -0.96875,-32.4375 -1.43108,-12.5399 -1.11391,-12.87945 13.0625,-14.09375 5.71754,-0.48975 12.20625,-1.19646 14.40625,-1.5625 3.43369,-0.57131 3.66611,-0.78066 1.8125,-1.46875 -1.22796,-0.45584 -3.70901,-0.32349 -5.78125,0.3125 -3.01926,0.92664 -4.13776,0.83292 -6.5,-0.5625 -2.10063,-1.24087 -4.28933,-1.80035 -6.4375,-1.71875 z m 2.1875,11.21875 c -4.93616,0.0234 -8.60201,0.22701 -8.9375,0.5625 -0.44732,0.44732 -0.15946,5.28488 0.65625,10.71875 1.87246,12.4737 1.87854,26.59884 0.0312,37.53125 -1.68171,9.95247 -2.38936,45.15215 -1.125,55.75 0.47573,3.9875 1.18915,7.25 1.5625,7.25 0.37336,0 5.3594,-0.72152 11.09375,-1.59375 6.15401,-0.93607 12.89601,-1.31511 16.4375,-0.96875 l 6,0.5625 -0.0625,-42.75 C 548.46735,203.94043 548.26783,201.64997 543.875,188.5 l -2.28125,-6.90625 -13.4375,-0.28125 c -1.84522,-0.0385 -3.63586,-0.0391 -5.28125,-0.0312 z m 7.28125,115.9375 c -0.3474,0.0143 -0.64636,0.1151 -0.8125,0.28125 -0.33229,0.33229 0.25834,0.57465 1.3125,0.53125 1.16495,-0.048 1.42273,-0.30578 0.625,-0.625 -0.36094,-0.14445 -0.7776,-0.2018 -1.125,-0.1875 z"
           id="path3232"
           inkscape:connector-curvature="0" />
      </g>
      <g
         id="g3546"
         style="display:inline">
        <path
           style="fill:#151415;display:inline"
           d="m 473.96875,67.0625 c -2.55391,-0.02902 -5.6326,0.474075 -9.25,1.46875 -4.65237,1.279259 -12.76767,2.554988 -25.75,4.09375 -3.0045,0.356116 -5.31614,1.342778 -6.59375,2.78125 -1.85454,2.08803 -1.9134,3.146639 -1.21875,19.6875 0.79813,19.00466 2.56591,32.39334 6.53125,49.5 1.40239,6.05 2.92519,14.15 3.375,18 0.4498,3.85 1.34062,9.38705 2,12.3125 0.65937,2.92546 1.04011,5.49113 0.84375,5.6875 -0.19637,0.19636 -3.0489,-0.5404 -6.34375,-1.65625 -5.11986,-1.73396 -7.85836,-1.99183 -18.96875,-1.65625 -15.80102,0.47726 -20.46326,2.25937 -30.78125,11.78125 -14.28423,13.1821 -19.92891,30.11864 -20.0625,60.15625 -0.0462,10.38569 0.0196,10.79028 3.96875,19 5.24365,10.90069 10.28498,15.75375 22.1875,21.46875 16.7579,8.04631 30.54308,9.27684 44.6875,3.9375 10.8527,-4.09676 10.14306,-4.10971 11.4375,-0.1875 0.63969,1.93826 1.68718,3.76415 2.34375,4.03125 0.65657,0.26711 5.94375,0.50445 11.71875,0.53125 10.94772,0.0508 28.15379,-2.65379 30.25,-4.75 0.87672,-0.87672 0.80575,-2.55524 -0.21875,-6.90625 -0.74397,-3.15957 -1.65716,-14.075 -2.0625,-24.25 -0.40534,-10.175 -1.29175,-24.8 -1.96875,-32.5 -0.677,-7.7 -1.13172,-24.125 -1,-36.5 0.49488,-46.49657 0.11993,-65.2961 -1.46875,-74.40625 -0.85006,-4.8746 -1.53098,-10.70329 -1.53125,-12.96875 -2.8e-4,-2.26546 -0.95601,-6.569061 -2.09375,-9.5625 -1.82121,-4.791699 -1.94125,-6.188689 -1,-11.59375 1.64603,-9.452225 1.3941,-11.855892 -1.5625,-14.8125 -1.74558,-1.745579 -4.18516,-2.650195 -7.46875,-2.6875 z m -4.28125,9.8125 c 0.51971,-0.01434 0.82007,0.0076 0.875,0.0625 0.21972,0.219719 0.13299,4.114783 -0.1875,8.65625 -0.45094,6.389889 -0.17093,9.34659 1.15625,13.125 4.07957,11.61436 6.8364,59.62746 4.625,80.375 -0.80394,7.54265 0.0594,31.21337 1.96875,53.5 0.56542,6.6 1.48075,19.2 2,28 0.71673,12.14688 1.43311,17.39125 3.0625,21.78125 1.18044,3.18041 1.87473,6.06277 1.53125,6.40625 -0.34349,0.34349 -2.75723,0.97543 -5.375,1.40625 -5.8154,0.95707 -21.6842,1.15955 -22.5625,0.28125 -0.35041,-0.35036 -0.36706,-3.25588 -0.0312,-6.46875 0.42125,-4.03026 0.2149,-6.32534 -0.65625,-7.375 -2.19719,-2.64746 -5.47682,-1.76817 -8.78125,2.34375 -2.31549,2.88132 -4.84867,4.50842 -9.96875,6.40625 -13.26482,4.91681 -22.92295,4.54892 -37.25,-1.40625 -12.67694,-5.26929 -17.80924,-9.54778 -22.65625,-18.875 l -2.84375,-5.5 0.25,-18 c 0.28191,-19.31841 1.0781,-23.74986 6.25,-35.15625 3.34853,-7.38502 13.49489,-17.96875 20.53125,-21.375 3.44481,-1.6676 7.80623,-2.49449 16.8125,-3.25 11.753,-0.98592 12.42437,-0.94799 21.09375,1.625 7.9081,2.34705 9.13279,2.49221 10.4375,1.1875 1.30471,-1.30471 1.28408,-2.10748 -0.21875,-6.875 -0.93667,-2.97149 -2.15231,-9.10753 -2.71875,-13.625 -0.56644,-4.51746 -2.12406,-12.87154 -3.46875,-18.5625 -3.2503,-13.75585 -6.13489,-32.14349 -7.4375,-47.46875 -0.58436,-6.875 -1.32676,-13.9625 -1.65625,-15.75 l -0.625,-3.25 8.875,-0.0625 c 4.87371,-0.03657 13.04451,-0.60872 18.15625,-1.28125 3.8338,-0.504398 7.25336,-0.831971 8.8125,-0.875 z m -33.53125,119.1875 c -3.84968,0.1 -7.93046,1.10697 -11.71875,3 -10.34106,5.16749 -21.01587,20.52242 -22.9375,32.9375 -0.84246,5.44282 0.9805,19.03659 3.1875,23.6875 1.97678,4.16575 12.80598,11.02929 19.5,12.34375 2.41781,0.47477 5.99056,0.90845 7.9375,0.96875 4.64801,0.14387 14.95874,-2.56785 17.09375,-4.5 2.68876,-2.4333 3.22813,-13.19899 1.28125,-25.40625 -0.92104,-5.775 -1.90186,-17.1817 -2.15625,-25.34375 l -0.4375,-14.84375 -3.375,-1.40625 c -2.50746,-1.04769 -5.3808,-1.51528 -8.375,-1.4375 z m 2.0625,8.09375 c 2.09713,-0.062 3.93912,0.31964 4.65625,1.1875 0.5681,0.6875 1.24167,6.425 1.5,12.75 0.25834,6.325 0.96566,16.47499 1.59375,22.5625 0.65676,6.36546 0.81081,12.73877 0.34375,15 -0.79267,3.83758 -0.92811,3.96157 -5.28125,4.09375 -9.12907,0.2772 -16.48237,-1.24472 -22.28125,-4.5625 -6.67162,-3.81712 -7.13895,-4.95669 -7.15625,-17.59375 -0.0108,-7.88034 0.33939,-9.68116 2.78125,-14.5 1.53385,-3.02694 4.60132,-7.44906 6.8125,-9.84375 4.08498,-4.424 5.9633,-5.03525 3.9375,-1.25 -0.61392,1.14711 -0.81574,2.09375 -0.46875,2.09375 0.52235,0 5.64887,-2.62196 7.4375,-3.8125 0.27413,-0.18247 -0.33185,-0.94759 -1.34375,-1.6875 -1.72969,-1.26479 -1.67217,-1.42746 1.1875,-2.90625 1.82341,-0.94292 4.18412,-1.46928 6.28125,-1.53125 z"
           id="path3283"
           inkscape:connector-curvature="0" />
        <path
           style="fill:#0000ff;fill-opacity:1;display:inline"
           d="M 453.15625,67.34375 C 445.65636,67.336248 444.88458,67.681458 443,69.6875 l -2.28125,2.40625 2.6875,0 c 3.27474,0 20.12802,-2.847264 22.90625,-3.875 1.10844,-0.410036 -3.19014,-0.79109 -9.53125,-0.84375 -1.36935,-0.01137 -2.55359,-0.03018 -3.625,-0.03125 z M 484.875,75.3125 c -0.51356,0.01062 -0.84448,1.911569 -1.59375,7.09375 -1.05986,7.330383 -1.00607,8.911777 0.5,13.25 1.70029,4.89767 1.74042,4.91535 2.40625,1.9375 1.17893,-5.272665 0.89457,-18.850965 -0.4375,-21.25 -0.35632,-0.641719 -0.64156,-1.036079 -0.875,-1.03125 z m -15.1875,1.5625 c -1.55914,0.04303 -4.9787,0.370602 -8.8125,0.875 -5.11174,0.67253 -13.28254,1.24468 -18.15625,1.28125 l -8.875,0.0625 0.625,3.25 c 0.32949,1.7875 1.07189,8.875 1.65625,15.75 1.30261,15.32526 4.1872,33.7129 7.4375,47.46875 1.34469,5.69096 2.90231,14.04504 3.46875,18.5625 0.56644,4.51747 1.78208,10.65351 2.71875,13.625 1.50283,4.76752 1.52346,5.57029 0.21875,6.875 -1.30471,1.30471 -2.5294,1.15955 -10.4375,-1.1875 -8.66938,-2.57299 -9.34075,-2.61092 -21.09375,-1.625 -9.00627,0.75551 -13.36769,1.5824 -16.8125,3.25 -7.03636,3.40625 -17.18272,13.98998 -20.53125,21.375 -5.1719,11.40639 -5.96809,15.83784 -6.25,35.15625 l -0.25,18 2.84375,5.5 c 4.84701,9.32722 9.97931,13.60571 22.65625,18.875 14.32705,5.95517 23.98523,6.32306 37.25,1.40625 5.12008,-1.89783 7.65326,-3.52493 9.96875,-6.40625 3.30443,-4.11192 6.58406,-4.99121 8.78125,-2.34375 0.87115,1.04966 1.0775,3.34474 0.65625,7.375 -0.33576,3.21287 -0.31911,6.11839 0.0312,6.46875 1.56662,1.56662 26.17132,0.0787 27.9375,-1.6875 0.34348,-0.34348 -0.35081,-3.22584 -1.53125,-6.40625 -1.62939,-4.39 -2.34577,-9.63437 -3.0625,-21.78125 -0.51925,-8.8 -1.43458,-21.4 -2,-28 -1.90932,-22.28663 -2.77269,-45.95735 -1.96875,-53.5 2.2114,-20.74754 -0.54543,-68.76064 -4.625,-80.375 -1.32718,-3.77841 -1.60719,-6.735111 -1.15625,-13.125 0.32049,-4.541467 0.40722,-8.436531 0.1875,-8.65625 -0.0549,-0.05493 -0.35529,-0.07684 -0.875,-0.0625 z m -39.59375,4.59375 c -0.0292,0.01506 -0.0654,0.05257 -0.0937,0.125 -1.9497,4.983523 0.0595,36.03135 3.09375,47.78125 1.96012,7.59051 2.15953,4.88858 0.4375,-5.875 -0.87059,-5.44168 -1.83337,-17.55625 -2.15625,-26.90625 -0.31892,-9.235163 -0.84313,-15.350821 -1.28125,-15.125 z m 5.4375,54.09375 c -0.18087,-0.0674 -0.28125,0.5 -0.28125,1.53125 0,1.375 0.22259,1.9375 0.5,1.25 0.27741,-0.6875 0.27741,-1.8125 0,-2.5 -0.0693,-0.17187 -0.15846,-0.25879 -0.21875,-0.28125 z m 1,5 c -0.18087,-0.0674 -0.28125,0.5 -0.28125,1.53125 0,1.375 0.22259,1.9375 0.5,1.25 0.27741,-0.6875 0.27741,-1.8125 0,-2.5 -0.0693,-0.17187 -0.15846,-0.25879 -0.21875,-0.28125 z m 0.90625,5.875 c -0.15729,-0.005 -0.25358,0.54136 -0.28125,1.59375 -0.0496,1.88891 0.725,6.16391 1.6875,9.5 1.23002,4.26331 1.82515,5.31967 2,3.5625 0.13681,-1.375 -0.63783,-5.65 -1.6875,-9.5 -0.97469,-3.57498 -1.4566,-5.14765 -1.71875,-5.15625 z m -16.375,27.78125 c -1.65112,0.006 -3.20925,0.47725 -4.4375,1.40625 -1.76576,1.33556 -1.31405,1.4697 5,1.4375 6.52431,-0.0333 6.81862,-0.12544 4.46875,-1.46875 -1.6084,-0.91944 -3.38013,-1.38056 -5.03125,-1.375 z m 21.84375,4.46875 c -0.26025,0.009 -0.56051,0.0658 -0.90625,0.15625 -1.58486,0.41445 -1.76464,0.73183 -0.75,1.375 1.94331,1.23186 2.84375,1.06383 2.84375,-0.53125 0,-0.69979 -0.40674,-1.02732 -1.1875,-1 z m -55.3125,9.9375 -4,3.15625 c -8.86386,6.96729 -12.52865,12.84293 -12.46875,20.03125 0.0297,3.56452 0.22048,3.32422 3.625,-4.5 2.13711,-4.91147 5.49371,-10.43244 8.21875,-13.5 l 4.625,-5.1875 z m 100.8125,5.53125 c -0.42893,0.58756 0.48419,18.06309 1.84375,35.4375 0.5595,7.15 1.20469,20.425 1.4375,29.5 0.26007,10.13801 1.08239,19.58677 2.125,24.46875 l 1.6875,7.9375 1.9375,-4.4375 c 2.21333,-5.05633 2.21852,-4.89652 0.8125,-37.96875 -1.02812,-24.18338 -1.09131,-24.69385 -5.1875,-39.5 -2.2824,-8.25 -4.35063,-15.19201 -4.59375,-15.4375 -0.0166,-0.0168 -0.0487,-0.0189 -0.0625,0 z M 436.53125,196 c 2.75926,-0.0395 5.45675,0.43736 8,1.5 l 3.375,1.40625 0.4375,14.84375 c 0.25439,8.16205 1.23521,19.56875 2.15625,25.34375 1.94688,12.20726 1.40751,22.97295 -1.28125,25.40625 -0.92661,0.83856 -4.36303,2.21286 -7.625,3.0625 -10.45319,2.72271 -18.68231,1.44489 -28.53125,-4.40625 -7.93779,-4.71576 -9.5034,-7.37708 -11.125,-18.84375 -1.3366,-9.45141 -0.68399,-14.61167 2.9375,-22.96875 6.58492,-15.19559 19.69944,-25.17254 31.65625,-25.34375 z m 1.59375,8.15625 c -2.07361,0.0707 -4.38356,0.59839 -6.1875,1.53125 -2.85967,1.47879 -2.91719,1.64146 -1.1875,2.90625 1.0119,0.73991 1.61788,1.50503 1.34375,1.6875 -1.78863,1.19054 -6.91515,3.8125 -7.4375,3.8125 -0.34699,0 -0.14517,-0.94664 0.46875,-2.09375 0.61386,-1.1471 0.88412,-2.30339 0.59375,-2.59375 -0.58152,-0.58153 -7.15748,6.1573 -8.71875,8.9375 -0.8379,1.49208 -0.56054,1.75 1.9375,1.75 4.18054,0 15.65105,-3.7112 17.1875,-5.5625 1.71698,-2.06884 6.55203,-4.51047 7.34375,-3.71875 0.34473,0.34473 0.625,-0.48709 0.625,-1.84375 0,-1.35667 -0.55875,-2.99625 -1.21875,-3.65625 -0.84265,-0.84265 -2.67639,-1.22693 -4.75,-1.15625 z m -68.3125,16.625 -1.84375,3.40625 c -1.82556,3.42711 -2.46163,10.28004 -1.25,13.4375 1.11701,2.91089 2.0702,-0.35996 2.59375,-8.9375 l 0.5,-7.90625 z m 74.78125,7.59375 c -0.27487,0.24477 -0.74554,2.05295 -1.09375,4.375 -0.39795,2.65377 -1.37857,6.40961 -2.1875,8.34375 -0.80894,1.93413 -1.78699,7.02366 -2.15625,11.3125 L 438.5,260.1875 442,259.90625 c 3.19612,-0.27191 3.56978,-0.65103 4.3125,-4.25 0.75227,-3.64529 -0.5934,-26.24965 -1.625,-27.28125 -0.0313,-0.0313 -0.0545,-0.035 -0.0937,0 z m -31.9375,17.40625 c -0.17776,0.004 -0.2817,0.37548 -0.375,1.03125 -0.17204,1.20912 0.17737,3.12162 0.78125,4.25 2.00618,3.74858 2.8837,2.09907 1.1875,-2.21875 -0.83003,-2.11291 -1.29749,-3.06936 -1.59375,-3.0625 z m -21.0625,43.125 2.5,2.71875 c 1.375,1.5051 4.3,3.57838 6.5,4.59375 4.14918,1.91497 9.51649,2.31624 12.96875,0.96875 1.54285,-0.6022 0.86134,-0.95498 -3,-1.53125 -2.74801,-0.41011 -6.54375,-1.41989 -8.46875,-2.25 -1.925,-0.83011 -5.075,-2.17491 -7,-3 l -3.5,-1.5 z m 56.3125,1.625 c -1.32382,0.003 -3.81196,0.9941 -9.125,3 -3.73752,1.41107 -7.78752,2.6178 -9,2.6875 -1.21248,0.0697 0.7375,0.53009 4.3125,1 5.78163,0.75996 6.8054,0.61522 9.3125,-1.21875 2.7384,-2.00318 5.6875,-1.98778 5.6875,0.0312 0,1.72715 4.2993,3.49185 10,4.09375 6.04495,0.63825 10.45768,0.24793 16.375,-1.4375 3.26255,-0.92928 2.01749,-1.06006 -7.75,-0.75 -14.74933,0.46821 -16.15538,0.11018 -17.65625,-4.4375 -0.65804,-1.99387 -0.83243,-2.97142 -2.15625,-2.96875 z"
           id="path3164"
           inkscape:connector-curvature="0" />
      </g>
      <g
         id="g3596"
         style="display:inline">
        <g
           transform="translate(66.445242,67.066596)"
           style="display:inline"
           id="g3554">
          <path
             inkscape:connector-curvature="0"
             transform="translate(-66.445242,-67.066596)"
             id="path3297"
             d="m 308.59375,176.8125 -14.9375,0.65625 c -8.21647,0.35451 -17.44147,1.29337 -20.5,2.09375 -3.05853,0.80039 -9.08735,2.11893 -13.375,2.9375 -6.36776,1.21569 -8.96434,2.34428 -14.21875,6.09375 -9.86531,7.03975 -12.73579,12.9207 -17.53125,36 -5.01031,24.11328 -3.5943,34.34214 7.5625,54.59375 3.76014,6.82535 8.55342,14.08737 10.65625,16.125 6.19439,6.00231 22.16165,10.00182 44.34375,11.125 11.40448,0.57747 22.1357,-1.51979 37.53125,-7.34375 7.54428,-2.85392 9.23371,-3.99005 15.53125,-10.5 14.21106,-14.69041 18.67785,-24.03896 18.65625,-39 -0.0367,-25.40858 -12.72219,-53.47134 -27.875,-61.6875 -2.66659,-1.44588 -9.56875,-4.55024 -15.34375,-6.875 l -10.5,-4.21875 z m -6.21875,10.125 6.84375,3.59375 c 3.77095,1.97541 9.28096,4.51414 12.25,5.625 8.66695,3.24273 13.88063,8.59984 19.65625,20.28125 8.79153,17.78117 11.09225,37.48614 5.9375,50.8125 -1.13658,2.93838 -4.86431,8.94375 -8.28125,13.34375 -5.42367,6.98407 -7.17867,8.47116 -13.71875,11.71875 -4.12029,2.04601 -11.35066,4.63351 -16.09375,5.75 -4.74308,1.1165 -10.14308,1.98685 -12,1.90625 -25.45035,-1.10519 -40.51508,-3.79573 -46.28125,-8.25 -4.26028,-3.29098 -18.0353,-27.51836 -20.03125,-35.25 -0.87241,-3.37939 -1.5645,-8.32939 -1.5625,-11 0.004,-4.89744 4.03332,-28.97804 5.90625,-35.25 2.24393,-7.51436 4.41227,-12.125 5.71875,-12.125 0.75861,0 3.79504,-1.34996 6.71875,-3 7.38553,-4.16814 23.45487,-7.18394 41.03125,-7.71875 l 13.90625,-0.4375 z m -9.78125,20.84375 c -2.06173,0.0323 -4.21268,0.15277 -6.5,0.34375 -15.74927,1.31497 -27.17443,8.79094 -33.34375,21.8125 -2.73556,5.77396 -3.1503,7.71914 -3.125,14.65625 0.0242,6.65669 0.44502,8.83957 2.625,13 5.52409,10.54252 12.99284,17.48735 22.25,20.6875 3.63961,1.2582 8.26931,1.75785 16.3125,1.78125 10.84433,0.0315 11.49368,-0.0898 19,-3.59375 8.07738,-3.77048 18.2294,-10.27589 18.25,-11.6875 0.007,-0.44716 1.48036,-3.79951 3.25,-7.46875 6.5255,-13.53021 4.50826,-25.08235 -6.40625,-36.75 -8.63589,-9.23179 -17.8804,-13.00754 -32.3125,-12.78125 z m 2.25,7.90625 c 5.33415,0.1 10.76631,0.68072 13.375,1.6875 5.73953,2.21506 15.11235,11.77633 18.03125,18.375 4.3932,9.93156 0.15476,23.1297 -9.59375,29.84375 -5.15079,3.54749 -11.36263,4.9476 -17.5625,3.9375 -1.375,-0.22402 -6.325,-0.91758 -11,-1.53125 -10.58971,-1.39009 -15.57744,-3.47595 -19.90625,-8.40625 -7.76741,-8.8467 -8.90859,-16.36465 -3.90625,-25.75 3.27024,-6.1356 12.31593,-14.79034 17.6875,-16.9375 2.28904,-0.91499 7.54085,-1.31871 12.875,-1.21875 z m 7.625,48.65625 c -2.01467,0.12177 -5.20804,1.22763 -4.75,1.96875 0.32607,0.5276 1.76738,0.64552 3.21875,0.28125 2.95095,-0.74064 3.71682,-1.25193 2.96875,-2 -0.22665,-0.22665 -0.76594,-0.29059 -1.4375,-0.25 z"
             style="fill:#151415" />
        </g>
        <path
           style="fill:#ffff00;fill-opacity:1;display:inline"
           d="m 287.84375,173.21875 c -2.50812,0.002 -4.89505,0.59855 -6.96875,1.78125 -1.92718,1.09913 -7.24531,2.35502 -12.78125,3.03125 -18.13621,2.2154 -29.22273,6.46268 -33.03125,12.625 -1.91138,3.09268 -2.65369,8.44007 -1.34375,9.75 0.35236,0.35236 1.86508,-1.27056 3.34375,-3.59375 4.30159,-6.75839 13.53564,-12.54812 22.78125,-14.3125 4.26183,-0.81331 10.225,-2.11459 13.25,-2.875 3.025,-0.76041 10.225,-1.69585 16,-2.09375 l 10.5,-0.71875 -4,-1.84375 c -2.58666,-1.17993 -5.24188,-1.75156 -7.75,-1.75 z m 14.53125,13.71875 -13.90625,0.4375 c -17.57638,0.53481 -33.64572,3.55061 -41.03125,7.71875 -2.92371,1.65004 -5.96014,3 -6.71875,3 -1.30648,0 -3.47482,4.61064 -5.71875,12.125 -1.87293,6.27196 -5.90225,30.35256 -5.90625,35.25 -0.002,2.67061 0.69009,7.62061 1.5625,11 1.99595,7.73164 15.77097,31.95902 20.03125,35.25 4.41039,3.40695 16.96156,6.35389 30.90625,7.28125 6.6,0.43893 13.51809,0.88815 15.375,0.96875 5.65982,0.24578 20.17406,-3.72358 28.09375,-7.65625 6.54008,-3.24759 8.29508,-4.73468 13.71875,-11.71875 3.41694,-4.4 7.14467,-10.40537 8.28125,-13.34375 5.15475,-13.32636 2.85403,-33.03133 -5.9375,-50.8125 -5.77562,-11.68141 -10.9893,-17.03852 -19.65625,-20.28125 -2.96904,-1.11086 -8.47905,-3.64959 -12.25,-5.625 L 302.375,186.9375 z m -108.5625,19.15625 c -0.275,0 -1.03406,0.675 -1.71875,1.5 -0.68469,0.825 -1.025,1.5 -0.75,1.5 0.275,0 1.06531,-0.675 1.75,-1.5 0.68469,-0.825 0.99375,-1.5 0.71875,-1.5 z m 98.78125,1.6875 c 14.4321,-0.22629 23.67661,3.54946 32.3125,12.78125 10.91451,11.66765 12.93175,23.21979 6.40625,36.75 -1.76964,3.66924 -3.243,7.02159 -3.25,7.46875 -0.0206,1.41161 -10.17262,7.91702 -18.25,11.6875 -7.50632,3.50395 -8.15567,3.62525 -19,3.59375 C 274.57549,280.01529 265.92902,276.44039 258,266.5 c -6.36912,-7.9848 -8.3432,-13.16696 -8.375,-21.90625 -0.0253,-6.93711 0.38944,-8.88229 3.125,-14.65625 6.16932,-13.02156 17.59448,-20.49753 33.34375,-21.8125 2.28732,-0.19098 4.43827,-0.31142 6.5,-0.34375 z m 1.5,7.9375 c -11.29171,0.15325 -12.92293,0.72052 -20.65625,7.15625 -7.03394,5.8537 -12.37775,14.89676 -12.34375,20.875 0.0285,5.00189 2.84321,11.09548 7.5,16.25 2.04372,2.26214 3.9915,4.09375 4.3125,4.09375 0.321,0 0.035,-0.5275 -0.625,-1.1875 -1.74296,-1.74296 -1.48837,-3.9833 1.3125,-12 1.63451,-4.67832 2.5,-9.29759 2.5,-13.375 l 0,-6.25 4.34375,-2.09375 c 2.392,-1.15795 5.53776,-3.45263 7,-5.09375 1.71755,-1.92765 3.63465,-2.991 5.40625,-3 1.50826,-0.008 3.73082,-0.27018 4.9375,-0.59375 1.80197,-0.48321 2.44778,0.014 3.65625,2.90625 1.55081,3.7116 4.1598,5.6875 7.53125,5.6875 2.97506,0 6.125,3.88129 6.125,7.5625 0,1.74712 0.81935,4.25083 1.84375,5.5625 3.75648,4.80989 6.33612,11.11675 5.9375,14.53125 -0.21561,1.84684 -0.27838,3.34375 -0.125,3.34375 1.22638,0 4.6509,-9.46079 5.0625,-14 0.67698,-7.46585 -1.85998,-13.15556 -9.3125,-20.96875 -7.48563,-7.84791 -11.89833,-9.57601 -24.40625,-9.40625 z m -65.625,3.5625 c -0.20462,0.0753 -0.34505,0.61563 -0.3125,1.40625 0.048,1.16495 0.27453,1.39148 0.59375,0.59375 0.28891,-0.72188 0.26979,-1.57396 -0.0625,-1.90625 -0.0831,-0.0831 -0.15054,-0.11886 -0.21875,-0.0937 z m 133.3125,16.25 c -0.56063,0.0501 -0.58679,0.9518 -0.3125,2.71875 0.28589,1.84163 0.7965,5.4793 1.125,8.0625 0.59182,4.65386 0.6023,4.67895 2.53125,2.75 2.5221,-2.5221 2.6593,-9.06033 0.21875,-11.15625 -1.88954,-1.62271 -3.00187,-2.42506 -3.5625,-2.375 z M 226.5625,257.8125 c -0.17132,-0.0387 -0.33515,0.23101 -0.5625,0.8125 -1.58454,4.05277 -0.92266,7.39522 2.1875,10.9375 1.70698,1.94414 3.30204,3.53125 3.53125,3.53125 0.2292,0 -0.49715,-1.75673 -1.59375,-3.90625 -1.09661,-2.14953 -2.30885,-5.85077 -2.6875,-8.21875 -0.33979,-2.12494 -0.58947,-3.09171 -0.875,-3.15625 z m 67.46875,2.5 c -1.16686,0.022 -2.43284,0.25658 -4.21875,0.65625 -2.88242,0.64506 -6.55913,2.19525 -8.15625,3.46875 l -2.90625,2.34375 8.90625,1.15625 c 4.89969,0.64404 10.0625,1.33294 11.4375,1.53125 4.95883,0.71519 8.52806,0.57624 10,-0.375 0.88651,-0.57291 1.01143,-0.95975 0.3125,-0.96875 -0.65044,-0.008 -1.44201,-0.81085 -1.75,-1.78125 -0.31491,-0.99219 -3.20769,-2.81131 -6.59375,-4.15625 -3.41983,-1.35835 -5.08649,-1.91159 -7.03125,-1.875 z m 8.9375,4.125 c 1.15701,0.0603 1.65186,0.47313 1.03125,1.09375 -1.05616,1.05615 -5.75076,1.6396 -6.28125,0.78125 -0.32608,-0.5276 0.80233,-1.24797 2.53125,-1.59375 1.09015,-0.21803 2.02455,-0.31741 2.71875,-0.28125 z m -70.8125,10.78125 c -0.7474,0.0505 -1.04833,1.61832 -1.0625,4.65625 -0.0429,9.18766 10.63155,21.85025 21.8125,25.84375 2.01646,0.72022 4.43838,1.31965 5.375,1.34375 1.96396,0.0506 6.79515,-2.0008 6.78125,-2.875 -0.005,-0.32421 -3.36218,-1.59685 -7.46875,-2.84375 -9.4438,-2.86747 -13.56606,-6.70723 -20,-18.59375 -2.78395,-5.14326 -4.47656,-7.59617 -5.4375,-7.53125 z m 76.0625,30.15625 c -0.51935,0.01 -1.51425,0.14583 -3.125,0.375 -2.475,0.35213 -5.4,1.0034 -6.5,1.4375 -1.49756,0.59098 -0.99511,0.7916 2,0.8125 2.2,0.0154 5.125,-0.63591 6.5,-1.4375 1.49143,-0.86948 1.99058,-1.20354 1.125,-1.1875 z m -14.0625,0.84375 c -0.3474,0.0143 -0.64635,0.1151 -0.8125,0.28125 -0.33229,0.33229 0.25834,0.57465 1.3125,0.53125 1.16495,-0.048 1.42273,-0.30578 0.625,-0.625 -0.36094,-0.14445 -0.7776,-0.2018 -1.125,-0.1875 z"
           id="path3497"
           inkscape:connector-curvature="0" />
      </g>
      <g
         inkscape:label="#g3384"
         id="lettre_c">
        <path
           style="fill:#ff0000;fill-opacity:1;display:inline"
           d="m 131.625,172.125 c -2.96995,-0.0185 -20.02319,8.65605 -28.875,14.6875 -12.140237,8.27212 -19.22036,15.01677 -25.75,24.53125 -7.97682,11.62321 -8.86264,13.98173 -10.03125,27.4375 -0.8267,9.51895 -0.73501,12.39421 0.53125,16.75 1.95932,6.73983 8.33357,14.10835 13.5,15.65625 l 3.75,1.125 -0.4375,4.84375 c -0.37883,3.94252 0.0054,5.66432 2.125,9.28125 4.27694,7.29803 11.601263,12.4675 26.125,18.40625 4.41068,1.80352 8.93125,3.05385 10.03125,2.78125 1.1,-0.2726 2.9,-0.51365 4,-0.53125 1.1,-0.0176 -1.65704,-1.53433 -6.125,-3.375 -4.46796,-1.84067 -10.10552,-4.70605 -12.53125,-6.375 -6.80018,-4.67864 -17.2713,-16.37365 -20.40625,-22.78125 -2.65533,-5.4273 -2.8847,-6.86256 -3.625,-23.875 C 82.75346,224.19603 84.323,217.93516 96,202.25 c 12.01897,-16.14451 18.16439,-21.6371 29.875,-26.75 4.23142,-1.84745 6.82911,-3.368 5.75,-3.375 z m 13.90625,2.59375 c -7.46705,0.0668 -9.45526,0.56257 -15.625,3.03125 -4.22782,1.69166 -9.98542,4.76018 -12.78125,6.8125 -6.30814,4.6306 -21.14573,22.9818 -25.09375,31.03125 -4.35125,8.87159 -5.01087,14.55057 -4.09375,35 0.9042,20.16121 1.34815,21.64605 9.34375,31.125 11.48215,13.61232 26.31233,20.83471 45.8125,22.34375 21.85584,1.69134 25.17333,1.09408 43.28125,-7.8125 7.80577,-3.83935 15.77826,-8.31301 17.6875,-9.9375 3.19487,-2.71839 3.35434,-3.13873 2.25,-5.5625 -0.65995,-1.44843 -1.99446,-2.65425 -2.96875,-2.65625 -3.1685,-0.006 -16.61245,4.12812 -22.25,6.84375 -5.08869,2.4512 -6.3974,2.64551 -17.5,2.5 -17.15894,-0.22489 -24.50862,-1.67078 -33.875,-6.65625 -9.74708,-5.18811 -18.35417,-13.94439 -20.84375,-21.21875 -3.03346,-8.86355 -3.27085,-17.09373 -0.78125,-27.0625 3.01778,-12.08369 5.48503,-16.95371 11.6875,-23.1875 7.6809,-7.71968 14.4195,-10.52393 26.53125,-11.03125 10.85078,-0.45451 22.01304,1.65387 26.1875,4.9375 1.32258,1.04035 2.95598,1.875 3.625,1.875 2.53316,0 16.9119,-9.52531 16.9375,-11.21875 0.0431,-2.84484 -8.22047,-12.00988 -13,-14.4375 -5.91346,-3.00358 -16.83914,-4.67875 -30.96875,-4.71875 -1.3186,-0.004 -2.49578,-0.01 -3.5625,0 z m -7.0625,80.375 c -3.17381,0 -7.98165,2.20624 -9.5,4.34375 -0.34992,0.49261 -0.91344,0.45082 -1.25,-0.0937 -0.67747,-1.09616 -5.625,-0.43722 -5.625,0.75 0,3.08882 17.0309,14.02827 23.5,15.09375 2.20055,0.36244 5.45636,0.71245 7.25,0.78125 l 3.25,0.125 -3.9375,-7.84375 c -4.64501,-9.23845 -8.71194,-13.15625 -13.6875,-13.15625 z m 78.625,25.65625 -2.75,3.625 c -3.30089,4.35051 -6.64102,7.02732 -13.5625,10.84375 l -5.1875,2.84375 4.84375,0.0312 c 2.71379,0.0102 6.01348,-0.69369 7.5,-1.59375 4.38609,-2.65571 9.15625,-9.26825 9.15625,-12.6875 l 0,-3.0625 z"
           id="path3081"
           inkscape:connector-curvature="0" />
        <path
           style="fill:#151415;display:inline"
           d="m 149.8125,170.65625 c -22.15849,-0.007 -36.22875,8.31045 -52.4375,29.8125 -13.16859,17.46907 -14.65222,23.02209 -13.46875,50.21875 0.74158,17.04203 0.96699,18.44371 3.65625,24 4.41109,9.11376 17.90415,22.13444 27.8125,26.8125 9.16915,4.32906 16.68662,6.36773 27.40625,7.5 21.55292,2.27655 27.19,1.20229 48.84375,-9.34375 15.9365,-7.76156 24.46875,-14.32942 24.46875,-18.875 0,-1.19409 -1.84988,-4.77448 -4.09375,-7.9375 -4.75696,-6.70554 -7.77188,-7.98134 -12.375,-5.25 -14.69985,8.7224 -26.32326,10.78505 -47.375,8.40625 -8.41969,-0.9514 -10.6352,-1.63042 -17.0625,-5.25 -8.30927,-4.67941 -14.59601,-11.13925 -16.09375,-16.53125 -1.54862,-5.5752 -1.19118,-13.96245 0.875,-21.1875 2.47692,-8.66134 4.27279,-11.98358 8.5625,-15.75 7.61726,-6.68804 12.22948,-7.74903 29.21875,-6.6875 11.35184,0.70929 11.84,0.83555 14.5625,3.75 4.83497,5.17584 7.42414,4.19571 21.53125,-8.0625 6.46309,-5.61602 7.76571,-8.68468 4.75,-11.1875 -0.825,-0.68469 -1.5,-1.74751 -1.5,-2.375 0,-2.4358 -7.20631,-11.64362 -11.3125,-14.46875 -5.69294,-3.91685 -12.87105,-5.87751 -25.96875,-7.09375 -3.52633,-0.32745 -6.8345,-0.49904 -10,-0.5 z m -4.28125,4.0625 c 1.06672,-0.01 2.2439,-0.004 3.5625,0 14.12961,0.04 25.05529,1.71517 30.96875,4.71875 4.77953,2.42762 13.0431,11.59266 13,14.4375 -0.0256,1.69344 -14.40434,11.21875 -16.9375,11.21875 -0.66902,0 -2.30242,-0.83465 -3.625,-1.875 -4.17446,-3.28363 -15.33672,-5.39201 -26.1875,-4.9375 -12.11175,0.50732 -18.85035,3.31157 -26.53125,11.03125 -6.20247,6.23379 -8.66972,11.10381 -11.6875,23.1875 -5.35124,21.42724 2.00305,37.83701 21.625,48.28125 9.36638,4.98547 16.71606,6.43136 33.875,6.65625 11.1026,0.14551 12.41131,-0.0488 17.5,-2.5 5.63755,-2.71563 19.0815,-6.84975 22.25,-6.84375 0.97429,0.002 2.3088,1.20782 2.96875,2.65625 1.10434,2.42377 0.94487,2.84411 -2.25,5.5625 -6.00473,5.10917 -31.04298,16.81065 -38.1875,17.84375 -3.46923,0.50165 -7.85625,0.85015 -9.78125,0.78125 -29.91883,-1.07152 -45.22856,-7.11471 -58.8125,-23.21875 -7.9956,-9.47895 -8.43955,-10.96379 -9.34375,-31.125 -0.91712,-20.44943 -0.2575,-26.12841 4.09375,-35 3.94802,-8.04945 18.78561,-26.40065 25.09375,-31.03125 2.79583,-2.05232 8.55343,-5.12084 12.78125,-6.8125 6.16974,-2.46868 8.15795,-2.96452 15.625,-3.03125 z m -21.125,74.125 c -0.77939,0.2379 -0.8281,0.57825 -0.46875,3.5 0.0845,0.6875 1.05992,2.77547 2.1875,4.625 1.12759,1.84953 2.23209,3.2054 2.4375,3 0.67811,-0.67812 -3.31964,-11.38036 -4.15625,-11.125 z"
           id="path3301"
           inkscape:connector-curvature="0" />
      </g>
    </g>
  </g>
</svg>
